<svg width="100" height="100" viewBox="0 0 100 100" fill="none" xmlns="http://www.w3.org/2000/svg">
<circle cx="50" cy="50" r="48.5" stroke="white" stroke-width="3"/>
<path fill-rule="evenodd" clip-rule="evenodd" d="M33.6421 60.5189C33.6421 61.0486 33.9085 61.3135 34.4411 61.3135H56.0127C56.5453 61.3135 56.8116 61.0486 56.8116 60.5189C56.8116 60.2541 56.5453 59.9892 56.0127 59.9892H34.4411C33.9085 59.9892 33.6421 60.2541 33.6421 60.5189ZM88.5033 34.5622C86.1064 32.1784 81.8454 30.0595 74.3885 34.0324V31.3838C74.3885 30.8541 74.3885 30.5892 74.1222 30.3243C73.8559 30.0595 73.3233 29.7946 73.0569 29.7946H34.1748C33.9085 29.2649 33.3758 29 32.8432 29C32.3106 29 31.7779 29.2649 31.5116 29.7946H16.5979C16.0653 29.7946 15.7989 30.0595 15.5326 30.3243C15.2663 30.5892 15 30.8541 15 31.3838V44.8919C15 48.0703 15 57.6054 23.2558 64.4919C24.3211 65.5513 25.3863 66.3459 26.4516 67.1405H17.6632C16.8642 67.1405 16.0653 67.6703 16.0653 68.4649V71.9081C16.0653 72.4378 16.3316 72.9676 16.8642 73.2324L21.1253 75.6162L22.4569 77.4703C22.7232 77.7351 23.2558 78 23.5221 78H65.6001C65.8664 78 66.399 77.7351 66.6653 77.4703L67.9969 75.6162L72.258 73.2324C72.7906 72.9676 73.0569 72.4378 73.0569 71.9081V68.4649C73.0569 67.6703 72.258 67.1405 71.459 67.1405H63.2032C64.2685 66.3459 65.3338 65.5513 66.399 64.4919C68.5296 62.6378 70.1275 60.7838 71.1927 58.6649C84.7749 57.0757 88.7696 49.3946 90.1012 46.2162C91.6991 41.7135 91.1664 37.2108 88.5033 34.5622ZM32.8432 42.2432C33.9085 42.2432 34.7074 43.0378 34.7074 44.0973C34.7074 45.1568 33.9085 46.2162 32.8432 46.2162C31.7779 46.2162 30.7127 45.1568 30.7127 44.0973C30.7127 43.0378 31.7779 42.2432 32.8432 42.2432ZM70.1275 70.0541V71.1135L66.399 73.2324C66.1327 73.4973 66.1327 73.4973 65.8664 73.4973L64.8011 74.8216H24.3211L22.9895 73.4973C22.9895 73.4973 22.9895 73.4973 22.7232 73.2324L18.9947 71.1135V70.0541H70.1275ZM71.459 44.8919C71.459 49.6595 70.6601 56.8108 64.2685 62.373C59.2085 66.8757 56.0127 67.1405 56.0127 67.1405H33.6421C33.6421 67.1405 30.18 66.8757 25.12 62.373C18.7284 56.8108 17.9295 49.6595 17.9295 44.8919V32.7081H31.2453V39.0649V39.3297H29.3811L26.1853 45.1568V55.2216H39.5011V45.1568L36.039 39.3297H34.1748V39.0649V32.7081H71.459V44.8919ZM87.1717 45.1568C86.3727 47.8054 83.177 53.6324 72.7906 55.4865C74.3885 50.9838 74.3885 46.7459 74.3885 44.8919V37.2108C74.6548 37.2108 74.6548 37.2108 74.6548 37.2108C79.9812 34.2973 83.9759 34.0324 86.3727 36.4162C88.237 38.5351 88.5033 41.9784 87.1717 45.1568Z" fill="white"/>
</svg>
