<svg width="1920" height="118" viewBox="0 0 1920 118" fill="none" xmlns="http://www.w3.org/2000/svg">
<path fill-rule="evenodd" clip-rule="evenodd" d="M1378.22 34.8369C1377.36 63.3984 1393.23 81.6909 1418.09 92.1416C1420.1 65.9934 1411.09 45.0567 1378.22 34.8369Z" fill="url(#paint0_linear_1354_1121)"/>
<path fill-rule="evenodd" clip-rule="evenodd" d="M1493.87 41.8789C1467.22 50.298 1455.47 71.6042 1453.88 99.0893C1478.68 92.5731 1495.09 77.051 1493.87 41.8789Z" fill="url(#paint1_linear_1354_1121)"/>
<path fill-rule="evenodd" clip-rule="evenodd" d="M1596.86 54.1076C1569.16 50.8326 1550.04 65.4971 1537.79 90.0034C1563.05 94.2567 1584.17 86.8086 1596.86 54.1076Z" fill="url(#paint2_linear_1354_1121)"/>
<path fill-rule="evenodd" clip-rule="evenodd" d="M1825.23 54.1076C1797.53 50.8326 1778.41 65.4971 1766.16 90.0034C1791.42 94.2567 1812.54 86.8086 1825.23 54.1076Z" fill="url(#paint3_linear_1354_1121)"/>
<path fill-rule="evenodd" clip-rule="evenodd" d="M1498.41 20.0885C1491.56 47.7896 1503.21 69.1548 1525.29 84.848C1532.76 59.7589 1528.35 37.3238 1498.41 20.0885Z" fill="url(#paint4_linear_1354_1121)"/>
<path fill-rule="evenodd" clip-rule="evenodd" d="M1709.21 31.0885C1702.37 58.7896 1714.01 80.1548 1736.09 95.848C1743.56 70.7589 1739.16 48.3238 1709.21 31.0885Z" fill="url(#paint5_linear_1354_1121)"/>
<path fill-rule="evenodd" clip-rule="evenodd" d="M1692.5 74.9119C1664.8 78.1869 1645.68 63.5224 1633.43 39.0162C1658.69 34.7629 1679.81 42.2109 1692.5 74.9119Z" fill="url(#paint6_linear_1354_1121)"/>
<path fill-rule="evenodd" clip-rule="evenodd" d="M1608.69 111.931C1601.84 84.2299 1613.49 62.8647 1635.57 47.1715C1643.04 72.2606 1638.64 94.6958 1608.69 111.931Z" fill="url(#paint7_linear_1354_1121)"/>
<path fill-rule="evenodd" clip-rule="evenodd" d="M1865.22 93.5845C1839.69 82.0722 1830.42 59.5196 1831.93 32.0294C1855.83 41.4324 1870.38 58.7903 1865.22 93.5845Z" fill="url(#paint8_linear_1354_1121)"/>
<path fill-rule="evenodd" clip-rule="evenodd" d="M1877.07 90.6224C1870.23 62.9214 1881.87 41.5561 1903.95 25.8629C1911.42 50.952 1907.02 73.3872 1877.07 90.6224Z" fill="url(#paint9_linear_1354_1121)"/>
<path fill-rule="evenodd" clip-rule="evenodd" d="M1450 64.0239C1453.52 63.7664 1453.52 68.9173 1450.51 69.1749C1446.99 69.69 1446.74 64.2815 1450 64.0239ZM1454.27 64.0239C1457.54 61.9635 1466.57 61.4484 1462.05 56.555C1460.05 54.4946 1459.29 54.4946 1457.54 51.6616C1457.03 51.1465 1456.78 50.3738 1456.03 50.1163C1454.27 49.6012 1453.02 50.8889 1452.01 52.1767C1449.25 55.7824 1449.25 58.1003 1449 62.2211C1448.75 59.6456 1449 54.2371 1448 52.4342C1446.74 49.8587 1443.73 52.6918 1441.97 53.2069C1441.47 53.722 1440.97 53.9795 1440.21 54.2371C1439.46 54.4946 1438.71 54.7522 1437.95 55.0097C1437.2 55.2673 1436.7 55.5248 1436.2 56.2975C1435.7 58.1003 1436.95 59.9031 1437.7 60.6758C1439.96 63.7664 1441.47 64.7965 1444.73 66.0843L1445.23 66.3418C1442.72 65.8267 1436.45 62.9937 1434.94 65.0541C1433.94 66.8569 1435.7 70.7202 1435.44 74.3258C1435.19 80.7645 1443.23 76.3862 1445.74 74.0683C1446.49 73.5532 1448 71.7504 1448.5 70.9777C1447.49 73.5532 1444.73 75.8711 1443.73 78.9617C1442.72 82.5674 1448.25 81.7947 1451.76 82.8249C1453.77 83.5976 1455.03 84.3702 1456.03 82.8249C1457.03 81.7947 1456.78 79.2193 1456.78 77.9315C1456.53 73.8107 1455.03 72.523 1454.02 70.2051C1455.28 71.2353 1457.03 74.5834 1459.54 76.6438C1462.31 78.9617 1463.56 73.5532 1465.32 70.7202C1466.32 68.9173 1470.09 66.0843 1463.56 64.0239C1459.8 62.7362 1457.54 63.2513 1454.27 64.0239Z" fill="url(#paint10_radial_1354_1121)"/>
<path fill-rule="evenodd" clip-rule="evenodd" d="M1450 64.024C1446.74 64.2815 1446.99 69.6901 1450.51 69.175C1453.52 68.9174 1453.52 63.7664 1450 64.024Z" fill="#FDFDFD"/>
<path fill-rule="evenodd" clip-rule="evenodd" d="M1546.62 50.0239C1550.14 49.7664 1550.14 54.9173 1547.12 55.1749C1543.61 55.69 1543.36 50.2815 1546.62 50.0239ZM1550.89 50.0239C1554.15 47.9635 1563.19 47.4484 1558.67 42.555C1556.66 40.4946 1555.91 40.4946 1554.15 37.6616C1553.65 37.1465 1553.4 36.3738 1552.65 36.1163C1550.89 35.6012 1549.63 36.8889 1548.63 38.1767C1545.87 41.7824 1545.87 44.1003 1545.62 48.2211C1545.37 45.6456 1545.62 40.2371 1544.61 38.4342C1543.36 35.8587 1540.35 38.6918 1538.59 39.2069C1538.09 39.722 1537.58 39.9795 1536.83 40.2371C1536.08 40.4946 1535.33 40.7522 1534.57 41.0097C1533.82 41.2673 1533.32 41.5248 1532.82 42.2975C1532.31 44.1003 1533.57 45.9031 1534.32 46.6758C1536.58 49.7664 1538.09 50.7965 1541.35 52.0843L1541.85 52.3418C1539.34 51.8267 1533.07 48.9937 1531.56 51.0541C1530.56 52.8569 1532.31 56.7202 1532.06 60.3258C1531.81 66.7645 1539.84 62.3862 1542.35 60.0683C1543.11 59.5532 1544.61 57.7504 1545.12 56.9777C1544.11 59.5532 1541.35 61.8711 1540.35 64.9617C1539.34 68.5674 1544.87 67.7947 1548.38 68.8249C1550.39 69.5976 1551.64 70.3702 1552.65 68.8249C1553.65 67.7947 1553.4 65.2193 1553.4 63.9315C1553.15 59.8107 1551.64 58.523 1550.64 56.2051C1551.89 57.2353 1553.65 60.5834 1556.16 62.6438C1558.92 64.9617 1560.18 59.5532 1561.94 56.7202C1562.94 54.9173 1566.71 52.0843 1560.18 50.0239C1556.41 48.7362 1554.15 49.2513 1550.89 50.0239Z" fill="url(#paint11_radial_1354_1121)"/>
<path fill-rule="evenodd" clip-rule="evenodd" d="M1546.62 50.024C1543.36 50.2815 1543.61 55.6901 1547.12 55.175C1550.14 54.9174 1550.14 49.7664 1546.62 50.024Z" fill="#FDFDFD"/>
<path fill-rule="evenodd" clip-rule="evenodd" d="M1757.43 61.0239C1760.94 60.7664 1760.94 65.9173 1757.93 66.1749C1754.41 66.69 1754.16 61.2815 1757.43 61.0239ZM1761.69 61.0239C1764.96 58.9635 1773.99 58.4484 1769.48 53.555C1767.47 51.4946 1766.71 51.4946 1764.96 48.6616C1764.45 48.1465 1764.2 47.3738 1763.45 47.1163C1761.69 46.6012 1760.44 47.8889 1759.43 49.1767C1756.67 52.7824 1756.67 55.1003 1756.42 59.2211C1756.17 56.6456 1756.42 51.2371 1755.42 49.4342C1754.16 46.8587 1751.15 49.6918 1749.39 50.2069C1748.89 50.722 1748.39 50.9795 1747.63 51.2371C1746.88 51.4946 1746.13 51.7522 1745.38 52.0097C1744.62 52.2673 1744.12 52.5248 1743.62 53.2975C1743.12 55.1003 1744.37 56.9031 1745.12 57.6758C1747.38 60.7664 1748.89 61.7965 1752.15 63.0843L1752.66 63.3418C1750.14 62.8267 1743.87 59.9937 1742.36 62.0541C1741.36 63.8569 1743.12 67.7202 1742.86 71.3258C1742.61 77.7645 1750.65 73.3862 1753.16 71.0683C1753.91 70.5532 1755.42 68.7504 1755.92 67.9777C1754.91 70.5532 1752.15 72.8711 1751.15 75.9617C1750.14 79.5674 1755.67 78.7947 1759.18 79.8249C1761.19 80.5976 1762.45 81.3702 1763.45 79.8249C1764.45 78.7947 1764.2 76.2193 1764.2 74.9315C1763.95 70.8107 1762.45 69.523 1761.44 67.2051C1762.7 68.2353 1764.45 71.5834 1766.96 73.6438C1769.73 75.9617 1770.98 70.5532 1772.74 67.7202C1773.74 65.9173 1777.51 63.0843 1770.98 61.0239C1767.22 59.7362 1764.96 60.2513 1761.69 61.0239Z" fill="url(#paint12_radial_1354_1121)"/>
<path fill-rule="evenodd" clip-rule="evenodd" d="M1757.43 61.024C1754.16 61.2815 1754.41 66.6901 1757.93 66.175C1760.94 65.9174 1760.94 60.7664 1757.43 61.024Z" fill="#FDFDFD"/>
<path fill-rule="evenodd" clip-rule="evenodd" d="M1814.03 92.0239C1817.54 91.7664 1817.54 96.9173 1814.53 97.1749C1811.02 97.69 1810.77 92.2815 1814.03 92.0239ZM1818.3 92.0239C1821.56 89.9635 1830.6 89.4484 1826.08 84.555C1824.07 82.4946 1823.32 82.4946 1821.56 79.6616C1821.06 79.1465 1820.81 78.3738 1820.05 78.1163C1818.3 77.6012 1817.04 78.8889 1816.04 80.1767C1813.28 83.7824 1813.28 86.1003 1813.03 90.2211C1812.77 87.6456 1813.03 82.2371 1812.02 80.4342C1810.77 77.8587 1807.75 80.6918 1806 81.2069C1805.49 81.722 1804.99 81.9795 1804.24 82.2371C1803.49 82.4946 1802.73 82.7522 1801.98 83.0097C1801.23 83.2673 1800.72 83.5248 1800.22 84.2975C1799.72 86.1003 1800.98 87.9031 1801.73 88.6758C1803.99 91.7664 1805.49 92.7965 1808.76 94.0843L1809.26 94.3418C1806.75 93.8267 1800.47 90.9937 1798.97 93.0541C1797.96 94.8569 1799.72 98.7202 1799.47 102.326C1799.22 108.765 1807.25 104.386 1809.76 102.068C1810.51 101.553 1812.02 99.7504 1812.52 98.9777C1811.52 101.553 1808.76 103.871 1807.75 106.962C1806.75 110.567 1812.27 109.795 1815.79 110.825C1817.8 111.598 1819.05 112.37 1820.05 110.825C1821.06 109.795 1820.81 107.219 1820.81 105.932C1820.56 101.811 1819.05 100.523 1818.05 98.2051C1819.3 99.2353 1821.06 102.583 1823.57 104.644C1826.33 106.962 1827.59 101.553 1829.34 98.7202C1830.35 96.9173 1834.11 94.0843 1827.59 92.0239C1823.82 90.7362 1821.56 91.2513 1818.3 92.0239Z" fill="url(#paint13_radial_1354_1121)"/>
<path fill-rule="evenodd" clip-rule="evenodd" d="M1814.03 92.024C1810.77 92.2815 1811.02 97.6901 1814.53 97.175C1817.54 96.9174 1817.54 91.7664 1814.03 92.024Z" fill="#FDFDFD"/>
<path fill-rule="evenodd" clip-rule="evenodd" d="M1890.15 47.0239C1893.67 46.7664 1893.67 51.9173 1890.65 52.1749C1887.14 52.69 1886.89 47.2815 1890.15 47.0239ZM1894.42 47.0239C1897.68 44.9635 1906.72 44.4484 1902.2 39.555C1900.19 37.4946 1899.44 37.4946 1897.68 34.6616C1897.18 34.1465 1896.93 33.3738 1896.18 33.1163C1894.42 32.6012 1893.17 33.8889 1892.16 35.1767C1889.4 38.7824 1889.4 41.1003 1889.15 45.2211C1888.9 42.6456 1889.15 37.2371 1888.14 35.4342C1886.89 32.8587 1883.88 35.6918 1882.12 36.2069C1881.62 36.722 1881.12 36.9795 1880.36 37.2371C1879.61 37.4946 1878.86 37.7522 1878.1 38.0097C1877.35 38.2673 1876.85 38.5248 1876.35 39.2975C1875.84 41.1003 1877.1 42.9031 1877.85 43.6758C1880.11 46.7664 1881.62 47.7965 1884.88 49.0843L1885.38 49.3418C1882.87 48.8267 1876.6 45.9937 1875.09 48.0541C1874.09 49.8569 1875.84 53.7202 1875.59 57.3258C1875.34 63.7645 1883.37 59.3862 1885.89 57.0683C1886.64 56.5532 1888.14 54.7504 1888.65 53.9777C1887.64 56.5532 1884.88 58.8711 1883.88 61.9617C1882.87 65.5674 1888.4 64.7947 1891.91 65.8249C1893.92 66.5976 1895.17 67.3702 1896.18 65.8249C1897.18 64.7947 1896.93 62.2193 1896.93 60.9315C1896.68 56.8107 1895.17 55.523 1894.17 53.2051C1895.42 54.2353 1897.18 57.5834 1899.69 59.6438C1902.45 61.9617 1903.71 56.5532 1905.47 53.7202C1906.47 51.9173 1910.24 49.0843 1903.71 47.0239C1899.94 45.7362 1897.68 46.2513 1894.42 47.0239Z" fill="url(#paint14_radial_1354_1121)"/>
<path fill-rule="evenodd" clip-rule="evenodd" d="M1890.15 47.024C1886.89 47.2815 1887.14 52.6901 1890.65 52.175C1893.67 51.9174 1893.67 46.7664 1890.15 47.024Z" fill="#FDFDFD"/>
<path fill-rule="evenodd" clip-rule="evenodd" d="M1649.1 81.0239C1652.61 80.7664 1652.61 85.9173 1649.6 86.1749C1646.08 86.69 1645.83 81.2815 1649.1 81.0239ZM1653.36 81.0239C1656.63 78.9635 1665.66 78.4484 1661.15 73.555C1659.14 71.4946 1658.38 71.4946 1656.63 68.6616C1656.13 68.1465 1655.87 67.3738 1655.12 67.1163C1653.36 66.6012 1652.11 67.8889 1651.1 69.1767C1648.34 72.7824 1648.34 75.1003 1648.09 79.2211C1647.84 76.6456 1648.09 71.2371 1647.09 69.4342C1645.83 66.8587 1642.82 69.6918 1641.06 70.2069C1640.56 70.722 1640.06 70.9795 1639.31 71.2371C1638.55 71.4946 1637.8 71.7522 1637.05 72.0097C1636.29 72.2673 1635.79 72.5248 1635.29 73.2975C1634.79 75.1003 1636.04 76.9031 1636.79 77.6758C1639.05 80.7664 1640.56 81.7965 1643.82 83.0843L1644.33 83.3418C1641.82 82.8267 1635.54 79.9937 1634.03 82.0541C1633.03 83.8569 1634.79 87.7202 1634.54 91.3258C1634.28 97.7645 1642.32 93.3862 1644.83 91.0683C1645.58 90.5532 1647.09 88.7504 1647.59 87.9777C1646.59 90.5532 1643.82 92.8711 1642.82 95.9617C1641.82 99.5674 1647.34 98.7947 1650.85 99.8249C1652.86 100.598 1654.12 101.37 1655.12 99.8249C1656.13 98.7947 1655.87 96.2193 1655.87 94.9315C1655.62 90.8107 1654.12 89.523 1653.11 87.2051C1654.37 88.2353 1656.13 91.5834 1658.64 93.6438C1661.4 95.9617 1662.65 90.5532 1664.41 87.7202C1665.41 85.9173 1669.18 83.0843 1662.65 81.0239C1658.89 79.7362 1656.63 80.2513 1653.36 81.0239Z" fill="url(#paint15_radial_1354_1121)"/>
<path fill-rule="evenodd" clip-rule="evenodd" d="M1649.1 81.024C1645.83 81.2815 1646.08 86.6901 1649.6 86.175C1652.61 85.9174 1652.61 80.7664 1649.1 81.024Z" fill="#FDFDFD"/>
<path fill-rule="evenodd" clip-rule="evenodd" d="M1712.53 64.0239C1716.05 63.7664 1716.05 68.9173 1713.03 69.1749C1709.52 69.69 1709.27 64.2815 1712.53 64.0239ZM1716.8 64.0239C1720.06 61.9635 1729.1 61.4484 1724.58 56.555C1722.57 54.4946 1721.82 54.4946 1720.06 51.6616C1719.56 51.1465 1719.31 50.3738 1718.56 50.1163C1716.8 49.6012 1715.54 50.8889 1714.54 52.1767C1711.78 55.7824 1711.78 58.1003 1711.53 62.2211C1711.28 59.6456 1711.53 54.2371 1710.52 52.4342C1709.27 49.8587 1706.26 52.6918 1704.5 53.2069C1704 53.722 1703.49 53.9795 1702.74 54.2371C1701.99 54.4946 1701.24 54.7522 1700.48 55.0097C1699.73 55.2673 1699.23 55.5248 1698.72 56.2975C1698.22 58.1003 1699.48 59.9031 1700.23 60.6758C1702.49 63.7664 1704 64.7965 1707.26 66.0843L1707.76 66.3418C1705.25 65.8267 1698.98 62.9937 1697.47 65.0541C1696.47 66.8569 1698.22 70.7202 1697.97 74.3258C1697.72 80.7645 1705.75 76.3862 1708.26 74.0683C1709.02 73.5532 1710.52 71.7504 1711.03 70.9777C1710.02 73.5532 1707.26 75.8711 1706.26 78.9617C1705.25 82.5674 1710.77 81.7947 1714.29 82.8249C1716.3 83.5976 1717.55 84.3702 1718.56 82.8249C1719.56 81.7947 1719.31 79.2193 1719.31 77.9315C1719.06 73.8107 1717.55 72.523 1716.55 70.2051C1717.8 71.2353 1719.56 74.5834 1722.07 76.6438C1724.83 78.9617 1726.09 73.5532 1727.85 70.7202C1728.85 68.9173 1732.62 66.0843 1726.09 64.0239C1722.32 62.7362 1720.06 63.2513 1716.8 64.0239Z" fill="url(#paint16_radial_1354_1121)"/>
<path fill-rule="evenodd" clip-rule="evenodd" d="M1712.53 64.024C1709.27 64.2815 1709.52 69.6901 1713.03 69.175C1716.05 68.9174 1716.05 63.7664 1712.53 64.024Z" fill="#FDFDFD"/>
<path fill-rule="evenodd" clip-rule="evenodd" d="M11.9077 42.8369C11.0479 71.3984 26.9137 89.6909 51.7739 100.142C53.7904 73.9934 44.7749 53.0567 11.9077 42.8369Z" fill="url(#paint17_linear_1354_1121)"/>
<path fill-rule="evenodd" clip-rule="evenodd" d="M356.414 44.8369C355.554 73.3984 371.42 91.6909 396.28 102.142C398.296 75.9934 389.281 55.0567 356.414 44.8369Z" fill="url(#paint18_linear_1354_1121)"/>
<path fill-rule="evenodd" clip-rule="evenodd" d="M692.137 35.8369C691.277 64.3984 707.143 82.6909 732.003 93.1416C734.019 66.9934 725.004 46.0567 692.137 35.8369Z" fill="url(#paint19_linear_1354_1121)"/>
<path fill-rule="evenodd" clip-rule="evenodd" d="M1036.64 41.8369C1035.78 70.3984 1051.65 88.6909 1076.51 99.1416C1078.53 72.9934 1069.51 52.0567 1036.64 41.8369Z" fill="url(#paint20_linear_1354_1121)"/>
<path fill-rule="evenodd" clip-rule="evenodd" d="M132.44 36.8789C105.791 45.298 94.0409 66.6042 92.4453 94.0893C117.241 87.5731 133.652 72.051 132.44 36.8789Z" fill="url(#paint21_linear_1354_1121)"/>
<path fill-rule="evenodd" clip-rule="evenodd" d="M476.947 38.8789C450.297 47.298 438.547 68.6042 436.952 96.0893C461.748 89.5731 478.158 74.051 476.947 38.8789Z" fill="url(#paint22_linear_1354_1121)"/>
<path fill-rule="evenodd" clip-rule="evenodd" d="M1149.37 34.8789C1122.72 43.298 1110.97 64.6042 1109.37 92.0893C1134.17 85.5731 1150.58 70.051 1149.37 34.8789Z" fill="url(#paint23_linear_1354_1121)"/>
<path fill-rule="evenodd" clip-rule="evenodd" d="M807.435 40.0276C779.842 44.171 765.05 63.385 759.37 90.2965C784.847 87.7433 803.381 74.9758 807.435 40.0276Z" fill="url(#paint24_linear_1354_1121)"/>
<path fill-rule="evenodd" clip-rule="evenodd" d="M235.429 49.1076C207.725 45.8326 188.604 60.4971 176.355 85.0034C201.614 89.2567 222.732 81.8086 235.429 49.1076Z" fill="url(#paint25_linear_1354_1121)"/>
<path fill-rule="evenodd" clip-rule="evenodd" d="M1260.16 48.1076C1232.46 44.8326 1213.34 59.4971 1201.09 84.0034C1226.35 88.2567 1247.47 80.8086 1260.16 48.1076Z" fill="url(#paint26_linear_1354_1121)"/>
<path fill-rule="evenodd" clip-rule="evenodd" d="M579.935 51.1076C552.231 47.8326 533.111 62.4971 520.861 87.0034C546.121 91.2567 567.238 83.8086 579.935 51.1076Z" fill="url(#paint27_linear_1354_1121)"/>
<path fill-rule="evenodd" clip-rule="evenodd" d="M915.658 42.1076C887.954 38.8326 868.833 53.4971 856.584 78.0034C881.843 82.2567 902.961 74.8086 915.658 42.1076Z" fill="url(#paint28_linear_1354_1121)"/>
<path fill-rule="evenodd" clip-rule="evenodd" d="M1167.57 17.0885C1160.72 44.7896 1172.37 66.1548 1194.45 81.848C1201.91 56.7589 1197.51 34.3238 1167.57 17.0885Z" fill="url(#paint29_linear_1354_1121)"/>
<path fill-rule="evenodd" clip-rule="evenodd" d="M151.614 12.0885C144.769 39.7896 156.416 61.1548 178.495 76.848C185.962 51.7589 181.56 29.3238 151.614 12.0885Z" fill="url(#paint30_linear_1354_1121)"/>
<path fill-rule="evenodd" clip-rule="evenodd" d="M496.12 14.0885C489.275 41.7896 500.922 63.1548 523.001 78.848C530.468 53.7589 526.067 31.3238 496.12 14.0885Z" fill="url(#paint31_linear_1354_1121)"/>
<path fill-rule="evenodd" clip-rule="evenodd" d="M831.843 5.08852C824.998 32.7896 836.645 54.1548 858.724 69.848C866.191 44.7589 861.789 22.3238 831.843 5.08852Z" fill="url(#paint32_linear_1354_1121)"/>
<path fill-rule="evenodd" clip-rule="evenodd" d="M1355.81 68.9119C1328.1 72.1869 1308.98 57.5224 1296.73 33.0162C1321.99 28.7629 1343.11 36.2109 1355.81 68.9119Z" fill="url(#paint33_linear_1354_1121)"/>
<path fill-rule="evenodd" clip-rule="evenodd" d="M331.071 69.9119C303.367 73.1869 284.246 58.5224 271.996 34.0162C297.256 29.7629 318.374 37.2109 331.071 69.9119Z" fill="url(#paint34_linear_1354_1121)"/>
<path fill-rule="evenodd" clip-rule="evenodd" d="M675.577 71.9119C647.873 75.1869 628.752 60.5224 616.503 36.0162C641.762 31.7629 662.88 39.2109 675.577 71.9119Z" fill="url(#paint35_linear_1354_1121)"/>
<path fill-rule="evenodd" clip-rule="evenodd" d="M1271.99 105.931C1265.15 78.2299 1276.79 56.8647 1298.87 41.1715C1306.34 66.2606 1301.94 88.6958 1271.99 105.931Z" fill="url(#paint36_linear_1354_1121)"/>
<path fill-rule="evenodd" clip-rule="evenodd" d="M1011.3 62.9119C983.596 66.1869 964.475 51.5224 952.226 27.0162C977.485 22.7629 998.603 30.2109 1011.3 62.9119Z" fill="url(#paint37_linear_1354_1121)"/>
<path fill-rule="evenodd" clip-rule="evenodd" d="M247.256 106.931C240.411 79.2299 252.058 57.8647 274.137 42.1715C281.604 67.2606 277.202 89.6958 247.256 106.931Z" fill="url(#paint38_linear_1354_1121)"/>
<path fill-rule="evenodd" clip-rule="evenodd" d="M1375.83 58.0239C1379.35 57.7664 1379.35 62.9173 1376.34 63.1749C1372.82 63.69 1372.57 58.2815 1375.83 58.0239ZM1380.1 58.0239C1383.36 55.9635 1392.4 55.4484 1387.88 50.555C1385.87 48.4946 1385.12 48.4946 1383.36 45.6616C1382.86 45.1465 1382.61 44.3738 1381.86 44.1163C1380.1 43.6012 1378.85 44.8889 1377.84 46.1767C1375.08 49.7824 1375.08 52.1003 1374.83 56.2211C1374.58 53.6456 1374.83 48.2371 1373.82 46.4342C1372.57 43.8587 1369.56 46.6918 1367.8 47.2069C1367.3 47.722 1366.8 47.9795 1366.04 48.2371C1365.29 48.4946 1364.54 48.7522 1363.78 49.0097C1363.03 49.2673 1362.53 49.5248 1362.03 50.2975C1361.52 52.1003 1362.78 53.9031 1363.53 54.6758C1365.79 57.7664 1367.3 58.7965 1370.56 60.0843L1371.06 60.3418C1368.55 59.8267 1362.28 56.9937 1360.77 59.0541C1359.77 60.8569 1361.52 64.7202 1361.27 68.3258C1361.02 74.7645 1369.06 70.3862 1371.57 68.0683C1372.32 67.5532 1373.82 65.7504 1374.33 64.9777C1373.32 67.5532 1370.56 69.8711 1369.56 72.9617C1368.55 76.5674 1374.08 75.7947 1377.59 76.8249C1379.6 77.5976 1380.85 78.3702 1381.86 76.8249C1382.86 75.7947 1382.61 73.2193 1382.61 71.9315C1382.36 67.8107 1380.85 66.523 1379.85 64.2051C1381.11 65.2353 1382.86 68.5834 1385.37 70.6438C1388.13 72.9617 1389.39 67.5532 1391.15 64.7202C1392.15 62.9173 1395.92 60.0843 1389.39 58.0239C1385.62 56.7362 1383.36 57.2513 1380.1 58.0239Z" fill="url(#paint39_radial_1354_1121)"/>
<path fill-rule="evenodd" clip-rule="evenodd" d="M1375.83 58.024C1372.57 58.2815 1372.82 63.6901 1376.34 63.175C1379.35 62.9174 1379.35 57.7664 1375.83 58.024Z" fill="#FDFDFD"/>
<path fill-rule="evenodd" clip-rule="evenodd" d="M591.762 108.931C584.917 81.2299 596.564 59.8647 618.644 44.1715C626.11 69.2606 621.709 91.6958 591.762 108.931Z" fill="url(#paint40_linear_1354_1121)"/>
<path fill-rule="evenodd" clip-rule="evenodd" d="M927.485 99.931C920.64 72.2299 932.287 50.8647 954.366 35.1715C961.833 60.2606 957.431 82.6958 927.485 99.931Z" fill="url(#paint41_linear_1354_1121)"/>
<path fill-rule="evenodd" clip-rule="evenodd" d="M1225.54 45.0239C1229.05 44.7664 1229.05 49.9173 1226.04 50.1749C1222.53 50.69 1222.28 45.2815 1225.54 45.0239ZM1229.81 45.0239C1233.07 42.9635 1242.11 42.4484 1237.59 37.555C1235.58 35.4946 1234.83 35.4946 1233.07 32.6616C1232.57 32.1465 1232.32 31.3738 1231.56 31.1163C1229.81 30.6012 1228.55 31.8889 1227.55 33.1767C1224.79 36.7824 1224.79 39.1003 1224.53 43.2211C1224.28 40.6456 1224.53 35.2371 1223.53 33.4342C1222.28 30.8587 1219.26 33.6918 1217.51 34.2069C1217 34.722 1216.5 34.9795 1215.75 35.2371C1215 35.4946 1214.24 35.7522 1213.49 36.0097C1212.74 36.2673 1212.23 36.5248 1211.73 37.2975C1211.23 39.1003 1212.48 40.9031 1213.24 41.6758C1215.5 44.7664 1217 45.7965 1220.27 47.0843L1220.77 47.3418C1218.26 46.8267 1211.98 43.9937 1210.48 46.0541C1209.47 47.8569 1211.23 51.7202 1210.98 55.3258C1210.73 61.7645 1218.76 57.3862 1221.27 55.0683C1222.02 54.5532 1223.53 52.7504 1224.03 51.9777C1223.03 54.5532 1220.27 56.8711 1219.26 59.9617C1218.26 63.5674 1223.78 62.7947 1227.3 63.8249C1229.3 64.5976 1230.56 65.3702 1231.56 63.8249C1232.57 62.7947 1232.32 60.2193 1232.32 58.9315C1232.07 54.8107 1230.56 53.523 1229.56 51.2051C1230.81 52.2353 1232.57 55.5834 1235.08 57.6438C1237.84 59.9617 1239.1 54.5532 1240.85 51.7202C1241.86 49.9173 1245.62 47.0843 1239.1 45.0239C1235.33 43.7362 1233.07 44.2513 1229.81 45.0239Z" fill="url(#paint42_radial_1354_1121)"/>
<path fill-rule="evenodd" clip-rule="evenodd" d="M1225.54 45.024C1222.28 45.2815 1222.53 50.6901 1226.04 50.175C1229.05 49.9174 1229.05 44.7664 1225.54 45.024Z" fill="#FDFDFD"/>
<path fill-rule="evenodd" clip-rule="evenodd" d="M88.5706 59.0239C92.0852 58.7664 92.0852 63.9173 89.0727 64.1749C85.5581 64.69 85.3071 59.2815 88.5706 59.0239ZM92.8383 59.0239C96.1019 56.9635 105.139 56.4484 100.621 51.555C98.6123 49.4946 97.8592 49.4946 96.1019 46.6616C95.5998 46.1465 95.3487 45.3738 94.5956 45.1163C92.8383 44.6012 91.5831 45.8889 90.5789 47.1767C87.8175 50.7824 87.8175 53.1003 87.5664 57.2211C87.3154 54.6456 87.5664 49.2371 86.5623 47.4342C85.3071 44.8587 82.2945 47.6918 80.5372 48.2069C80.0352 48.722 79.5331 48.9795 78.78 49.2371C78.0268 49.4946 77.2737 49.7522 76.5206 50.0097C75.7674 50.2673 75.2654 50.5248 74.7633 51.2975C74.2612 53.1003 75.5164 54.9031 76.2695 55.6758C78.5289 58.7664 80.0352 59.7965 83.2987 61.0843L83.8008 61.3418C81.2904 60.8267 75.0143 57.9937 73.5081 60.0541C72.5039 61.8569 74.2612 65.7202 74.0101 69.3258C73.7591 75.7645 81.7925 71.3862 84.3029 69.0683C85.056 68.5532 86.5623 66.7504 87.0644 65.9777C86.0602 68.5532 83.2987 70.8711 82.2945 73.9617C81.2904 77.5674 86.8133 76.7947 90.3279 77.8249C92.3362 78.5976 93.5915 79.3702 94.5956 77.8249C95.5998 76.7947 95.3487 74.2193 95.3487 72.9315C95.0977 68.8107 93.5915 67.523 92.5873 65.2051C93.8425 66.2353 95.5998 69.5834 98.1102 71.6438C100.872 73.9617 102.127 68.5532 103.884 65.7202C104.888 63.9173 108.654 61.0843 102.127 59.0239C98.3613 57.7362 96.1019 58.2513 92.8383 59.0239Z" fill="url(#paint43_radial_1354_1121)"/>
<path fill-rule="evenodd" clip-rule="evenodd" d="M88.5708 59.024C85.3073 59.2815 85.5583 64.6901 89.0729 64.175C92.0854 63.9174 92.0854 58.7664 88.5708 59.024Z" fill="#FDFDFD"/>
<path fill-rule="evenodd" clip-rule="evenodd" d="M433.077 61.0239C436.592 60.7664 436.592 65.9173 433.579 66.1749C430.064 66.69 429.813 61.2815 433.077 61.0239ZM437.345 61.0239C440.608 58.9635 449.646 58.4484 445.127 53.555C443.119 51.4946 442.366 51.4946 440.608 48.6616C440.106 48.1465 439.855 47.3738 439.102 47.1163C437.345 46.6012 436.089 47.8889 435.085 49.1767C432.324 52.7824 432.324 55.1003 432.073 59.2211C431.822 56.6456 432.073 51.2371 431.069 49.4342C429.813 46.8587 426.801 49.6918 425.044 50.2069C424.542 50.722 424.039 50.9795 423.286 51.2371C422.533 51.4946 421.78 51.7522 421.027 52.0097C420.274 52.2673 419.772 52.5248 419.27 53.2975C418.768 55.1003 420.023 56.9031 420.776 57.6758C423.035 60.7664 424.542 61.7965 427.805 63.0843L428.307 63.3418C425.797 62.8267 419.521 59.9937 418.014 62.0541C417.01 63.8569 418.768 67.7202 418.516 71.3258C418.265 77.7645 426.299 73.3862 428.809 71.0683C429.562 70.5532 431.069 68.7504 431.571 67.9777C430.567 70.5532 427.805 72.8711 426.801 75.9617C425.797 79.5674 431.32 78.7947 434.834 79.8249C436.843 80.5976 438.098 81.3702 439.102 79.8249C440.106 78.7947 439.855 76.2193 439.855 74.9315C439.604 70.8107 438.098 69.523 437.094 67.2051C438.349 68.2353 440.106 71.5834 442.617 73.6438C445.378 75.9617 446.633 70.5532 448.391 67.7202C449.395 65.9173 453.16 63.0843 446.633 61.0239C442.868 59.7362 440.608 60.2513 437.345 61.0239Z" fill="url(#paint44_radial_1354_1121)"/>
<path fill-rule="evenodd" clip-rule="evenodd" d="M433.077 61.024C429.813 61.2815 430.064 66.6901 433.579 66.175C436.592 65.9174 436.592 60.7664 433.077 61.024Z" fill="#FDFDFD"/>
<path fill-rule="evenodd" clip-rule="evenodd" d="M768.8 52.0239C772.314 51.7664 772.314 56.9173 769.302 57.1749C765.787 57.69 765.536 52.2815 768.8 52.0239ZM773.068 52.0239C776.331 49.9635 785.369 49.4484 780.85 44.555C778.842 42.4946 778.088 42.4946 776.331 39.6616C775.829 39.1465 775.578 38.3738 774.825 38.1163C773.068 37.6012 771.812 38.8889 770.808 40.1767C768.047 43.7824 768.047 46.1003 767.796 50.2211C767.545 47.6456 767.796 42.2371 766.792 40.4342C765.536 37.8587 762.524 40.6918 760.766 41.2069C760.264 41.722 759.762 41.9795 759.009 42.2371C758.256 42.4946 757.503 42.7522 756.75 43.0097C755.997 43.2673 755.495 43.5248 754.993 44.2975C754.49 46.1003 755.746 47.9031 756.499 48.6758C758.758 51.7664 760.264 52.7965 763.528 54.0843L764.03 54.3418C761.52 53.8267 755.244 50.9937 753.737 53.0541C752.733 54.8569 754.49 58.7202 754.239 62.3258C753.988 68.7645 762.022 64.3862 764.532 62.0683C765.285 61.5532 766.792 59.7504 767.294 58.9777C766.289 61.5532 763.528 63.8711 762.524 66.9617C761.52 70.5674 767.043 69.7947 770.557 70.8249C772.565 71.5976 773.821 72.3702 774.825 70.8249C775.829 69.7947 775.578 67.2193 775.578 65.9315C775.327 61.8107 773.821 60.523 772.817 58.2051C774.072 59.2353 775.829 62.5834 778.339 64.6438C781.101 66.9617 782.356 61.5532 784.113 58.7202C785.118 56.9173 788.883 54.0843 782.356 52.0239C778.591 50.7362 776.331 51.2513 773.068 52.0239Z" fill="url(#paint45_radial_1354_1121)"/>
<path fill-rule="evenodd" clip-rule="evenodd" d="M768.8 52.024C765.536 52.2815 765.787 57.6901 769.302 57.175C772.314 56.9174 772.314 51.7664 768.8 52.024Z" fill="#FDFDFD"/>
<path fill-rule="evenodd" clip-rule="evenodd" d="M1312.4 75.0239C1315.91 74.7664 1315.91 79.9173 1312.9 80.1749C1309.38 80.69 1309.13 75.2815 1312.4 75.0239ZM1316.66 75.0239C1319.93 72.9635 1328.97 72.4484 1324.45 67.555C1322.44 65.4946 1321.69 65.4946 1319.93 62.6616C1319.43 62.1465 1319.18 61.3738 1318.42 61.1163C1316.66 60.6012 1315.41 61.8889 1314.41 63.1767C1311.64 66.7824 1311.64 69.1003 1311.39 73.2211C1311.14 70.6456 1311.39 65.2371 1310.39 63.4342C1309.13 60.8587 1306.12 63.6918 1304.36 64.2069C1303.86 64.722 1303.36 64.9795 1302.61 65.2371C1301.85 65.4946 1301.1 65.7522 1300.35 66.0097C1299.59 66.2673 1299.09 66.5248 1298.59 67.2975C1298.09 69.1003 1299.34 70.9031 1300.1 71.6758C1302.36 74.7664 1303.86 75.7965 1307.13 77.0843L1307.63 77.3418C1305.12 76.8267 1298.84 73.9937 1297.33 76.0541C1296.33 77.8569 1298.09 81.7202 1297.84 85.3258C1297.59 91.7645 1305.62 87.3862 1308.13 85.0683C1308.88 84.5532 1310.39 82.7504 1310.89 81.9777C1309.89 84.5532 1307.13 86.8711 1306.12 89.9617C1305.12 93.5674 1310.64 92.7947 1314.15 93.8249C1316.16 94.5976 1317.42 95.3702 1318.42 93.8249C1319.43 92.7947 1319.18 90.2193 1319.18 88.9315C1318.92 84.8107 1317.42 83.523 1316.41 81.2051C1317.67 82.2353 1319.43 85.5834 1321.94 87.6438C1324.7 89.9617 1325.95 84.5532 1327.71 81.7202C1328.72 79.9173 1332.48 77.0843 1325.95 75.0239C1322.19 73.7362 1319.93 74.2513 1316.66 75.0239Z" fill="url(#paint46_radial_1354_1121)"/>
<path fill-rule="evenodd" clip-rule="evenodd" d="M1312.4 75.024C1309.13 75.2815 1309.38 80.6901 1312.9 80.175C1315.91 79.9174 1315.91 74.7664 1312.4 75.024Z" fill="#FDFDFD"/>
<path fill-rule="evenodd" clip-rule="evenodd" d="M200.804 46.0239C204.318 45.7664 204.318 50.9173 201.306 51.1749C197.791 51.69 197.54 46.2815 200.804 46.0239ZM205.071 46.0239C208.335 43.9635 217.372 43.4484 212.854 38.555C210.845 36.4946 210.092 36.4946 208.335 33.6616C207.833 33.1465 207.582 32.3738 206.829 32.1163C205.071 31.6012 203.816 32.8889 202.812 34.1767C200.05 37.7824 200.05 40.1003 199.799 44.2211C199.548 41.6456 199.799 36.2371 198.795 34.4342C197.54 31.8587 194.527 34.6918 192.77 35.2069C192.268 35.722 191.766 35.9795 191.013 36.2371C190.26 36.4946 189.507 36.7522 188.753 37.0097C188 37.2673 187.498 37.5248 186.996 38.2975C186.494 40.1003 187.749 41.9031 188.502 42.6758C190.762 45.7664 192.268 46.7965 195.532 48.0843L196.034 48.3418C193.523 47.8267 187.247 44.9937 185.741 47.0541C184.737 48.8569 186.494 52.7202 186.243 56.3258C185.992 62.7645 194.025 58.3862 196.536 56.0683C197.289 55.5532 198.795 53.7504 199.297 52.9777C198.293 55.5532 195.532 57.8711 194.527 60.9617C193.523 64.5674 199.046 63.7947 202.561 64.8249C204.569 65.5976 205.824 66.3702 206.829 64.8249C207.833 63.7947 207.582 61.2193 207.582 59.9315C207.331 55.8107 205.824 54.523 204.82 52.2051C206.075 53.2353 207.833 56.5834 210.343 58.6438C213.105 60.9617 214.36 55.5532 216.117 52.7202C217.121 50.9173 220.887 48.0843 214.36 46.0239C210.594 44.7362 208.335 45.2513 205.071 46.0239Z" fill="url(#paint47_radial_1354_1121)"/>
<path fill-rule="evenodd" clip-rule="evenodd" d="M200.804 46.024C197.54 46.2815 197.791 51.6901 201.306 51.175C204.318 50.9174 204.318 45.7664 200.804 46.024Z" fill="#FDFDFD"/>
<path fill-rule="evenodd" clip-rule="evenodd" d="M545.31 48.0239C548.824 47.7664 548.824 52.9173 545.812 53.1749C542.297 53.69 542.046 48.2815 545.31 48.0239ZM549.577 48.0239C552.841 45.9635 561.878 45.4484 557.36 40.555C555.351 38.4946 554.598 38.4946 552.841 35.6616C552.339 35.1465 552.088 34.3738 551.335 34.1163C549.577 33.6012 548.322 34.8889 547.318 36.1767C544.556 39.7824 544.556 42.1003 544.305 46.2211C544.054 43.6456 544.305 38.2371 543.301 36.4342C542.046 33.8587 539.034 36.6918 537.276 37.2069C536.774 37.722 536.272 37.9795 535.519 38.2371C534.766 38.4946 534.013 38.7522 533.26 39.0097C532.506 39.2673 532.004 39.5248 531.502 40.2975C531 42.1003 532.255 43.9031 533.009 44.6758C535.268 47.7664 536.774 48.7965 540.038 50.0843L540.54 50.3418C538.029 49.8267 531.753 46.9937 530.247 49.0541C529.243 50.8569 531 54.7202 530.749 58.3258C530.498 64.7645 538.531 60.3862 541.042 58.0683C541.795 57.5532 543.301 55.7504 543.803 54.9777C542.799 57.5532 540.038 59.8711 539.034 62.9617C538.029 66.5674 543.552 65.7947 547.067 66.8249C549.075 67.5976 550.33 68.3702 551.335 66.8249C552.339 65.7947 552.088 63.2193 552.088 61.9315C551.837 57.8107 550.33 56.523 549.326 54.2051C550.582 55.2353 552.339 58.5834 554.849 60.6438C557.611 62.9617 558.866 57.5532 560.623 54.7202C561.627 52.9173 565.393 50.0843 558.866 48.0239C555.1 46.7362 552.841 47.2513 549.577 48.0239Z" fill="url(#paint48_radial_1354_1121)"/>
<path fill-rule="evenodd" clip-rule="evenodd" d="M545.31 48.024C542.046 48.2815 542.297 53.6901 545.812 53.175C548.824 52.9174 548.824 47.7664 545.31 48.024Z" fill="#FDFDFD"/>
<path fill-rule="evenodd" clip-rule="evenodd" d="M850.778 58.0239C854.293 57.7664 854.293 62.9173 851.28 63.1749C847.766 63.69 847.515 58.2815 850.778 58.0239ZM855.046 58.0239C858.31 55.9635 867.347 55.4484 862.828 50.555C860.82 48.4946 860.067 48.4946 858.31 45.6616C857.808 45.1465 857.557 44.3738 856.803 44.1163C855.046 43.6012 853.791 44.8889 852.787 46.1767C850.025 49.7824 850.025 52.1003 849.774 56.2211C849.523 53.6456 849.774 48.2371 848.77 46.4342C847.515 43.8587 844.502 46.6918 842.745 47.2069C842.243 47.722 841.741 47.9795 840.988 48.2371C840.235 48.4946 839.481 48.7522 838.728 49.0097C837.975 49.2673 837.473 49.5248 836.971 50.2975C836.469 52.1003 837.724 53.9031 838.477 54.6758C840.737 57.7664 842.243 58.7965 845.506 60.0843L846.009 60.3418C843.498 59.8267 837.222 56.9937 835.716 59.0541C834.712 60.8569 836.469 64.7202 836.218 68.3258C835.967 74.7645 844 70.3862 846.511 68.0683C847.264 67.5532 848.77 65.7504 849.272 64.9777C848.268 67.5532 845.506 69.8711 844.502 72.9617C843.498 76.5674 849.021 75.7947 852.536 76.8249C854.544 77.5976 855.799 78.3702 856.803 76.8249C857.808 75.7947 857.557 73.2193 857.557 71.9315C857.305 67.8107 855.799 66.523 854.795 64.2051C856.05 65.2353 857.808 68.5834 860.318 70.6438C863.079 72.9617 864.335 67.5532 866.092 64.7202C867.096 62.9173 870.862 60.0843 864.335 58.0239C860.569 56.7362 858.31 57.2513 855.046 58.0239Z" fill="url(#paint49_radial_1354_1121)"/>
<path fill-rule="evenodd" clip-rule="evenodd" d="M850.779 58.024C847.515 58.2815 847.766 63.6901 851.281 63.175C854.293 62.9174 854.293 57.7664 850.779 58.024Z" fill="#FDFDFD"/>
<path fill-rule="evenodd" clip-rule="evenodd" d="M287.662 76.0239C291.177 75.7664 291.177 80.9173 288.164 81.1749C284.65 81.69 284.399 76.2815 287.662 76.0239ZM291.93 76.0239C295.193 73.9635 304.231 73.4484 299.712 68.555C297.704 66.4946 296.951 66.4946 295.193 63.6616C294.691 63.1465 294.44 62.3738 293.687 62.1163C291.93 61.6012 290.675 62.8889 289.67 64.1767C286.909 67.7824 286.909 70.1003 286.658 74.2211C286.407 71.6456 286.658 66.2371 285.654 64.4342C284.399 61.8587 281.386 64.6918 279.629 65.2069C279.127 65.722 278.625 65.9795 277.872 66.2371C277.118 66.4946 276.365 66.7522 275.612 67.0097C274.859 67.2673 274.357 67.5248 273.855 68.2975C273.353 70.1003 274.608 71.9031 275.361 72.6758C277.62 75.7664 279.127 76.7965 282.39 78.0843L282.892 78.3418C280.382 77.8267 274.106 74.9937 272.6 77.0541C271.595 78.8569 273.353 82.7202 273.102 86.3258C272.851 92.7645 280.884 88.3862 283.394 86.0683C284.148 85.5532 285.654 83.7504 286.156 82.9777C285.152 85.5532 282.39 87.8711 281.386 90.9617C280.382 94.5674 285.905 93.7947 289.419 94.8249C291.428 95.5976 292.683 96.3702 293.687 94.8249C294.691 93.7947 294.44 91.2193 294.44 89.9315C294.189 85.8107 292.683 84.523 291.679 82.2051C292.934 83.2353 294.691 86.5834 297.202 88.6438C299.963 90.9617 301.218 85.5532 302.976 82.7202C303.98 80.9173 307.746 78.0843 301.218 76.0239C297.453 74.7362 295.193 75.2513 291.93 76.0239Z" fill="url(#paint50_radial_1354_1121)"/>
<path fill-rule="evenodd" clip-rule="evenodd" d="M287.662 76.024C284.399 76.2815 284.65 81.6901 288.164 81.175C291.177 80.9174 291.177 75.7664 287.662 76.024Z" fill="#FDFDFD"/>
<path fill-rule="evenodd" clip-rule="evenodd" d="M632.168 78.0239C635.683 77.7664 635.683 82.9173 632.67 83.1749C629.156 83.69 628.905 78.2815 632.168 78.0239ZM636.436 78.0239C639.7 75.9635 648.737 75.4484 644.218 70.555C642.21 68.4946 641.457 68.4946 639.7 65.6616C639.197 65.1465 638.946 64.3738 638.193 64.1163C636.436 63.6012 635.181 64.8889 634.177 66.1767C631.415 69.7824 631.415 72.1003 631.164 76.2211C630.913 73.6456 631.164 68.2371 630.16 66.4342C628.905 63.8587 625.892 66.6918 624.135 67.2069C623.633 67.722 623.131 67.9795 622.378 68.2371C621.624 68.4946 620.871 68.7522 620.118 69.0097C619.365 69.2673 618.863 69.5248 618.361 70.2975C617.859 72.1003 619.114 73.9031 619.867 74.6758C622.127 77.7664 623.633 78.7965 626.896 80.0843L627.398 80.3418C624.888 79.8267 618.612 76.9937 617.106 79.0541C616.102 80.8569 617.859 84.7202 617.608 88.3258C617.357 94.7645 625.39 90.3862 627.901 88.0683C628.654 87.5532 630.16 85.7504 630.662 84.9777C629.658 87.5532 626.896 89.8711 625.892 92.9617C624.888 96.5674 630.411 95.7947 633.926 96.8249C635.934 97.5976 637.189 98.3702 638.193 96.8249C639.197 95.7947 638.946 93.2193 638.946 91.9315C638.695 87.8107 637.189 86.523 636.185 84.2051C637.44 85.2353 639.197 88.5834 641.708 90.6438C644.469 92.9617 645.725 87.5532 647.482 84.7202C648.486 82.9173 652.252 80.0843 645.725 78.0239C641.959 76.7362 639.7 77.2513 636.436 78.0239Z" fill="url(#paint51_radial_1354_1121)"/>
<path fill-rule="evenodd" clip-rule="evenodd" d="M632.168 78.024C628.905 78.2815 629.156 83.6901 632.671 83.175C635.683 82.9174 635.683 77.7664 632.168 78.024Z" fill="#FDFDFD"/>
<path fill-rule="evenodd" clip-rule="evenodd" d="M967.891 69.0239C971.406 68.7664 971.406 73.9173 968.393 74.1749C964.878 74.69 964.627 69.2815 967.891 69.0239ZM972.159 69.0239C975.422 66.9635 984.46 66.4484 979.941 61.555C977.933 59.4946 977.179 59.4946 975.422 56.6616C974.92 56.1465 974.669 55.3738 973.916 55.1163C972.159 54.6012 970.903 55.8889 969.899 57.1767C967.138 60.7824 967.138 63.1003 966.887 67.2211C966.636 64.6456 966.887 59.2371 965.883 57.4342C964.627 54.8587 961.615 57.6918 959.858 58.2069C959.355 58.722 958.853 58.9795 958.1 59.2371C957.347 59.4946 956.594 59.7522 955.841 60.0097C955.088 60.2673 954.586 60.5248 954.084 61.2975C953.582 63.1003 954.837 64.9031 955.59 65.6758C957.849 68.7664 959.355 69.7965 962.619 71.0843L963.121 71.3418C960.611 70.8267 954.335 67.9937 952.828 70.0541C951.824 71.8569 953.582 75.7202 953.33 79.3258C953.079 85.7645 961.113 81.3862 963.623 79.0683C964.376 78.5532 965.883 76.7504 966.385 75.9777C965.38 78.5532 962.619 80.8711 961.615 83.9617C960.611 87.5674 966.134 86.7947 969.648 87.8249C971.657 88.5976 972.912 89.3702 973.916 87.8249C974.92 86.7947 974.669 84.2193 974.669 82.9315C974.418 78.8107 972.912 77.523 971.908 75.2051C973.163 76.2353 974.92 79.5834 977.431 81.6438C980.192 83.9617 981.447 78.5532 983.204 75.7202C984.209 73.9173 987.974 71.0843 981.447 69.0239C977.682 67.7362 975.422 68.2513 972.159 69.0239Z" fill="url(#paint52_radial_1354_1121)"/>
<path fill-rule="evenodd" clip-rule="evenodd" d="M967.891 69.024C964.628 69.2815 964.879 74.6901 968.393 74.175C971.406 73.9174 971.406 68.7664 967.891 69.024Z" fill="#FDFDFD"/>
<path fill-rule="evenodd" clip-rule="evenodd" d="M351.098 59.0239C354.613 58.7664 354.613 63.9173 351.6 64.1749C348.086 64.69 347.835 59.2815 351.098 59.0239ZM355.366 59.0239C358.629 56.9635 367.667 56.4484 363.148 51.555C361.14 49.4946 360.387 49.4946 358.629 46.6616C358.127 46.1465 357.876 45.3738 357.123 45.1163C355.366 44.6012 354.111 45.8889 353.107 47.1767C350.345 50.7824 350.345 53.1003 350.094 57.2211C349.843 54.6456 350.094 49.2371 349.09 47.4342C347.835 44.8587 344.822 47.6918 343.065 48.2069C342.563 48.722 342.061 48.9795 341.308 49.2371C340.554 49.4946 339.801 49.7522 339.048 50.0097C338.295 50.2673 337.793 50.5248 337.291 51.2975C336.789 53.1003 338.044 54.9031 338.797 55.6758C341.056 58.7664 342.563 59.7965 345.826 61.0843L346.328 61.3418C343.818 60.8267 337.542 57.9937 336.036 60.0541C335.031 61.8569 336.789 65.7202 336.538 69.3258C336.287 75.7645 344.32 71.3862 346.83 69.0683C347.584 68.5532 349.09 66.7504 349.592 65.9777C348.588 68.5532 345.826 70.8711 344.822 73.9617C343.818 77.5674 349.341 76.7947 352.855 77.8249C354.864 78.5976 356.119 79.3702 357.123 77.8249C358.127 76.7947 357.876 74.2193 357.876 72.9315C357.625 68.8107 356.119 67.523 355.115 65.2051C356.37 66.2353 358.127 69.5834 360.638 71.6438C363.399 73.9617 364.654 68.5532 366.412 65.7202C367.416 63.9173 371.182 61.0843 364.654 59.0239C360.889 57.7362 358.629 58.2513 355.366 59.0239Z" fill="url(#paint53_radial_1354_1121)"/>
<path fill-rule="evenodd" clip-rule="evenodd" d="M351.098 59.024C347.834 59.2815 348.085 64.6901 351.6 64.175C354.613 63.9174 354.613 58.7664 351.098 59.024Z" fill="#FDFDFD"/>
<path fill-rule="evenodd" clip-rule="evenodd" d="M695.604 61.0239C699.119 60.7664 699.119 65.9173 696.106 66.1749C692.592 66.69 692.341 61.2815 695.604 61.0239ZM699.872 61.0239C703.136 58.9635 712.173 58.4484 707.654 53.555C705.646 51.4946 704.893 51.4946 703.136 48.6616C702.633 48.1465 702.382 47.3738 701.629 47.1163C699.872 46.6012 698.617 47.8889 697.613 49.1767C694.851 52.7824 694.851 55.1003 694.6 59.2211C694.349 56.6456 694.6 51.2371 693.596 49.4342C692.341 46.8587 689.328 49.6918 687.571 50.2069C687.069 50.722 686.567 50.9795 685.814 51.2371C685.061 51.4946 684.307 51.7522 683.554 52.0097C682.801 52.2673 682.299 52.5248 681.797 53.2975C681.295 55.1003 682.55 56.9031 683.303 57.6758C685.563 60.7664 687.069 61.7965 690.332 63.0843L690.834 63.3418C688.324 62.8267 682.048 59.9937 680.542 62.0541C679.538 63.8569 681.295 67.7202 681.044 71.3258C680.793 77.7645 688.826 73.3862 691.337 71.0683C692.09 70.5532 693.596 68.7504 694.098 67.9777C693.094 70.5532 690.332 72.8711 689.328 75.9617C688.324 79.5674 693.847 78.7947 697.362 79.8249C699.37 80.5976 700.625 81.3702 701.629 79.8249C702.633 78.7947 702.382 76.2193 702.382 74.9315C702.131 70.8107 700.625 69.523 699.621 67.2051C700.876 68.2353 702.633 71.5834 705.144 73.6438C707.905 75.9617 709.161 70.5532 710.918 67.7202C711.922 65.9173 715.688 63.0843 709.161 61.0239C705.395 59.7362 703.136 60.2513 699.872 61.0239Z" fill="url(#paint54_radial_1354_1121)"/>
<path fill-rule="evenodd" clip-rule="evenodd" d="M695.605 61.024C692.341 61.2815 692.592 66.6901 696.107 66.175C699.119 65.9174 699.119 60.7664 695.605 61.024Z" fill="#FDFDFD"/>
<path fill-rule="evenodd" clip-rule="evenodd" d="M1031.33 52.0239C1034.84 51.7664 1034.84 56.9173 1031.83 57.1749C1028.31 57.69 1028.06 52.2815 1031.33 52.0239ZM1035.59 52.0239C1038.86 49.9635 1047.9 49.4484 1043.38 44.555C1041.37 42.4946 1040.62 42.4946 1038.86 39.6616C1038.36 39.1465 1038.11 38.3738 1037.35 38.1163C1035.59 37.6012 1034.34 38.8889 1033.34 40.1767C1030.57 43.7824 1030.57 46.1003 1030.32 50.2211C1030.07 47.6456 1030.32 42.2371 1029.32 40.4342C1028.06 37.8587 1025.05 40.6918 1023.29 41.2069C1022.79 41.722 1022.29 41.9795 1021.54 42.2371C1020.78 42.4946 1020.03 42.7522 1019.28 43.0097C1018.52 43.2673 1018.02 43.5248 1017.52 44.2975C1017.02 46.1003 1018.27 47.9031 1019.03 48.6758C1021.29 51.7664 1022.79 52.7965 1026.06 54.0843L1026.56 54.3418C1024.05 53.8267 1017.77 50.9937 1016.26 53.0541C1015.26 54.8569 1017.02 58.7202 1016.77 62.3258C1016.52 68.7645 1024.55 64.3862 1027.06 62.0683C1027.81 61.5532 1029.32 59.7504 1029.82 58.9777C1028.82 61.5532 1026.06 63.8711 1025.05 66.9617C1024.05 70.5674 1029.57 69.7947 1033.08 70.8249C1035.09 71.5976 1036.35 72.3702 1037.35 70.8249C1038.36 69.7947 1038.11 67.2193 1038.11 65.9315C1037.85 61.8107 1036.35 60.523 1035.34 58.2051C1036.6 59.2353 1038.36 62.5834 1040.87 64.6438C1043.63 66.9617 1044.88 61.5532 1046.64 58.7202C1047.64 56.9173 1051.41 54.0843 1044.88 52.0239C1041.12 50.7362 1038.86 51.2513 1035.59 52.0239Z" fill="url(#paint55_radial_1354_1121)"/>
<path fill-rule="evenodd" clip-rule="evenodd" d="M1031.33 52.024C1028.06 52.2815 1028.31 57.6901 1031.83 57.175C1034.84 56.9174 1034.84 51.7664 1031.33 52.024Z" fill="#FDFDFD"/>
<defs>
<linearGradient id="paint0_linear_1354_1121" x1="1408.46" y1="46.801" x2="1389.06" y2="78.2891" gradientUnits="userSpaceOnUse">
<stop stop-color="#0D624B"/>
<stop offset="0.588235" stop-color="#188766"/>
<stop offset="1" stop-color="#23AC82"/>
</linearGradient>
<linearGradient id="paint1_linear_1354_1121" x1="1492.62" y1="75.0709" x2="1457.03" y2="67.6145" gradientUnits="userSpaceOnUse">
<stop stop-color="#0D624B"/>
<stop offset="0.588235" stop-color="#188766"/>
<stop offset="1" stop-color="#23AC82"/>
</linearGradient>
<linearGradient id="paint2_linear_1354_1121" x1="1582.69" y1="83.9814" x2="1552.74" y2="62.8812" gradientUnits="userSpaceOnUse">
<stop stop-color="#0D624B"/>
<stop offset="0.588235" stop-color="#188766"/>
<stop offset="1" stop-color="#23AC82"/>
</linearGradient>
<linearGradient id="paint3_linear_1354_1121" x1="1811.06" y1="83.9814" x2="1781.11" y2="62.8812" gradientUnits="userSpaceOnUse">
<stop stop-color="#0D624B"/>
<stop offset="0.588235" stop-color="#188766"/>
<stop offset="1" stop-color="#23AC82"/>
</linearGradient>
<linearGradient id="paint4_linear_1354_1121" x1="1525.42" y1="38.4475" x2="1499.79" y2="64.8476" gradientUnits="userSpaceOnUse">
<stop stop-color="#0D624B"/>
<stop offset="0.588235" stop-color="#188766"/>
<stop offset="1" stop-color="#23AC82"/>
</linearGradient>
<linearGradient id="paint5_linear_1354_1121" x1="1736.23" y1="49.4475" x2="1710.6" y2="75.8476" gradientUnits="userSpaceOnUse">
<stop stop-color="#0D624B"/>
<stop offset="0.588235" stop-color="#188766"/>
<stop offset="1" stop-color="#23AC82"/>
</linearGradient>
<linearGradient id="paint6_linear_1354_1121" x1="1678.33" y1="45.0381" x2="1648.39" y2="66.1383" gradientUnits="userSpaceOnUse">
<stop stop-color="#0D624B"/>
<stop offset="0.588235" stop-color="#188766"/>
<stop offset="1" stop-color="#23AC82"/>
</linearGradient>
<linearGradient id="paint7_linear_1354_1121" x1="1635.71" y1="93.572" x2="1610.07" y2="67.1719" gradientUnits="userSpaceOnUse">
<stop stop-color="#0D624B"/>
<stop offset="0.588235" stop-color="#188766"/>
<stop offset="1" stop-color="#23AC82"/>
</linearGradient>
<linearGradient id="paint8_linear_1354_1121" x1="1867.71" y1="60.4664" x2="1831.53" y2="63.8605" gradientUnits="userSpaceOnUse">
<stop stop-color="#0D624B"/>
<stop offset="0.588235" stop-color="#188766"/>
<stop offset="1" stop-color="#23AC82"/>
</linearGradient>
<linearGradient id="paint9_linear_1354_1121" x1="1904.09" y1="72.2634" x2="1878.46" y2="45.8633" gradientUnits="userSpaceOnUse">
<stop stop-color="#0D624B"/>
<stop offset="0.588235" stop-color="#188766"/>
<stop offset="1" stop-color="#23AC82"/>
</linearGradient>
<radialGradient id="paint10_radial_1354_1121" cx="0" cy="0" r="1" gradientUnits="userSpaceOnUse" gradientTransform="translate(1450.64 65.7148) rotate(14.1718) scale(16.403 16.6523)">
<stop stop-color="#FFD4F9"/>
<stop offset="0.301961" stop-color="#FFEAFC"/>
<stop offset="1" stop-color="white"/>
</radialGradient>
<radialGradient id="paint11_radial_1354_1121" cx="0" cy="0" r="1" gradientUnits="userSpaceOnUse" gradientTransform="translate(1547.26 51.7148) rotate(14.1718) scale(16.403 16.6523)">
<stop stop-color="#FFD4F9"/>
<stop offset="0.301961" stop-color="#FFEAFC"/>
<stop offset="1" stop-color="white"/>
</radialGradient>
<radialGradient id="paint12_radial_1354_1121" cx="0" cy="0" r="1" gradientUnits="userSpaceOnUse" gradientTransform="translate(1758.06 62.7148) rotate(14.1718) scale(16.403 16.6523)">
<stop stop-color="#FFD4F9"/>
<stop offset="0.301961" stop-color="#FFEAFC"/>
<stop offset="1" stop-color="white"/>
</radialGradient>
<radialGradient id="paint13_radial_1354_1121" cx="0" cy="0" r="1" gradientUnits="userSpaceOnUse" gradientTransform="translate(1814.67 93.7148) rotate(14.1718) scale(16.403 16.6523)">
<stop stop-color="#FFD4F9"/>
<stop offset="0.301961" stop-color="#FFEAFC"/>
<stop offset="1" stop-color="white"/>
</radialGradient>
<radialGradient id="paint14_radial_1354_1121" cx="0" cy="0" r="1" gradientUnits="userSpaceOnUse" gradientTransform="translate(1890.79 48.7148) rotate(14.1718) scale(16.403 16.6523)">
<stop stop-color="#FFD4F9"/>
<stop offset="0.301961" stop-color="#FFEAFC"/>
<stop offset="1" stop-color="white"/>
</radialGradient>
<radialGradient id="paint15_radial_1354_1121" cx="0" cy="0" r="1" gradientUnits="userSpaceOnUse" gradientTransform="translate(1649.73 82.7148) rotate(14.1718) scale(16.403 16.6523)">
<stop stop-color="#FFD4F9"/>
<stop offset="0.301961" stop-color="#FFEAFC"/>
<stop offset="1" stop-color="white"/>
</radialGradient>
<radialGradient id="paint16_radial_1354_1121" cx="0" cy="0" r="1" gradientUnits="userSpaceOnUse" gradientTransform="translate(1713.17 65.7148) rotate(14.1718) scale(16.403 16.6523)">
<stop stop-color="#FFD4F9"/>
<stop offset="0.301961" stop-color="#FFEAFC"/>
<stop offset="1" stop-color="white"/>
</radialGradient>
<linearGradient id="paint17_linear_1354_1121" x1="42.1494" y1="54.801" x2="22.7509" y2="86.2891" gradientUnits="userSpaceOnUse">
<stop stop-color="#0D624B"/>
<stop offset="0.588235" stop-color="#188766"/>
<stop offset="1" stop-color="#23AC82"/>
</linearGradient>
<linearGradient id="paint18_linear_1354_1121" x1="386.655" y1="56.801" x2="367.257" y2="88.2891" gradientUnits="userSpaceOnUse">
<stop stop-color="#0D624B"/>
<stop offset="0.588235" stop-color="#188766"/>
<stop offset="1" stop-color="#23AC82"/>
</linearGradient>
<linearGradient id="paint19_linear_1354_1121" x1="722.378" y1="47.801" x2="702.98" y2="79.2891" gradientUnits="userSpaceOnUse">
<stop stop-color="#0D624B"/>
<stop offset="0.588235" stop-color="#188766"/>
<stop offset="1" stop-color="#23AC82"/>
</linearGradient>
<linearGradient id="paint20_linear_1354_1121" x1="1066.88" y1="53.801" x2="1047.49" y2="85.2891" gradientUnits="userSpaceOnUse">
<stop stop-color="#0D624B"/>
<stop offset="0.588235" stop-color="#188766"/>
<stop offset="1" stop-color="#23AC82"/>
</linearGradient>
<linearGradient id="paint21_linear_1354_1121" x1="131.191" y1="70.0709" x2="95.5928" y2="62.6145" gradientUnits="userSpaceOnUse">
<stop stop-color="#0D624B"/>
<stop offset="0.588235" stop-color="#188766"/>
<stop offset="1" stop-color="#23AC82"/>
</linearGradient>
<linearGradient id="paint22_linear_1354_1121" x1="475.697" y1="72.0709" x2="440.099" y2="64.6145" gradientUnits="userSpaceOnUse">
<stop stop-color="#0D624B"/>
<stop offset="0.588235" stop-color="#188766"/>
<stop offset="1" stop-color="#23AC82"/>
</linearGradient>
<linearGradient id="paint23_linear_1354_1121" x1="1148.12" y1="68.0709" x2="1112.52" y2="60.6145" gradientUnits="userSpaceOnUse">
<stop stop-color="#0D624B"/>
<stop offset="0.588235" stop-color="#188766"/>
<stop offset="1" stop-color="#23AC82"/>
</linearGradient>
<linearGradient id="paint24_linear_1354_1121" x1="801.245" y1="72.6332" x2="767.099" y2="59.9001" gradientUnits="userSpaceOnUse">
<stop stop-color="#0D624B"/>
<stop offset="0.588235" stop-color="#188766"/>
<stop offset="1" stop-color="#23AC82"/>
</linearGradient>
<linearGradient id="paint25_linear_1354_1121" x1="221.256" y1="78.9814" x2="191.311" y2="57.8812" gradientUnits="userSpaceOnUse">
<stop stop-color="#0D624B"/>
<stop offset="0.588235" stop-color="#188766"/>
<stop offset="1" stop-color="#23AC82"/>
</linearGradient>
<linearGradient id="paint26_linear_1354_1121" x1="1245.99" y1="77.9814" x2="1216.05" y2="56.8812" gradientUnits="userSpaceOnUse">
<stop stop-color="#0D624B"/>
<stop offset="0.588235" stop-color="#188766"/>
<stop offset="1" stop-color="#23AC82"/>
</linearGradient>
<linearGradient id="paint27_linear_1354_1121" x1="565.762" y1="80.9814" x2="535.818" y2="59.8812" gradientUnits="userSpaceOnUse">
<stop stop-color="#0D624B"/>
<stop offset="0.588235" stop-color="#188766"/>
<stop offset="1" stop-color="#23AC82"/>
</linearGradient>
<linearGradient id="paint28_linear_1354_1121" x1="901.485" y1="71.9814" x2="871.54" y2="50.8812" gradientUnits="userSpaceOnUse">
<stop stop-color="#0D624B"/>
<stop offset="0.588235" stop-color="#188766"/>
<stop offset="1" stop-color="#23AC82"/>
</linearGradient>
<linearGradient id="paint29_linear_1354_1121" x1="1194.58" y1="35.4475" x2="1168.95" y2="61.8476" gradientUnits="userSpaceOnUse">
<stop stop-color="#0D624B"/>
<stop offset="0.588235" stop-color="#188766"/>
<stop offset="1" stop-color="#23AC82"/>
</linearGradient>
<linearGradient id="paint30_linear_1354_1121" x1="178.63" y1="30.4475" x2="152.998" y2="56.8476" gradientUnits="userSpaceOnUse">
<stop stop-color="#0D624B"/>
<stop offset="0.588235" stop-color="#188766"/>
<stop offset="1" stop-color="#23AC82"/>
</linearGradient>
<linearGradient id="paint31_linear_1354_1121" x1="523.136" y1="32.4475" x2="497.504" y2="58.8476" gradientUnits="userSpaceOnUse">
<stop stop-color="#0D624B"/>
<stop offset="0.588235" stop-color="#188766"/>
<stop offset="1" stop-color="#23AC82"/>
</linearGradient>
<linearGradient id="paint32_linear_1354_1121" x1="858.859" y1="23.4475" x2="833.227" y2="49.8476" gradientUnits="userSpaceOnUse">
<stop stop-color="#0D624B"/>
<stop offset="0.588235" stop-color="#188766"/>
<stop offset="1" stop-color="#23AC82"/>
</linearGradient>
<linearGradient id="paint33_linear_1354_1121" x1="1341.63" y1="39.0381" x2="1311.69" y2="60.1383" gradientUnits="userSpaceOnUse">
<stop stop-color="#0D624B"/>
<stop offset="0.588235" stop-color="#188766"/>
<stop offset="1" stop-color="#23AC82"/>
</linearGradient>
<linearGradient id="paint34_linear_1354_1121" x1="316.898" y1="40.0381" x2="286.953" y2="61.1383" gradientUnits="userSpaceOnUse">
<stop stop-color="#0D624B"/>
<stop offset="0.588235" stop-color="#188766"/>
<stop offset="1" stop-color="#23AC82"/>
</linearGradient>
<linearGradient id="paint35_linear_1354_1121" x1="661.404" y1="42.0381" x2="631.459" y2="63.1383" gradientUnits="userSpaceOnUse">
<stop stop-color="#0D624B"/>
<stop offset="0.588235" stop-color="#188766"/>
<stop offset="1" stop-color="#23AC82"/>
</linearGradient>
<linearGradient id="paint36_linear_1354_1121" x1="1299.01" y1="87.572" x2="1273.37" y2="61.1719" gradientUnits="userSpaceOnUse">
<stop stop-color="#0D624B"/>
<stop offset="0.588235" stop-color="#188766"/>
<stop offset="1" stop-color="#23AC82"/>
</linearGradient>
<linearGradient id="paint37_linear_1354_1121" x1="997.127" y1="33.0381" x2="967.182" y2="54.1383" gradientUnits="userSpaceOnUse">
<stop stop-color="#0D624B"/>
<stop offset="0.588235" stop-color="#188766"/>
<stop offset="1" stop-color="#23AC82"/>
</linearGradient>
<linearGradient id="paint38_linear_1354_1121" x1="274.272" y1="88.572" x2="248.64" y2="62.1719" gradientUnits="userSpaceOnUse">
<stop stop-color="#0D624B"/>
<stop offset="0.588235" stop-color="#188766"/>
<stop offset="1" stop-color="#23AC82"/>
</linearGradient>
<radialGradient id="paint39_radial_1354_1121" cx="0" cy="0" r="1" gradientUnits="userSpaceOnUse" gradientTransform="translate(1376.47 59.7148) rotate(14.1718) scale(16.403 16.6523)">
<stop stop-color="#FFD4F9"/>
<stop offset="0.301961" stop-color="#FFEAFC"/>
<stop offset="1" stop-color="white"/>
</radialGradient>
<linearGradient id="paint40_linear_1354_1121" x1="618.778" y1="90.572" x2="593.146" y2="64.1719" gradientUnits="userSpaceOnUse">
<stop stop-color="#0D624B"/>
<stop offset="0.588235" stop-color="#188766"/>
<stop offset="1" stop-color="#23AC82"/>
</linearGradient>
<linearGradient id="paint41_linear_1354_1121" x1="954.501" y1="81.572" x2="928.869" y2="55.1719" gradientUnits="userSpaceOnUse">
<stop stop-color="#0D624B"/>
<stop offset="0.588235" stop-color="#188766"/>
<stop offset="1" stop-color="#23AC82"/>
</linearGradient>
<radialGradient id="paint42_radial_1354_1121" cx="0" cy="0" r="1" gradientUnits="userSpaceOnUse" gradientTransform="translate(1226.18 46.7148) rotate(14.1718) scale(16.403 16.6523)">
<stop stop-color="#FFD4F9"/>
<stop offset="0.301961" stop-color="#FFEAFC"/>
<stop offset="1" stop-color="white"/>
</radialGradient>
<radialGradient id="paint43_radial_1354_1121" cx="0" cy="0" r="1" gradientUnits="userSpaceOnUse" gradientTransform="translate(89.2091 60.7148) rotate(14.1718) scale(16.403 16.6523)">
<stop stop-color="#FFD4F9"/>
<stop offset="0.301961" stop-color="#FFEAFC"/>
<stop offset="1" stop-color="white"/>
</radialGradient>
<radialGradient id="paint44_radial_1354_1121" cx="0" cy="0" r="1" gradientUnits="userSpaceOnUse" gradientTransform="translate(433.715 62.7148) rotate(14.1718) scale(16.403 16.6523)">
<stop stop-color="#FFD4F9"/>
<stop offset="0.301961" stop-color="#FFEAFC"/>
<stop offset="1" stop-color="white"/>
</radialGradient>
<radialGradient id="paint45_radial_1354_1121" cx="0" cy="0" r="1" gradientUnits="userSpaceOnUse" gradientTransform="translate(769.438 53.7148) rotate(14.1718) scale(16.403 16.6523)">
<stop stop-color="#FFD4F9"/>
<stop offset="0.301961" stop-color="#FFEAFC"/>
<stop offset="1" stop-color="white"/>
</radialGradient>
<radialGradient id="paint46_radial_1354_1121" cx="0" cy="0" r="1" gradientUnits="userSpaceOnUse" gradientTransform="translate(1313.04 76.7148) rotate(14.1718) scale(16.403 16.6523)">
<stop stop-color="#FFD4F9"/>
<stop offset="0.301961" stop-color="#FFEAFC"/>
<stop offset="1" stop-color="white"/>
</radialGradient>
<radialGradient id="paint47_radial_1354_1121" cx="0" cy="0" r="1" gradientUnits="userSpaceOnUse" gradientTransform="translate(201.442 47.7148) rotate(14.1718) scale(16.403 16.6523)">
<stop stop-color="#FFD4F9"/>
<stop offset="0.301961" stop-color="#FFEAFC"/>
<stop offset="1" stop-color="white"/>
</radialGradient>
<radialGradient id="paint48_radial_1354_1121" cx="0" cy="0" r="1" gradientUnits="userSpaceOnUse" gradientTransform="translate(545.948 49.7148) rotate(14.1718) scale(16.403 16.6523)">
<stop stop-color="#FFD4F9"/>
<stop offset="0.301961" stop-color="#FFEAFC"/>
<stop offset="1" stop-color="white"/>
</radialGradient>
<radialGradient id="paint49_radial_1354_1121" cx="0" cy="0" r="1" gradientUnits="userSpaceOnUse" gradientTransform="translate(851.417 59.7148) rotate(14.1718) scale(16.403 16.6523)">
<stop stop-color="#FFD4F9"/>
<stop offset="0.301961" stop-color="#FFEAFC"/>
<stop offset="1" stop-color="white"/>
</radialGradient>
<radialGradient id="paint50_radial_1354_1121" cx="0" cy="0" r="1" gradientUnits="userSpaceOnUse" gradientTransform="translate(288.301 77.7148) rotate(14.1718) scale(16.403 16.6523)">
<stop stop-color="#FFD4F9"/>
<stop offset="0.301961" stop-color="#FFEAFC"/>
<stop offset="1" stop-color="white"/>
</radialGradient>
<radialGradient id="paint51_radial_1354_1121" cx="0" cy="0" r="1" gradientUnits="userSpaceOnUse" gradientTransform="translate(632.807 79.7148) rotate(14.1718) scale(16.403 16.6523)">
<stop stop-color="#FFD4F9"/>
<stop offset="0.301961" stop-color="#FFEAFC"/>
<stop offset="1" stop-color="white"/>
</radialGradient>
<radialGradient id="paint52_radial_1354_1121" cx="0" cy="0" r="1" gradientUnits="userSpaceOnUse" gradientTransform="translate(968.529 70.7148) rotate(14.1718) scale(16.403 16.6523)">
<stop stop-color="#FFD4F9"/>
<stop offset="0.301961" stop-color="#FFEAFC"/>
<stop offset="1" stop-color="white"/>
</radialGradient>
<radialGradient id="paint53_radial_1354_1121" cx="0" cy="0" r="1" gradientUnits="userSpaceOnUse" gradientTransform="translate(351.737 60.7148) rotate(14.1718) scale(16.403 16.6523)">
<stop stop-color="#FFD4F9"/>
<stop offset="0.301961" stop-color="#FFEAFC"/>
<stop offset="1" stop-color="white"/>
</radialGradient>
<radialGradient id="paint54_radial_1354_1121" cx="0" cy="0" r="1" gradientUnits="userSpaceOnUse" gradientTransform="translate(696.243 62.7148) rotate(14.1718) scale(16.403 16.6523)">
<stop stop-color="#FFD4F9"/>
<stop offset="0.301961" stop-color="#FFEAFC"/>
<stop offset="1" stop-color="white"/>
</radialGradient>
<radialGradient id="paint55_radial_1354_1121" cx="0" cy="0" r="1" gradientUnits="userSpaceOnUse" gradientTransform="translate(1031.97 53.7148) rotate(14.1718) scale(16.403 16.6523)">
<stop stop-color="#FFD4F9"/>
<stop offset="0.301961" stop-color="#FFEAFC"/>
<stop offset="1" stop-color="white"/>
</radialGradient>
</defs>
</svg>
