<svg width="115" height="124" viewBox="0 0 115 124" fill="none" xmlns="http://www.w3.org/2000/svg">
<path d="M81.5206 93.644H89.2072V92.0188H81.5206V84.6838H91.5879V83.0479H78.7129V105.267H91.8335V103.631H81.5206V93.644Z" fill="#236B66"/>
<path d="M25.7928 105.267H28.5899V83.0479H25.7928V105.267Z" fill="#236B66"/>
<path d="M52.0767 83.0479H50.1764L39.5966 93.8686V83.0479H36.7996V105.267H39.5966V95.6221L41.2834 93.922L50.8596 105.267H54.6816L43.3225 91.8691L52.0767 83.0479Z" fill="#236B66"/>
<path d="M100.662 96.5206L104.346 86.4377L108.328 96.5206H100.662ZM111.787 105.267H115L105.541 82.9092H104.185L95.8263 105.267H97.4703L100.182 97.8572H108.861L111.787 105.267Z" fill="#236B66"/>
<path d="M16.4621 100.68L1.58003 83.0479H0V105.267H1.6334V87.5494L16.7504 105.523H18.0955V83.0479H16.4621V100.68Z" fill="#236B66"/>
<path d="M55.9734 84.6838H63.5852V105.267H66.393V84.6838H74.0048V83.0479H55.9734V84.6838Z" fill="#236B66"/>
<path d="M55.9413 120.076C55.9413 120.504 55.3969 121.22 54.3506 122.172C54.4574 121.113 54.8737 119.734 55.5783 119.734C55.9093 119.756 55.9413 119.905 55.9413 120.076ZM52.9414 117.211V117.221C52.9414 118.44 52.0126 119.659 50.945 120.814C51.1692 120.173 51.4041 119.552 51.5429 119.114C51.8098 118.237 52.2154 116.687 52.6745 116.58C52.7599 116.623 52.824 116.687 52.8773 116.783C52.9414 116.922 52.9414 117.104 52.9414 117.211ZM49.0768 117.211V117.221C49.0768 118.44 48.148 119.659 47.0804 120.814C47.2939 120.173 47.5394 119.552 47.6782 119.114C47.9451 118.237 48.3508 116.687 48.8099 116.58C48.8953 116.623 48.9593 116.687 49.002 116.783C49.0767 116.922 49.0768 117.104 49.0768 117.211ZM39.2977 118.045C39.1803 118.045 39.1589 118.002 39.1589 117.927C39.1589 117.767 39.3831 117.478 39.7567 117.2C39.682 117.788 39.4151 118.045 39.2977 118.045ZM81.4672 121.028L81.3818 121.124C80.8267 121.798 79.5669 123.348 78.9477 123.498C78.7235 123.498 78.6381 123.359 78.6381 123.092C78.6381 122.354 79.3214 121.456 79.3214 120.461C79.3214 119.638 78.51 119.52 78.1257 119.52H78.115C78.115 119.52 78.115 119.52 78.1043 119.52C78.083 119.52 78.0723 119.52 78.0616 119.52V119.531C77.3143 119.563 76.6951 120.6 76.1293 121.905L76.0973 121.83C76.2147 121.317 76.4602 120.13 75.6169 119.723C75.6169 119.723 75.5635 119.67 75.5421 119.756C75.4354 120.066 75.3073 120.472 75.1898 120.9C74.6347 121.413 74.2931 121.53 74.2183 121.53C73.7593 121.53 73.4817 121.092 72.9693 120.247L72.8305 120.312C72.9372 120.6 72.9266 120.846 72.9266 121.028C72.9266 121.06 72.9266 121.092 72.9266 121.113C72.9266 122.621 72.0832 123.412 71.3999 123.658C70.7167 123.701 70.6099 123.145 70.6099 122.482C70.6099 121.402 71.2184 119.713 72.0298 119.713C72.3714 119.734 72.4995 119.862 72.5849 119.948C72.6063 119.969 72.6276 119.991 72.6597 120.012L72.7557 119.884C72.7451 119.873 72.7237 119.852 72.7024 119.83C72.5956 119.723 72.4141 119.552 71.9123 119.552C70.7593 119.552 69.5957 120.301 69.5423 121.958C68.8911 122.653 67.9196 123.637 67.4819 123.637C67.3858 123.637 67.1723 123.626 67.1723 122.856C67.1723 122.258 67.3858 121.21 67.9089 119.873C67.9089 119.873 67.9303 119.756 67.7701 119.756C67.3538 119.756 66.457 120.408 66.2648 121.498C66.0834 121.68 65.8912 121.883 65.6883 122.097C65.0478 122.792 64.3218 123.573 63.6172 123.573C63.2009 123.573 63.1155 123.156 63.1155 122.471C63.1155 121.616 63.5532 120.012 64.2044 118.472C65.0798 118.365 65.7204 118.162 66.3075 117.991C67.0548 117.767 67.7061 117.574 68.6669 117.574C69.1687 117.574 69.4462 117.703 69.4462 117.82C69.4462 117.916 69.4035 118.013 69.0833 118.013V118.173C69.2114 118.173 69.6064 118.173 69.6064 117.82C69.6064 117.521 69.126 117.425 68.6669 117.425C67.6741 117.425 66.9801 117.628 66.2542 117.852C65.699 118.023 65.0905 118.205 64.2685 118.312C64.4393 117.916 64.6314 117.51 64.8236 117.136L64.9624 116.858C64.8556 116.804 64.7168 116.762 64.7062 116.762H64.6955C64.151 116.762 63.5852 117.467 63.1155 118.408C62.9447 118.419 62.7632 118.419 62.571 118.419C61.7276 118.419 61.4287 118.173 61.4287 117.938C61.4287 117.82 61.4821 117.724 61.5888 117.67C61.7917 117.542 62.1226 117.585 62.2294 117.638L62.3041 117.499C62.1546 117.414 61.7596 117.382 61.5141 117.532C61.3646 117.617 61.2792 117.756 61.2792 117.938C61.2792 118.087 61.3753 118.579 62.5817 118.579C62.7418 118.579 62.902 118.579 63.0514 118.569C62.6564 119.392 62.3255 120.354 62.1333 121.167C61.8237 121.456 61.5461 121.776 61.2685 122.097C60.6493 122.814 60.0515 123.509 59.2722 123.658C58.8131 123.669 58.6957 123.284 58.6957 122.781C58.6957 120.782 59.7739 119.51 60.4038 119.659C60.7134 119.745 60.8415 119.895 60.9483 120.044L61.0764 119.959C60.8735 119.649 60.596 119.445 59.8594 119.445C59.1974 119.445 57.9911 120.151 57.6708 121.456C57.564 121.573 57.4466 121.712 57.3185 121.862C56.774 122.493 56.0587 123.327 55.1726 123.605C54.5107 123.744 54.3399 123.22 54.3399 122.653C54.3399 122.578 54.3399 122.493 54.3506 122.397C55.5143 121.349 56.1121 120.568 56.1121 120.076C56.1121 119.713 55.92 119.563 55.4929 119.563C54.7563 119.563 53.7955 120.632 53.3578 121.605C53.2083 121.766 53.0588 121.926 52.9201 122.086C52.3009 122.771 51.7457 123.38 51.2119 123.573C50.55 123.669 50.4966 123.273 50.4966 122.803C50.4966 122.375 50.6461 121.776 50.8489 121.167C52.034 119.916 53.1229 118.59 53.1229 117.221V117.211C53.1229 117.093 53.1229 116.89 53.0375 116.708C52.9307 116.484 52.7172 116.355 52.429 116.355C51.4468 116.355 49.8561 118.954 49.6533 121.445C49.4504 121.659 49.2476 121.873 49.0554 122.086C48.4362 122.771 47.8917 123.38 47.3473 123.573C46.6854 123.669 46.632 123.273 46.632 122.803C46.632 122.375 46.7921 121.776 46.9843 121.167C48.1693 119.916 49.2582 118.59 49.2582 117.221V117.211C49.2582 117.093 49.2582 116.89 49.1728 116.708C49.0661 116.484 48.8526 116.355 48.5643 116.355C47.6035 116.355 46.0662 118.825 45.81 121.252C45.5004 121.477 45.3082 121.541 45.2548 121.541C44.7957 121.541 44.5182 121.103 44.0057 120.258L43.8669 120.322C43.9737 120.611 43.963 120.857 43.963 121.039C43.963 121.071 43.963 121.103 43.963 121.124C43.963 122.632 43.1196 123.423 42.4364 123.669C41.7531 123.712 41.6464 123.156 41.6464 122.493C41.6464 121.413 42.2549 119.723 43.0663 119.723C43.4079 119.745 43.536 119.873 43.6214 119.959C43.6427 119.98 43.6641 120.001 43.6961 120.023L43.7922 119.895C43.7815 119.884 43.7602 119.862 43.7388 119.841C43.6321 119.734 43.4506 119.563 42.9488 119.563C41.9773 119.563 41.0058 120.087 40.6749 121.242C40.6002 121.327 40.5147 121.424 40.4293 121.53C39.6393 122.45 38.4436 123.851 36.7141 123.851C36.6714 123.851 36.6287 123.851 36.586 123.84C35.2409 123.776 34.7071 122.739 34.7071 121.146C34.7071 118.365 36.3512 115.233 37.9739 115.222C39.1376 115.318 39.8208 116.088 39.8208 116.826C39.8208 116.879 39.8208 116.933 39.8208 116.986C39.3617 117.296 39.0415 117.66 39.0415 117.916C39.0415 118.023 39.0842 118.194 39.3404 118.194C39.5859 118.194 39.9169 117.809 39.9703 117.072C40.2372 116.901 40.5575 116.73 40.9098 116.623L40.8564 116.473C40.5468 116.569 40.2478 116.719 39.9703 116.89V116.836C39.9703 115.842 38.9774 115.062 37.707 115.062C35.9241 115.062 33.4473 117.157 33.4473 120.557C33.4473 122.792 35.1341 124 36.7141 124C38.5183 124 39.7888 122.514 40.5468 121.627C40.5681 121.605 40.5895 121.584 40.6001 121.563C40.5681 121.734 40.5574 121.905 40.5574 122.097C40.5574 123.337 41.3047 123.915 41.9987 123.915C42.7353 123.915 44.1232 123.092 44.1232 121.135C44.1232 121.113 44.1232 121.081 44.1232 121.049C44.1232 120.964 44.1232 120.857 44.1125 120.739C44.4755 121.327 44.7851 121.702 45.2548 121.702C45.3402 121.702 45.5217 121.637 45.7886 121.466C45.7779 121.627 45.7672 121.787 45.7672 121.958C45.7672 123.166 46.1943 123.808 47.0056 123.808C47.7316 123.808 48.4042 123.07 49.1728 122.204C49.3223 122.033 49.4718 121.873 49.6319 121.702C49.6319 121.787 49.6212 121.873 49.6212 121.958C49.6212 123.166 50.0482 123.808 50.8596 123.808C51.5856 123.808 52.2581 123.07 53.0268 122.204C53.0802 122.14 53.1442 122.076 53.1976 122.012C53.1442 122.193 53.1122 122.364 53.1122 122.514C53.1122 123.509 53.8595 123.872 54.5535 123.872C55.8132 123.872 56.7954 122.728 57.4359 121.969C57.5 121.894 57.5534 121.83 57.6174 121.766C57.6067 121.894 57.5854 122.022 57.5854 122.161C57.5854 123.209 58.0978 123.861 58.9306 123.861C59.9661 123.861 60.6921 123.017 61.3967 122.204C61.6209 121.947 61.845 121.691 62.0799 121.456C61.9945 121.873 61.9411 122.236 61.9411 122.493C61.9411 123.37 62.4643 123.754 63.6279 123.754C64.4073 123.754 65.1545 122.942 65.8164 122.225C65.9659 122.065 66.1047 121.915 66.2435 121.776C66.2435 121.83 66.2328 121.894 66.2328 121.958C66.2328 123.284 67.3111 123.829 67.4926 123.829C67.9516 123.829 68.7416 123.081 69.553 122.215C69.5957 123.391 70.3217 123.926 70.9942 123.926C71.7309 123.926 73.1187 123.102 73.1187 121.146C73.1187 121.124 73.1187 121.092 73.1187 121.06C73.1187 120.974 73.1187 120.868 73.1081 120.75C73.4817 121.338 73.7806 121.712 74.2503 121.712C74.3678 121.712 74.6774 121.595 75.1471 121.199C74.8589 122.268 74.6133 123.423 74.624 123.733C75.0083 123.744 75.5848 123.776 75.5848 123.776L75.6489 123.626C76.4069 121.702 77.1862 119.702 78.1471 119.702C78.2752 119.702 78.3072 119.756 78.3178 119.766C78.4246 119.916 78.2538 120.376 78.083 120.868C77.8801 121.434 77.6133 122.151 77.6133 122.803C77.6133 123.562 78.0082 123.69 78.8943 123.69C79.4602 123.69 80.4957 122.514 81.542 121.242L81.6274 121.135L81.4672 121.028Z" fill="#236B66"/>
<path d="M53.4325 2.65173C53.4539 3.69959 55.1833 3.46435 54.5321 4.71537C51.0518 5.01475 46.7601 5.68838 43.9951 13.2693C41.4863 12.9699 40.6642 14.0713 41.198 15.5147C42.1268 18.0168 42.3724 18.4765 41.7745 20.0697C41.7745 20.0697 38.1127 14.4775 32.5293 13.9964C26.9458 13.5152 19.366 15.8889 20.8286 27.6506C21.6186 34.0019 27.1273 37.755 28.9956 39.3909C30.4688 40.674 31.5577 41.2086 32.4759 43.1653C33.7997 46.0202 35.8922 49.1745 40.2799 50.618C43.2371 51.591 41.5397 52.147 42.0414 53.0345C42.9275 54.5742 44.294 57.0548 56.7313 57.1724C67.7808 57.2794 72.3714 54.371 71.496 52.2432C70.7808 50.5003 72.9586 50.8746 73.834 50.618C78.8197 49.1745 80.5385 46.3196 82.4174 43.1012C84.2964 39.8828 86.0152 30.3024 87.7019 25.0738C89.3887 19.8452 92.2605 19.6527 94.1288 19.1609C94.1288 19.1609 94.353 19.0005 94.3744 18.6262V18.53C94.353 18.1023 94.0754 17.4393 93.0399 16.4984C91.5986 15.1939 88.5987 14.8732 87.6806 15.2795C85.4387 16.2632 81.8302 19.0753 77.8695 26.56C75.0938 31.7886 71.0156 24.5177 70.6633 22.1761C70.3003 19.8238 70.1509 18.4017 70.9195 16.9582C71.3145 16.2204 72.4142 14.7128 71.5387 13.9643C70.5886 13.1517 69.0299 13.0768 68.5602 13.3335C66.4037 4.72606 58.3007 4.72607 58.3007 4.72607C58.3007 4.72607 57.5534 3.89203 58.6743 3.32533C59.475 2.91902 59.774 1.64662 57.6815 0.384912C57.2331 0.117601 56.7847 0 56.347 0C54.735 0.0106924 53.4112 1.56111 53.4325 2.65173ZM24.437 27.6506C22.8569 20.5829 27.6824 17.4501 30.9386 17.3859C33.6929 17.3324 36.4473 18.8935 37.8672 22.4862C37.5682 23.8014 37.6323 24.7102 38.2942 25.8543C38.3582 25.9719 38.1127 27.0305 36.949 28.613C35.3797 30.7301 31.8674 31.1257 32.1343 35.8196C32.1343 35.809 25.7821 33.6598 24.437 27.6506Z" fill="#236B66"/>
</svg>
