<svg width="100" height="100" viewBox="0 0 100 100" fill="none" xmlns="http://www.w3.org/2000/svg">
<circle cx="50" cy="50" r="48.5" stroke="white" stroke-width="3"/>
<path d="M38.1784 63.5077L38.7097 63.0583V62.3624V62.3608V62.3592V62.3575V62.3559V62.3543V62.3527V62.3511V62.3496V62.348V62.3464V62.3448V62.3433V62.3417V62.3402V62.3386V62.3371V62.3356V62.3341V62.3325V62.331V62.3295V62.328V62.3265V62.3251V62.3236V62.3221V62.3206V62.3192V62.3177V62.3163V62.3148V62.3134V62.312V62.3105V62.3091V62.3077V62.3063V62.3049V62.3035V62.3021V62.3007V62.2993V62.298V62.2966V62.2952V62.2939V62.2925V62.2912V62.2899V62.2885V62.2872V62.2859V62.2846V62.2833V62.282V62.2807V62.2794V62.2781V62.2768V62.2755V62.2743V62.273V62.2717V62.2705V62.2692V62.268V62.2668V62.2655V62.2643V62.2631V62.2619V62.2607V62.2595V62.2583V62.2571V62.2559V62.2547V62.2535V62.2524V62.2512V62.25V62.2489V62.2477V62.2466V62.2454V62.2443V62.2432V62.2421V62.241V62.2398V62.2387V62.2376V62.2365V62.2354V62.2344V62.2333V62.2322V62.2311V62.2301V62.229V62.228V62.2269V62.2259V62.2248V62.2238V62.2228V62.2217V62.2207V62.2197V62.2187V62.2177V62.2167V62.2157V62.2147V62.2137V62.2128V62.2118V62.2108V62.2098V62.2089V62.2079V62.207V62.206V62.2051V62.2042V62.2032V62.2023V62.2014V62.2005V62.1996V62.1987V62.1978V62.1969V62.196V62.1951V62.1942V62.1933V62.1924V62.1916V62.1907V62.1899V62.189V62.1882V62.1873V62.1865V62.1856V62.1848V62.184V62.1831V62.1823V62.1815V62.1807V62.1799V62.1791V62.1783V62.1775V62.1767V62.1759V62.1752V62.1744V62.1736V62.1729V62.1721V62.1713V62.1706V62.1698V62.1691V62.1684V62.1676V62.1669V62.1662V62.1655V62.1647V62.164V62.1633V62.1626V62.1619V62.1612V62.1605V62.1598V62.1591V62.1585V62.1578V62.1571V62.1564V62.1558V62.1551V62.1545V62.1538V62.1532V62.1525V62.1519V62.1513V62.1506V62.15V62.1494V62.1488V62.1481V62.1475V62.1469V62.1463V62.1457V62.1451V62.1445V62.1439V62.1433V62.1428V62.1422V62.1416V62.141V62.1405V62.1399V62.1394V62.1388V62.1383V62.1377V62.1372V62.1366V62.1361V62.1356V62.135V62.1345V62.134V62.1335V62.1329V62.1324V62.1319V62.1314V62.1309V62.1304V62.1299V62.1294V62.129V62.1285V62.128V62.1275V62.127V62.1266V62.1261V62.1256V62.1252V62.1247V62.1243V62.1238V62.1234V62.1229V62.1225V62.1221V62.1216V62.1212V62.1208V62.1204V62.1199V62.1195V62.1191V62.1187V62.1183V62.1179V62.1175V62.1171V62.1167V62.1163V62.1159V62.1155V62.1152V62.1148V62.1144V62.114V62.1137V62.1133V62.1129V62.1126V62.1122V62.1119V62.1115V62.1112V62.1108V62.1105V62.1101V62.1098V62.1095V62.1091V62.1088V62.1085V62.1082V62.1078V62.1075V62.1072V62.1069V62.1066V62.1063V62.106V62.1057V62.1054V62.1051V62.1048V62.1045V62.1042V62.1039V62.1037V62.1034V62.1031V62.1028V62.1026V62.1023V62.102V62.1018V62.1015V62.1012V62.101V62.1007V62.1005V62.1002V62.1V62.0998V62.0995V62.0993V62.099V62.0988V62.0986V62.0983V62.0981V62.0979V62.0977V62.0975V62.0972V62.097V62.0968V62.0966V62.0964V62.0962V62.096V62.0958V62.0956V62.0954V62.0952V62.095V62.0948V62.0946V62.0944V62.0943V62.0941V62.0939V62.0937V62.0936V62.0934V62.0932V62.093V62.0929V62.0927V62.0925V62.0924V62.0922V62.0921V62.0919V62.0918V62.0916V62.0915V62.0913V62.0912V62.091V62.0909V62.0908V62.0906V62.0905V62.0903V62.0902V62.0901V62.09V62.0898V62.0897V62.0896V62.0895V62.0893V62.0892V62.0891V62.089V62.0889V62.0888V62.0887V62.0886V62.0884V62.0883V62.0882V62.0881V62.088V62.0879V62.0878V62.0877V62.0877V62.0876V62.0875V62.0874V62.0873V62.0872V62.0871V62.087V62.087V62.0869V62.0868V62.0867V62.0867V62.0866V62.0865V62.0864V62.0864V62.0863V62.0862V62.0862V62.0861V62.086V62.086V62.0859V62.0858V62.0858V62.0857V62.0857V62.0856V62.0856V62.0855V62.0855V62.0854V62.0854V62.0853V62.0853V62.0852V62.0852V62.0851V62.0851V62.085V62.085V62.085V62.0849V62.0849V62.0848V62.0848V62.0848V62.0847V62.0847V62.0847V62.0846V62.0846V62.0846V62.0845V62.0845V62.0844V62.0844V62.0843V62.0843V62.0843V62.0842V62.0842V62.0841V62.0841V62.0841V62.084V62.084V62.084V62.0839V62.0839V20.8624C38.7097 15.6309 43.0495 11.5 48.5 11.5C53.9505 11.5 58.2903 15.6309 58.2903 20.8624V62.0839V62.0839V62.084V62.084V62.084V62.0841V62.0841V62.0841V62.0842V62.0842V62.0842V62.0843V62.0843V62.0844V62.0844V62.0845V62.0845V62.0846V62.0846V62.0846V62.0847V62.0847V62.0847V62.0848V62.0848V62.0848V62.0849V62.0849V62.085V62.085V62.085V62.0851V62.0851V62.0852V62.0852V62.0853V62.0853V62.0854V62.0854V62.0855V62.0855V62.0856V62.0856V62.0857V62.0857V62.0858V62.0858V62.0859V62.086V62.086V62.0861V62.0862V62.0862V62.0863V62.0864V62.0864V62.0865V62.0866V62.0867V62.0867V62.0868V62.0869V62.087V62.087V62.0871V62.0872V62.0873V62.0874V62.0875V62.0876V62.0877V62.0877V62.0878V62.0879V62.088V62.0881V62.0882V62.0883V62.0884V62.0886V62.0887V62.0888V62.0889V62.089V62.0891V62.0892V62.0893V62.0895V62.0896V62.0897V62.0898V62.09V62.0901V62.0902V62.0903V62.0905V62.0906V62.0908V62.0909V62.091V62.0912V62.0913V62.0915V62.0916V62.0918V62.0919V62.0921V62.0922V62.0924V62.0925V62.0927V62.0929V62.093V62.0932V62.0934V62.0936V62.0937V62.0939V62.0941V62.0943V62.0944V62.0946V62.0948V62.095V62.0952V62.0954V62.0956V62.0958V62.096V62.0962V62.0964V62.0966V62.0968V62.097V62.0972V62.0975V62.0977V62.0979V62.0981V62.0983V62.0986V62.0988V62.099V62.0993V62.0995V62.0998V62.1V62.1002V62.1005V62.1007V62.101V62.1012V62.1015V62.1018V62.102V62.1023V62.1026V62.1028V62.1031V62.1034V62.1037V62.1039V62.1042V62.1045V62.1048V62.1051V62.1054V62.1057V62.106V62.1063V62.1066V62.1069V62.1072V62.1075V62.1078V62.1082V62.1085V62.1088V62.1091V62.1095V62.1098V62.1101V62.1105V62.1108V62.1112V62.1115V62.1119V62.1122V62.1126V62.1129V62.1133V62.1137V62.114V62.1144V62.1148V62.1152V62.1155V62.1159V62.1163V62.1167V62.1171V62.1175V62.1179V62.1183V62.1187V62.1191V62.1195V62.1199V62.1204V62.1208V62.1212V62.1216V62.1221V62.1225V62.1229V62.1234V62.1238V62.1243V62.1247V62.1252V62.1256V62.1261V62.1266V62.127V62.1275V62.128V62.1285V62.129V62.1294V62.1299V62.1304V62.1309V62.1314V62.1319V62.1324V62.1329V62.1335V62.134V62.1345V62.135V62.1356V62.1361V62.1366V62.1372V62.1377V62.1383V62.1388V62.1394V62.1399V62.1405V62.141V62.1416V62.1422V62.1428V62.1433V62.1439V62.1445V62.1451V62.1457V62.1463V62.1469V62.1475V62.1481V62.1488V62.1494V62.15V62.1506V62.1513V62.1519V62.1525V62.1532V62.1538V62.1545V62.1551V62.1558V62.1564V62.1571V62.1578V62.1585V62.1591V62.1598V62.1605V62.1612V62.1619V62.1626V62.1633V62.164V62.1647V62.1655V62.1662V62.1669V62.1676V62.1684V62.1691V62.1698V62.1706V62.1713V62.1721V62.1729V62.1736V62.1744V62.1752V62.1759V62.1767V62.1775V62.1783V62.1791V62.1799V62.1807V62.1815V62.1823V62.1831V62.184V62.1848V62.1856V62.1865V62.1873V62.1882V62.189V62.1899V62.1907V62.1916V62.1924V62.1933V62.1942V62.1951V62.196V62.1969V62.1978V62.1987V62.1996V62.2005V62.2014V62.2023V62.2032V62.2042V62.2051V62.206V62.207V62.2079V62.2089V62.2098V62.2108V62.2118V62.2128V62.2137V62.2147V62.2157V62.2167V62.2177V62.2187V62.2197V62.2207V62.2217V62.2228V62.2238V62.2248V62.2259V62.2269V62.228V62.229V62.2301V62.2311V62.2322V62.2333V62.2344V62.2354V62.2365V62.2376V62.2387V62.2398V62.241V62.2421V62.2432V62.2443V62.2454V62.2466V62.2477V62.2489V62.25V62.2512V62.2524V62.2535V62.2547V62.2559V62.2571V62.2583V62.2595V62.2607V62.2619V62.2631V62.2643V62.2655V62.2668V62.268V62.2692V62.2705V62.2717V62.273V62.2743V62.2755V62.2768V62.2781V62.2794V62.2807V62.282V62.2833V62.2846V62.2859V62.2872V62.2885V62.2899V62.2912V62.2925V62.2939V62.2952V62.2966V62.298V62.2993V62.3007V62.3021V62.3035V62.3049V62.3063V62.3077V62.3091V62.3105V62.312V62.3134V62.3148V62.3163V62.3177V62.3192V62.3206V62.3221V62.3236V62.3251V62.3265V62.328V62.3295V62.331V62.3325V62.3341V62.3356V62.3371V62.3386V62.3402V62.3417V62.3433V62.3448V62.3464V62.348V62.3496V62.3511V62.3527V62.3543V62.3559V62.3575V62.3592V62.3608V62.3624V63.0583L58.8216 63.5077C62.4416 66.5694 64.5 70.8878 64.5 75.7315C64.5 84.3541 57.2872 91.5 48.5 91.5C39.7128 91.5 32.5 84.3541 32.5 75.7315C32.5 70.8878 34.5584 66.5694 38.1784 63.5077Z" stroke="white" stroke-width="3"/>
<path fill-rule="evenodd" clip-rule="evenodd" d="M48.5 86C42.5769 86 38 81.0048 38 75.177C38 70.7368 40.6923 66.5742 44.7308 65.1866V32.1627C44.7308 29.9426 46.3462 28 48.5 28C50.6538 28 52.2692 29.9426 52.2692 32.1627V65.1866C56.3077 66.5742 59 70.7368 59 75.177C59 81.0048 54.1538 86 48.5 86Z" fill="white"/>
<path fill-rule="evenodd" clip-rule="evenodd" d="M72 20H63V17H72V20Z" fill="white"/>
<path fill-rule="evenodd" clip-rule="evenodd" d="M71 28H63V26H71V28Z" fill="white"/>
<path fill-rule="evenodd" clip-rule="evenodd" d="M72 34H63V33H72V34Z" fill="white"/>
<path fill-rule="evenodd" clip-rule="evenodd" d="M71 42H63V41H71V42Z" fill="white"/>
<path fill-rule="evenodd" clip-rule="evenodd" d="M72 50H63V47H72V50Z" fill="white"/>
</svg>
