<svg width="570" height="356" viewBox="0 0 570 356" fill="none" xmlns="http://www.w3.org/2000/svg">
<path d="M57.775 75V26.25H68.5L88.975 59.325H89.125L88.6 55.95V26.25H95.05V75H86.95L63.775 38.4H63.625L64.225 42.75V75H57.775ZM106.628 75V26.25H116.978V75H106.628ZM128.6 75V26.25H138.95V48.825L143.375 45.6L157.7 26.25H164.9L150.125 45.3L168.35 75H155.225L142.175 53.1L138.95 55.35V75H128.6ZM183.436 75V31.65H170.311V26.25H206.911V31.65H193.861V75H183.436ZM213.708 75V26.25H242.958V31.65H224.058V47.7H240.708V52.95H224.058V69.6H244.008V75H213.708ZM248.689 75L264.889 26.25H276.364L291.514 75H280.564L276.364 61.35H259.414L254.989 75H248.689ZM260.914 56.625H274.939L268.264 33.675H268.114L260.914 56.625ZM317.785 75V26.25H347.41V31.65H328.135V49.65H344.935V54.9H328.135V75H317.785ZM362.206 75.825C358.706 75.825 355.906 74.95 353.806 73.2C351.706 71.45 350.656 69.05 350.656 66C350.656 61.6 352.706 58.425 356.806 56.475C360.956 54.475 365.781 53.25 371.281 52.8V50.625C371.281 47.225 370.806 44.9 369.856 43.65C368.906 42.35 367.306 41.7 365.056 41.7C364.006 41.7 362.806 41.9 361.456 42.3C360.156 42.7 359.006 43.125 358.006 43.575C357.056 44.025 356.431 44.325 356.131 44.475L355.156 39.675C355.456 39.525 356.156 39.225 357.256 38.775C358.406 38.275 359.831 37.8 361.531 37.35C363.281 36.9 365.031 36.675 366.781 36.675C371.481 36.675 375.056 37.675 377.506 39.675C380.006 41.625 381.256 45 381.256 49.8V66.825C381.256 69.475 381.781 70.8 382.831 70.8C383.231 70.8 383.706 70.725 384.256 70.575C384.806 70.425 385.181 70.325 385.381 70.275L385.681 74.175C385.431 74.275 384.831 74.45 383.881 74.7C382.931 74.95 381.831 75.2 380.581 75.45C379.381 75.7 378.306 75.825 377.356 75.825C375.906 75.825 374.781 75.475 373.981 74.775C373.181 74.025 372.656 72.825 372.406 71.175H372.031C372.031 71.325 371.681 71.8 370.981 72.6C370.331 73.35 369.281 74.075 367.831 74.775C366.381 75.475 364.506 75.825 362.206 75.825ZM365.506 70.8C366.706 70.8 367.731 70.5 368.581 69.9C369.481 69.3 370.156 68.65 370.606 67.95C371.056 67.2 371.281 66.775 371.281 66.675V56.775C367.931 57.125 365.381 57.925 363.631 59.175C361.931 60.375 361.081 62.225 361.081 64.725C361.081 66.725 361.481 68.25 362.281 69.3C363.081 70.3 364.156 70.8 365.506 70.8ZM391.583 37.5H399.608L400.883 40.875H401.108C401.108 40.775 401.558 40.375 402.458 39.675C403.358 38.925 404.533 38.25 405.983 37.65C407.483 37.05 409.158 36.75 411.008 36.75C413.058 36.75 414.758 37.075 416.108 37.725C417.458 38.375 418.508 39.375 419.258 40.725C420.108 40.025 420.833 39.475 421.433 39.075C422.083 38.625 423.158 38.125 424.658 37.575C426.208 37.025 427.958 36.75 429.908 36.75C433.458 36.75 436.008 37.7 437.558 39.6C439.108 41.45 439.883 44.525 439.883 48.825V75H429.908V49.575C429.908 46.875 429.583 45.1 428.933 44.25C428.333 43.35 427.333 42.9 425.933 42.9C424.683 42.9 423.608 43.225 422.708 43.875C421.808 44.475 421.108 45.1 420.608 45.75C420.708 46.95 420.758 47.925 420.758 48.675V75H410.783V49.575C410.783 46.925 410.458 45.15 409.808 44.25C409.208 43.35 408.233 42.9 406.883 42.9C405.583 42.9 404.458 43.225 403.508 43.875C402.558 44.525 401.908 45.1 401.558 45.6V75H391.583V37.5ZM453.59 31.875C452.09 31.875 450.765 31.375 449.615 30.375C448.465 29.225 447.89 27.8 447.89 26.1C447.89 24.45 448.465 23.05 449.615 21.9C450.665 20.9 451.99 20.4 453.59 20.4C455.14 20.4 456.415 20.875 457.415 21.825C458.515 22.975 459.065 24.4 459.065 26.1C459.065 27.85 458.515 29.3 457.415 30.45C456.315 31.4 455.04 31.875 453.59 31.875ZM448.565 75V37.5H458.54V75H448.565ZM467.535 75V19.05L477.51 18.45V75H467.535ZM489.578 94.575C488.428 94.575 487.403 94.475 486.503 94.275C485.653 94.125 485.003 93.95 484.553 93.75C484.103 93.6 483.828 93.5 483.728 93.45L484.553 87.6C484.753 87.7 485.253 87.85 486.053 88.05C486.853 88.3 487.653 88.425 488.453 88.425C490.703 88.425 492.528 87.525 493.928 85.725C495.328 83.975 496.878 80.9 498.578 76.5L482.603 37.5H494.678L503.828 64.2L511.553 37.5H517.778L504.803 75.825C503.253 80.075 501.778 83.525 500.378 86.175C499.028 88.825 497.478 90.875 495.728 92.325C493.978 93.825 491.928 94.575 489.578 94.575Z" fill="#F9EB40"/>
<path d="M66.6257 117.8H84.1457V121.256H73.2977V129.752H75.3137C79.2817 129.752 82.3377 130.52 84.4817 132.056C86.6577 133.592 87.7457 135.896 87.7457 138.968C87.7457 142.136 86.7057 144.6 84.6257 146.36C82.5457 148.12 79.5057 149 75.5057 149H66.6257V117.8ZM75.4097 145.88C77.3297 145.88 78.7217 145.384 79.5857 144.392C80.4497 143.4 80.8817 141.656 80.8817 139.16C80.8817 136.728 80.4337 135.064 79.5377 134.168C78.6737 133.24 77.2817 132.776 75.3617 132.776H73.2977V145.88H75.4097ZM102.037 149.528C98.4529 149.528 95.6849 148.44 93.7329 146.264C91.8129 144.088 90.8529 141 90.8529 137C90.8529 133 91.8129 129.912 93.7329 127.736C95.6849 125.56 98.4529 124.472 102.037 124.472C105.653 124.472 108.421 125.56 110.341 127.736C112.293 129.912 113.269 133 113.269 137C113.269 140.968 112.261 144.056 110.245 146.264C108.261 148.44 105.525 149.528 102.037 149.528ZM102.037 146.36C103.093 146.36 103.925 146.056 104.533 145.448C105.173 144.84 105.637 143.864 105.925 142.52C106.213 141.176 106.357 139.336 106.357 137C106.357 134.664 106.213 132.824 105.925 131.48C105.637 130.136 105.189 129.176 104.581 128.6C103.973 127.992 103.125 127.688 102.037 127.688C100.949 127.688 100.101 127.992 99.4929 128.6C98.8849 129.176 98.4369 130.136 98.1489 131.48C97.8609 132.824 97.7169 134.648 97.7169 136.952C97.7169 139.288 97.8609 141.144 98.1489 142.52C98.4369 143.864 98.8849 144.84 99.4929 145.448C100.133 146.056 100.981 146.36 102.037 146.36ZM117.56 149V125H123.944V135.032H131.384V125H137.768V149H131.384V138.296H123.944V149H117.56ZM145.448 161.528C144.712 161.528 144.056 161.464 143.48 161.336C142.936 161.24 142.52 161.128 142.232 161C141.944 160.904 141.768 160.84 141.704 160.808L142.232 157.064C142.36 157.128 142.68 157.224 143.192 157.352C143.704 157.512 144.216 157.592 144.728 157.592C146.168 157.592 147.336 157.016 148.232 155.864C149.128 154.744 150.12 152.776 151.208 149.96L140.984 125H148.712L154.568 142.088L159.512 125H163.496L155.192 149.528C154.2 152.248 153.256 154.456 152.36 156.152C151.496 157.848 150.504 159.16 149.384 160.088C148.264 161.048 146.952 161.528 145.448 161.528ZM176.574 149.528C172.894 149.528 170.062 148.472 168.078 146.36C166.126 144.248 165.15 141.176 165.15 137.144C165.15 133.24 166.174 130.152 168.222 127.88C170.27 125.608 173.102 124.472 176.718 124.472C177.71 124.472 178.718 124.616 179.742 124.904C180.798 125.16 181.678 125.448 182.382 125.768C183.086 126.056 183.534 126.248 183.726 126.344L183.102 129.416C182.942 129.32 182.542 129.144 181.902 128.888C181.262 128.6 180.526 128.328 179.694 128.072C178.862 127.816 178.11 127.688 177.438 127.688C176.222 127.688 175.23 127.944 174.462 128.456C173.694 128.968 173.102 129.912 172.686 131.288C172.27 132.632 172.062 134.552 172.062 137.048C172.062 140.6 172.51 143.032 173.406 144.344C174.302 145.656 175.582 146.312 177.246 146.312C178.366 146.312 179.326 146.072 180.126 145.592C180.958 145.08 181.598 144.552 182.046 144.008C182.494 143.432 182.718 143.096 182.718 143L184.974 144.44C184.974 144.632 184.686 145.16 184.11 146.024C183.534 146.856 182.622 147.656 181.374 148.424C180.126 149.16 178.526 149.528 176.574 149.528ZM188.06 149V125H194.444V135.032H201.884V125H208.268V149H201.884V138.296H194.444V149H188.06ZM219.836 149.528C217.596 149.528 215.804 148.968 214.46 147.848C213.116 146.728 212.444 145.192 212.444 143.24C212.444 140.424 213.756 138.392 216.38 137.144C219.036 135.864 222.124 135.08 225.644 134.792V133.4C225.644 131.224 225.34 129.736 224.732 128.936C224.124 128.104 223.1 127.688 221.66 127.688C220.988 127.688 220.22 127.816 219.356 128.072C218.524 128.328 217.788 128.6 217.148 128.888C216.54 129.176 216.14 129.368 215.948 129.464L215.324 126.392C215.516 126.296 215.964 126.104 216.668 125.816C217.404 125.496 218.316 125.192 219.404 124.904C220.524 124.616 221.644 124.472 222.764 124.472C225.772 124.472 228.06 125.112 229.628 126.392C231.228 127.64 232.028 129.8 232.028 132.872V143.768C232.028 145.464 232.364 146.312 233.036 146.312C233.292 146.312 233.596 146.264 233.948 146.168C234.3 146.072 234.54 146.008 234.668 145.976L234.86 148.472C234.7 148.536 234.316 148.648 233.708 148.808C233.1 148.968 232.396 149.128 231.596 149.288C230.828 149.448 230.14 149.528 229.532 149.528C228.604 149.528 227.884 149.304 227.372 148.856C226.86 148.376 226.524 147.608 226.364 146.552H226.124C226.124 146.648 225.9 146.952 225.452 147.464C225.036 147.944 224.364 148.408 223.436 148.856C222.508 149.304 221.308 149.528 219.836 149.528ZM221.948 146.312C222.716 146.312 223.372 146.12 223.916 145.736C224.492 145.352 224.924 144.936 225.212 144.488C225.5 144.008 225.644 143.736 225.644 143.672V137.336C223.5 137.56 221.868 138.072 220.748 138.872C219.66 139.64 219.116 140.824 219.116 142.424C219.116 143.704 219.372 144.68 219.884 145.352C220.396 145.992 221.084 146.312 221.948 146.312ZM242.238 138.44C240.862 137.8 239.742 136.984 238.878 135.992C238.014 134.968 237.582 133.784 237.582 132.44C237.582 129.912 238.462 128.04 240.222 126.824C241.982 125.608 244.478 125 247.71 125H256.446V149H250.062V139.64H247.518L243.678 149H237.198L242.238 138.44ZM250.062 136.808V127.88H248.19C246.782 127.88 245.71 128.248 244.974 128.984C244.238 129.688 243.87 130.856 243.87 132.488C243.87 133.96 244.27 135.048 245.07 135.752C245.87 136.456 246.926 136.808 248.238 136.808H250.062ZM274.497 149V125H294.369V149H287.985V128.504H280.881V149H274.497ZM300.185 125H305.321L306.185 127.16H306.329C306.329 127.096 306.601 126.84 307.145 126.392C307.689 125.912 308.441 125.48 309.401 125.096C310.361 124.68 311.513 124.472 312.857 124.472C315.705 124.472 317.945 125.56 319.577 127.736C321.209 129.912 322.025 132.84 322.025 136.52C322.025 139.112 321.641 141.4 320.873 143.384C320.105 145.336 319.001 146.856 317.561 147.944C316.153 149 314.473 149.528 312.521 149.528C311.273 149.528 310.217 149.384 309.353 149.096C308.489 148.84 307.833 148.568 307.385 148.28C306.937 147.96 306.713 147.768 306.713 147.704H306.569V161L300.185 161.192V125ZM310.121 145.88C311.337 145.88 312.297 145.592 313.001 145.016C313.737 144.44 314.281 143.496 314.633 142.184C314.985 140.84 315.161 139 315.161 136.664C315.161 134.456 314.985 132.744 314.633 131.528C314.313 130.28 313.817 129.416 313.145 128.936C312.505 128.456 311.657 128.216 310.601 128.216C309.833 128.216 309.145 128.36 308.537 128.648C307.961 128.936 307.497 129.24 307.145 129.56C306.825 129.88 306.633 130.12 306.569 130.28V144.296C306.633 144.392 306.793 144.568 307.049 144.824C307.305 145.048 307.689 145.288 308.201 145.544C308.745 145.768 309.385 145.88 310.121 145.88ZM336.037 149.528C332.453 149.528 329.685 148.44 327.733 146.264C325.813 144.088 324.853 141 324.853 137C324.853 133 325.813 129.912 327.733 127.736C329.685 125.56 332.453 124.472 336.037 124.472C339.653 124.472 342.421 125.56 344.341 127.736C346.293 129.912 347.269 133 347.269 137C347.269 140.968 346.261 144.056 344.245 146.264C342.261 148.44 339.525 149.528 336.037 149.528ZM336.037 146.36C337.093 146.36 337.925 146.056 338.533 145.448C339.173 144.84 339.637 143.864 339.925 142.52C340.213 141.176 340.357 139.336 340.357 137C340.357 134.664 340.213 132.824 339.925 131.48C339.637 130.136 339.189 129.176 338.581 128.6C337.973 127.992 337.125 127.688 336.037 127.688C334.949 127.688 334.101 127.992 333.493 128.6C332.885 129.176 332.437 130.136 332.149 131.48C331.861 132.824 331.717 134.648 331.717 136.952C331.717 139.288 331.861 141.144 332.149 142.52C332.437 143.864 332.885 144.84 333.493 145.448C334.133 146.056 334.981 146.36 336.037 146.36ZM351.56 149V125H366.008V128.504H357.944V149H351.56ZM369.419 125H374.555L375.419 127.16H375.563C375.563 127.096 375.835 126.84 376.379 126.392C376.923 125.912 377.675 125.48 378.635 125.096C379.595 124.68 380.747 124.472 382.091 124.472C384.939 124.472 387.179 125.56 388.811 127.736C390.443 129.912 391.259 132.84 391.259 136.52C391.259 139.112 390.875 141.4 390.107 143.384C389.339 145.336 388.235 146.856 386.795 147.944C385.387 149 383.707 149.528 381.755 149.528C380.507 149.528 379.451 149.384 378.587 149.096C377.723 148.84 377.067 148.568 376.619 148.28C376.171 147.96 375.947 147.768 375.947 147.704H375.803V161L369.419 161.192V125ZM379.355 145.88C380.571 145.88 381.531 145.592 382.235 145.016C382.971 144.44 383.515 143.496 383.867 142.184C384.219 140.84 384.395 139 384.395 136.664C384.395 134.456 384.219 132.744 383.867 131.528C383.547 130.28 383.051 129.416 382.379 128.936C381.739 128.456 380.891 128.216 379.835 128.216C379.067 128.216 378.379 128.36 377.771 128.648C377.195 128.936 376.731 129.24 376.379 129.56C376.059 129.88 375.867 130.12 375.803 130.28V144.296C375.867 144.392 376.027 144.568 376.283 144.824C376.539 145.048 376.923 145.288 377.435 145.544C377.979 145.768 378.619 145.88 379.355 145.88ZM401.383 149.528C399.143 149.528 397.351 148.968 396.007 147.848C394.663 146.728 393.991 145.192 393.991 143.24C393.991 140.424 395.303 138.392 397.927 137.144C400.583 135.864 403.671 135.08 407.191 134.792V133.4C407.191 131.224 406.887 129.736 406.279 128.936C405.671 128.104 404.647 127.688 403.207 127.688C402.535 127.688 401.767 127.816 400.903 128.072C400.071 128.328 399.335 128.6 398.695 128.888C398.087 129.176 397.687 129.368 397.495 129.464L396.871 126.392C397.063 126.296 397.511 126.104 398.215 125.816C398.951 125.496 399.863 125.192 400.951 124.904C402.071 124.616 403.191 124.472 404.311 124.472C407.319 124.472 409.607 125.112 411.175 126.392C412.775 127.64 413.575 129.8 413.575 132.872V143.768C413.575 145.464 413.911 146.312 414.583 146.312C414.839 146.312 415.143 146.264 415.495 146.168C415.847 146.072 416.087 146.008 416.215 145.976L416.407 148.472C416.247 148.536 415.863 148.648 415.255 148.808C414.647 148.968 413.943 149.128 413.143 149.288C412.375 149.448 411.687 149.528 411.079 149.528C410.151 149.528 409.431 149.304 408.919 148.856C408.407 148.376 408.071 147.608 407.911 146.552H407.671C407.671 146.648 407.447 146.952 406.999 147.464C406.583 147.944 405.911 148.408 404.983 148.856C404.055 149.304 402.855 149.528 401.383 149.528ZM403.495 146.312C404.263 146.312 404.919 146.12 405.463 145.736C406.039 145.352 406.471 144.936 406.759 144.488C407.047 144.008 407.191 143.736 407.191 143.672V137.336C405.047 137.56 403.415 138.072 402.295 138.872C401.207 139.64 400.663 140.824 400.663 142.424C400.663 143.704 400.919 144.68 401.431 145.352C401.943 145.992 402.631 146.312 403.495 146.312ZM419.945 149L421.241 125H428.921L433.577 142.184H433.625L439.049 125H446.585L447.209 149H441.257L440.825 133.256V130.664H440.681L434.585 149H430.217L424.409 130.664H424.313L424.265 132.008L423.497 149H419.945ZM452.523 149L453.819 125H461.499L466.155 142.184H466.203L471.627 125H479.163L479.787 149H473.835L473.403 133.256V130.664H473.259L467.163 149H462.795L456.987 130.664H456.891L456.843 132.008L456.075 149H452.523ZM491.149 149.528C488.909 149.528 487.117 148.968 485.773 147.848C484.429 146.728 483.757 145.192 483.757 143.24C483.757 140.424 485.069 138.392 487.693 137.144C490.349 135.864 493.437 135.08 496.957 134.792V133.4C496.957 131.224 496.653 129.736 496.045 128.936C495.437 128.104 494.413 127.688 492.973 127.688C492.301 127.688 491.533 127.816 490.669 128.072C489.837 128.328 489.101 128.6 488.461 128.888C487.853 129.176 487.453 129.368 487.261 129.464L486.637 126.392C486.829 126.296 487.277 126.104 487.981 125.816C488.717 125.496 489.629 125.192 490.717 124.904C491.837 124.616 492.957 124.472 494.077 124.472C497.085 124.472 499.373 125.112 500.941 126.392C502.541 127.64 503.341 129.8 503.341 132.872V143.768C503.341 145.464 503.677 146.312 504.349 146.312C504.605 146.312 504.909 146.264 505.261 146.168C505.613 146.072 505.853 146.008 505.981 145.976L506.173 148.472C506.013 148.536 505.629 148.648 505.021 148.808C504.413 148.968 503.709 149.128 502.909 149.288C502.141 149.448 501.453 149.528 500.845 149.528C499.917 149.528 499.197 149.304 498.685 148.856C498.173 148.376 497.837 147.608 497.677 146.552H497.437C497.437 146.648 497.213 146.952 496.765 147.464C496.349 147.944 495.677 148.408 494.749 148.856C493.821 149.304 492.621 149.528 491.149 149.528ZM493.261 146.312C494.029 146.312 494.685 146.12 495.229 145.736C495.805 145.352 496.237 144.936 496.525 144.488C496.813 144.008 496.957 143.736 496.957 143.672V137.336C494.813 137.56 493.181 138.072 492.061 138.872C490.973 139.64 490.429 140.824 490.429 142.424C490.429 143.704 490.685 144.68 491.197 145.352C491.709 145.992 492.397 146.312 493.261 146.312ZM3.20813 209V185H9.59213V200.792L18.3761 185H23.9441V209H17.5601V192.248L8.20013 209H3.20813ZM41.9269 209V185H48.3109V195.032H55.7509V185H62.1349V209H55.7509V198.296H48.3109V209H41.9269ZM77.5916 209.528C74.0076 209.528 71.2396 208.44 69.2876 206.264C67.3676 204.088 66.4076 201 66.4076 197C66.4076 193 67.3676 189.912 69.2876 187.736C71.2396 185.56 74.0076 184.472 77.5916 184.472C81.2076 184.472 83.9756 185.56 85.8956 187.736C87.8476 189.912 88.8236 193 88.8236 197C88.8236 200.968 87.8156 204.056 85.7996 206.264C83.8156 208.44 81.0796 209.528 77.5916 209.528ZM77.5916 206.36C78.6476 206.36 79.4796 206.056 80.0876 205.448C80.7276 204.84 81.1916 203.864 81.4796 202.52C81.7676 201.176 81.9116 199.336 81.9116 197C81.9116 194.664 81.7676 192.824 81.4796 191.48C81.1916 190.136 80.7436 189.176 80.1356 188.6C79.5276 187.992 78.6796 187.688 77.5916 187.688C76.5036 187.688 75.6556 187.992 75.0476 188.6C74.4396 189.176 73.9916 190.136 73.7036 191.48C73.4156 192.824 73.2716 194.648 73.2716 196.952C73.2716 199.288 73.4156 201.144 73.7036 202.52C73.9916 203.864 74.4396 204.84 75.0476 205.448C75.6876 206.056 76.5356 206.36 77.5916 206.36ZM93.1144 185H102.282C105.674 185 108.138 185.592 109.674 186.776C111.21 187.928 111.978 189.48 111.978 191.432C111.978 193.832 110.57 195.592 107.754 196.712C109.162 197.096 110.346 197.736 111.306 198.632C112.298 199.496 112.794 200.616 112.794 201.992C112.794 204.232 111.994 205.96 110.394 207.176C108.794 208.392 106.122 209 102.378 209H93.1144V185ZM103.002 195.704C103.002 195.768 103.242 195.704 103.722 195.512C104.202 195.288 104.634 194.888 105.018 194.312C105.402 193.704 105.594 192.856 105.594 191.768C105.594 189.176 104.458 187.88 102.186 187.88H99.4984V195.704H103.002ZM102.234 206.12C103.642 206.12 104.666 205.72 105.306 204.92C105.946 204.12 106.266 203.048 106.266 201.704C106.266 199.208 105.034 197.96 102.57 197.96H99.4984V206.12H102.234ZM117.068 185H123.452V193.256H125.708C132.78 193.256 136.316 195.784 136.316 200.84C136.316 203.624 135.436 205.688 133.676 207.032C131.948 208.344 129.292 209 125.708 209H117.068V185ZM139.436 209V185H145.82V209H139.436ZM125.42 206.12C126.764 206.12 127.772 205.752 128.444 205.016C129.148 204.248 129.5 202.856 129.5 200.84C129.5 199.016 129.132 197.768 128.396 197.096C127.66 196.424 126.668 196.088 125.42 196.088H123.452V206.12H125.42ZM151.568 209V185H157.952V200.792L166.736 185H172.304V209H165.92V192.248L156.56 209H151.568ZM162.224 181.976C158.896 181.976 156.8 181.272 155.936 179.864C155.072 178.424 154.64 177.16 154.64 176.072L159.632 175.64V176.216C159.6 176.28 159.552 176.408 159.488 176.6C159.456 176.76 159.44 176.952 159.44 177.176C159.44 177.688 159.648 178.136 160.064 178.52C160.48 178.872 161.2 179.048 162.224 179.048C163.28 179.048 164.016 178.872 164.432 178.52C164.848 178.136 165.056 177.688 165.056 177.176C165.056 176.952 165.024 176.76 164.96 176.6C164.928 176.408 164.896 176.28 164.864 176.216V175.64L169.856 176.072C169.856 177.16 169.408 178.424 168.512 179.864C167.648 181.272 165.552 181.976 162.224 181.976ZM190.286 185H195.422L196.286 187.16H196.43C196.43 187.096 196.702 186.84 197.246 186.392C197.79 185.912 198.542 185.48 199.502 185.096C200.462 184.68 201.614 184.472 202.958 184.472C205.806 184.472 208.046 185.56 209.678 187.736C211.31 189.912 212.126 192.84 212.126 196.52C212.126 199.112 211.742 201.4 210.974 203.384C210.206 205.336 209.102 206.856 207.662 207.944C206.254 209 204.574 209.528 202.622 209.528C201.374 209.528 200.318 209.384 199.454 209.096C198.59 208.84 197.934 208.568 197.486 208.28C197.038 207.96 196.814 207.768 196.814 207.704H196.67V221L190.286 221.192V185ZM200.222 205.88C201.438 205.88 202.398 205.592 203.102 205.016C203.838 204.44 204.382 203.496 204.734 202.184C205.086 200.84 205.262 199 205.262 196.664C205.262 194.456 205.086 192.744 204.734 191.528C204.414 190.28 203.918 189.416 203.246 188.936C202.606 188.456 201.758 188.216 200.702 188.216C199.934 188.216 199.246 188.36 198.638 188.648C198.062 188.936 197.598 189.24 197.246 189.56C196.926 189.88 196.734 190.12 196.67 190.28V204.296C196.734 204.392 196.894 204.568 197.15 204.824C197.406 205.048 197.79 205.288 198.302 205.544C198.846 205.768 199.486 205.88 200.222 205.88ZM226.139 209.528C222.555 209.528 219.787 208.44 217.835 206.264C215.915 204.088 214.955 201 214.955 197C214.955 193 215.915 189.912 217.835 187.736C219.787 185.56 222.555 184.472 226.139 184.472C229.755 184.472 232.523 185.56 234.443 187.736C236.395 189.912 237.371 193 237.371 197C237.371 200.968 236.363 204.056 234.347 206.264C232.363 208.44 229.627 209.528 226.139 209.528ZM226.139 206.36C227.195 206.36 228.027 206.056 228.635 205.448C229.275 204.84 229.739 203.864 230.027 202.52C230.315 201.176 230.459 199.336 230.459 197C230.459 194.664 230.315 192.824 230.027 191.48C229.739 190.136 229.291 189.176 228.683 188.6C228.075 187.992 227.227 187.688 226.139 187.688C225.051 187.688 224.203 187.992 223.595 188.6C222.987 189.176 222.539 190.136 222.251 191.48C221.963 192.824 221.819 194.648 221.819 196.952C221.819 199.288 221.963 201.144 222.251 202.52C222.539 203.864 222.987 204.84 223.595 205.448C224.235 206.056 225.083 206.36 226.139 206.36ZM247.901 209.528C245.757 209.528 244.029 209.256 242.717 208.712C241.437 208.136 240.525 207.544 239.981 206.936C239.437 206.296 239.165 205.896 239.165 205.736L240.941 203.432C240.941 203.528 241.181 203.832 241.661 204.344C242.141 204.824 242.829 205.288 243.725 205.736C244.621 206.152 245.709 206.36 246.989 206.36C248.461 206.36 249.613 205.976 250.445 205.208C251.277 204.408 251.693 203.256 251.693 201.752C251.693 200.504 251.357 199.592 250.685 199.016C250.013 198.44 249.117 198.152 247.997 198.152L243.965 198.392V195.128L248.285 195.32H248.573C249.213 195.224 249.789 194.872 250.301 194.264C250.845 193.656 251.117 192.712 251.117 191.432C251.117 190.088 250.797 189.128 250.157 188.552C249.517 187.944 248.509 187.64 247.133 187.64C246.397 187.64 245.613 187.784 244.781 188.072C243.949 188.328 243.229 188.6 242.621 188.888C242.013 189.176 241.629 189.368 241.469 189.464L240.893 186.344C241.085 186.248 241.549 186.056 242.285 185.768C243.021 185.448 243.917 185.16 244.973 184.904C246.061 184.616 247.101 184.472 248.093 184.472C251.293 184.472 253.661 185.048 255.197 186.2C256.733 187.32 257.501 188.904 257.501 190.952C257.501 193.448 256.205 195.256 253.613 196.376C255.021 196.76 256.157 197.416 257.021 198.344C257.885 199.24 258.317 200.488 258.317 202.088C258.317 204.52 257.389 206.376 255.533 207.656C253.709 208.904 251.165 209.528 247.901 209.528ZM262.614 185H268.998V193.256H271.254C278.326 193.256 281.862 195.784 281.862 200.84C281.862 203.624 280.982 205.688 279.222 207.032C277.494 208.344 274.838 209 271.254 209H262.614V185ZM284.982 209V185H291.366V209H284.982ZM270.966 206.12C272.31 206.12 273.318 205.752 273.99 205.016C274.694 204.248 275.046 202.856 275.046 200.84C275.046 199.016 274.678 197.768 273.942 197.096C273.206 196.424 272.214 196.088 270.966 196.088H268.998V206.12H270.966ZM297.114 209V185H311.562V188.504H303.498V209H297.114ZM314.974 185H320.11L320.974 187.16H321.118C321.118 187.096 321.39 186.84 321.934 186.392C322.478 185.912 323.23 185.48 324.19 185.096C325.15 184.68 326.302 184.472 327.646 184.472C330.494 184.472 332.734 185.56 334.366 187.736C335.998 189.912 336.814 192.84 336.814 196.52C336.814 199.112 336.43 201.4 335.662 203.384C334.894 205.336 333.79 206.856 332.35 207.944C330.942 209 329.262 209.528 327.31 209.528C326.062 209.528 325.006 209.384 324.142 209.096C323.278 208.84 322.622 208.568 322.174 208.28C321.726 207.96 321.502 207.768 321.502 207.704H321.358V221L314.974 221.192V185ZM324.91 205.88C326.126 205.88 327.086 205.592 327.79 205.016C328.526 204.44 329.07 203.496 329.422 202.184C329.774 200.84 329.95 199 329.95 196.664C329.95 194.456 329.774 192.744 329.422 191.528C329.102 190.28 328.606 189.416 327.934 188.936C327.294 188.456 326.446 188.216 325.39 188.216C324.622 188.216 323.934 188.36 323.326 188.648C322.75 188.936 322.286 189.24 321.934 189.56C321.614 189.88 321.422 190.12 321.358 190.28V204.296C321.422 204.392 321.582 204.568 321.838 204.824C322.094 205.048 322.478 205.288 322.99 205.544C323.534 205.768 324.174 205.88 324.91 205.88ZM341.13 185H347.514V193.256H349.77C356.842 193.256 360.378 195.784 360.378 200.84C360.378 203.624 359.498 205.688 357.738 207.032C356.01 208.344 353.354 209 349.77 209H341.13V185ZM363.498 209V185H369.882V209H363.498ZM349.482 206.12C350.826 206.12 351.834 205.752 352.506 205.016C353.21 204.248 353.562 202.856 353.562 200.84C353.562 199.016 353.194 197.768 352.458 197.096C351.722 196.424 350.73 196.088 349.482 196.088H347.514V206.12H349.482ZM375.63 209V185H382.014V205.496H387.678V185H394.062V205.496H399.678V185H406.062V209H375.63ZM424.099 209V185H443.971V209H437.587V188.504H430.483V209H424.099ZM449.786 185H454.922L455.786 187.16H455.93C455.93 187.096 456.202 186.84 456.746 186.392C457.29 185.912 458.042 185.48 459.002 185.096C459.962 184.68 461.114 184.472 462.458 184.472C465.306 184.472 467.546 185.56 469.178 187.736C470.81 189.912 471.626 192.84 471.626 196.52C471.626 199.112 471.242 201.4 470.474 203.384C469.706 205.336 468.602 206.856 467.162 207.944C465.754 209 464.074 209.528 462.122 209.528C460.874 209.528 459.818 209.384 458.954 209.096C458.09 208.84 457.434 208.568 456.986 208.28C456.538 207.96 456.314 207.768 456.314 207.704H456.17V221L449.786 221.192V185ZM459.722 205.88C460.938 205.88 461.898 205.592 462.602 205.016C463.338 204.44 463.882 203.496 464.234 202.184C464.586 200.84 464.762 199 464.762 196.664C464.762 194.456 464.586 192.744 464.234 191.528C463.914 190.28 463.418 189.416 462.746 188.936C462.106 188.456 461.258 188.216 460.202 188.216C459.434 188.216 458.746 188.36 458.138 188.648C457.562 188.936 457.098 189.24 456.746 189.56C456.426 189.88 456.234 190.12 456.17 190.28V204.296C456.234 204.392 456.394 204.568 456.65 204.824C456.906 205.048 457.29 205.288 457.802 205.544C458.346 205.768 458.986 205.88 459.722 205.88ZM475.943 209V185H482.327V200.792L491.111 185H496.679V209H490.295V192.248L480.935 209H475.943ZM508.667 209.528C506.523 209.528 504.795 209.256 503.483 208.712C502.203 208.136 501.291 207.544 500.747 206.936C500.203 206.296 499.931 205.896 499.931 205.736L501.707 203.432C501.707 203.528 501.947 203.832 502.427 204.344C502.907 204.824 503.595 205.288 504.491 205.736C505.387 206.152 506.475 206.36 507.755 206.36C509.227 206.36 510.379 205.976 511.211 205.208C512.043 204.408 512.459 203.256 512.459 201.752C512.459 200.504 512.123 199.592 511.451 199.016C510.779 198.44 509.883 198.152 508.763 198.152L504.731 198.392V195.128L509.051 195.32H509.339C509.979 195.224 510.555 194.872 511.067 194.264C511.611 193.656 511.883 192.712 511.883 191.432C511.883 190.088 511.563 189.128 510.923 188.552C510.283 187.944 509.275 187.64 507.899 187.64C507.163 187.64 506.379 187.784 505.547 188.072C504.715 188.328 503.995 188.6 503.387 188.888C502.779 189.176 502.395 189.368 502.235 189.464L501.659 186.344C501.851 186.248 502.315 186.056 503.051 185.768C503.787 185.448 504.683 185.16 505.739 184.904C506.827 184.616 507.867 184.472 508.859 184.472C512.059 184.472 514.427 185.048 515.963 186.2C517.499 187.32 518.267 188.904 518.267 190.952C518.267 193.448 516.971 195.256 514.379 196.376C515.787 196.76 516.923 197.416 517.787 198.344C518.651 199.24 519.083 200.488 519.083 202.088C519.083 204.52 518.155 206.376 516.299 207.656C514.475 208.904 511.931 209.528 508.667 209.528ZM533.076 209.528C529.492 209.528 526.724 208.44 524.772 206.264C522.852 204.088 521.892 201 521.892 197C521.892 193 522.852 189.912 524.772 187.736C526.724 185.56 529.492 184.472 533.076 184.472C536.692 184.472 539.46 185.56 541.38 187.736C543.332 189.912 544.308 193 544.308 197C544.308 200.968 543.3 204.056 541.284 206.264C539.3 208.44 536.564 209.528 533.076 209.528ZM533.076 206.36C534.132 206.36 534.964 206.056 535.572 205.448C536.212 204.84 536.676 203.864 536.964 202.52C537.252 201.176 537.396 199.336 537.396 197C537.396 194.664 537.252 192.824 536.964 191.48C536.676 190.136 536.228 189.176 535.62 188.6C535.012 187.992 534.164 187.688 533.076 187.688C531.988 187.688 531.14 187.992 530.532 188.6C529.924 189.176 529.476 190.136 529.188 191.48C528.9 192.824 528.756 194.648 528.756 196.952C528.756 199.288 528.9 201.144 529.188 202.52C529.476 203.864 529.924 204.84 530.532 205.448C531.172 206.056 532.02 206.36 533.076 206.36ZM548.599 185H557.767C561.159 185 563.623 185.592 565.159 186.776C566.695 187.928 567.463 189.48 567.463 191.432C567.463 193.832 566.055 195.592 563.239 196.712C564.647 197.096 565.831 197.736 566.791 198.632C567.783 199.496 568.279 200.616 568.279 201.992C568.279 204.232 567.479 205.96 565.879 207.176C564.279 208.392 561.607 209 557.863 209H548.599V185ZM558.487 195.704C558.487 195.768 558.727 195.704 559.207 195.512C559.687 195.288 560.119 194.888 560.503 194.312C560.887 193.704 561.079 192.856 561.079 191.768C561.079 189.176 559.943 187.88 557.671 187.88H554.983V195.704H558.487ZM557.719 206.12C559.127 206.12 560.151 205.72 560.791 204.92C561.431 204.12 561.751 203.048 561.751 201.704C561.751 199.208 560.519 197.96 558.055 197.96H554.983V206.12H557.719Z" fill="white"/>
<path d="M120.784 329.352C117.648 329.352 115.259 328.413 113.616 326.536C111.973 324.637 111.152 322.045 111.152 318.76C111.152 316.584 111.525 314.675 112.272 313.032C113.019 311.389 114.107 310.12 115.536 309.224C116.965 308.328 118.661 307.88 120.624 307.88C121.605 307.88 122.565 308.008 123.504 308.264C124.464 308.499 125.285 308.765 125.968 309.064C126.672 309.341 127.024 309.491 127.024 309.512L126.576 311.848C126.427 311.763 126.064 311.603 125.488 311.368C124.912 311.112 124.219 310.867 123.408 310.632C122.619 310.397 121.872 310.28 121.168 310.28C119.973 310.28 119.003 310.547 118.256 311.08C117.509 311.613 116.944 312.488 116.56 313.704C116.197 314.92 116.016 316.552 116.016 318.6C116.016 321.608 116.453 323.752 117.328 325.032C118.203 326.312 119.557 326.952 121.392 326.952C122.416 326.952 123.312 326.739 124.08 326.312C124.869 325.864 125.499 325.384 125.968 324.872C126.459 324.339 126.704 324.04 126.704 323.976L128.112 325.512C128.112 325.619 127.824 326.003 127.248 326.664C126.693 327.325 125.872 327.944 124.784 328.52C123.696 329.075 122.363 329.352 120.784 329.352ZM134.486 329V310.504H128.886V308.2H144.502V310.504H138.934V329H134.486ZM145.546 329L152.458 308.2H157.354L163.818 329H159.146L157.354 323.176H150.122L148.234 329H145.546ZM150.762 321.16H156.746L153.898 311.368H153.834L150.762 321.16ZM166.87 308.2H173.238C175.606 308.2 177.441 308.797 178.742 309.992C180.065 311.165 180.726 312.915 180.726 315.24C180.726 316.904 180.364 318.28 179.638 319.368C178.913 320.456 177.985 321.256 176.854 321.768C175.724 322.259 174.55 322.504 173.334 322.504H171.286V329H166.87V308.2ZM172.822 320.456C173.889 320.456 174.678 320.093 175.19 319.368C175.702 318.621 175.958 317.309 175.958 315.432C175.958 313.533 175.702 312.2 175.19 311.432C174.678 310.664 173.889 310.28 172.822 310.28H171.286V320.456H172.822ZM187.517 329V310.504H181.917V308.2H197.533V310.504H191.965V329H187.517ZM203.633 329.352C203.014 329.352 202.47 329.288 202.001 329.16C201.531 329.053 201.169 328.936 200.913 328.808C200.678 328.68 200.529 328.595 200.465 328.552L201.041 325.864C201.105 325.907 201.243 325.981 201.457 326.088C201.67 326.195 201.969 326.301 202.353 326.408C202.737 326.493 203.163 326.536 203.633 326.536C204.443 326.536 205.126 326.387 205.681 326.088C206.235 325.789 206.769 325.213 207.281 324.36L198.705 308.2H203.889L209.521 319.784H209.617L213.393 308.2H216.337L210.801 322.6C209.862 324.989 208.817 326.717 207.665 327.784C206.513 328.829 205.169 329.352 203.633 329.352ZM219.495 329V308.2H231.975V310.504H223.911V317.352H231.015V319.592H223.911V326.696H232.423V329H219.495ZM239.861 329V310.504H234.261V308.2H249.877V310.504H244.309V329H239.861ZM269.029 329.352C266.021 329.352 263.695 328.403 262.053 326.504C260.431 324.584 259.621 321.96 259.621 318.632C259.621 315.304 260.431 312.68 262.053 310.76C263.695 308.84 266.021 307.88 269.029 307.88C272.058 307.88 274.394 308.851 276.037 310.792C277.701 312.712 278.533 315.325 278.533 318.632C278.533 321.939 277.701 324.552 276.037 326.472C274.394 328.392 272.058 329.352 269.029 329.352ZM269.029 327.08C270.671 327.08 271.845 326.419 272.549 325.096C273.274 323.752 273.637 321.597 273.637 318.632C273.637 315.688 273.274 313.544 272.549 312.2C271.823 310.856 270.65 310.184 269.029 310.184C267.429 310.184 266.266 310.856 265.541 312.2C264.837 313.544 264.485 315.688 264.485 318.632C264.485 321.597 264.837 323.752 265.541 325.096C266.245 326.419 267.407 327.08 269.029 327.08ZM290.472 329.352C287.336 329.352 284.946 328.413 283.304 326.536C281.661 324.637 280.84 322.045 280.84 318.76C280.84 316.584 281.213 314.675 281.96 313.032C282.706 311.389 283.794 310.12 285.224 309.224C286.653 308.328 288.349 307.88 290.312 307.88C291.293 307.88 292.253 308.008 293.192 308.264C294.152 308.499 294.973 308.765 295.656 309.064C296.36 309.341 296.712 309.491 296.712 309.512L296.264 311.848C296.114 311.763 295.752 311.603 295.176 311.368C294.6 311.112 293.906 310.867 293.096 310.632C292.306 310.397 291.56 310.28 290.856 310.28C289.661 310.28 288.69 310.547 287.944 311.08C287.197 311.613 286.632 312.488 286.248 313.704C285.885 314.92 285.704 316.552 285.704 318.6C285.704 321.608 286.141 323.752 287.016 325.032C287.89 326.312 289.245 326.952 291.08 326.952C292.104 326.952 293 326.739 293.768 326.312C294.557 325.864 295.186 325.384 295.656 324.872C296.146 324.339 296.392 324.04 296.392 323.976L297.8 325.512C297.8 325.619 297.512 326.003 296.936 326.664C296.381 327.325 295.56 327.944 294.472 328.52C293.384 329.075 292.05 329.352 290.472 329.352ZM300.589 329V308.2H313.069V310.504H305.005V317.352H312.109V319.592H305.005V326.696H313.517V329H300.589ZM317.37 329V308.2H321.786V317.288H328.986V308.2H333.402V329H328.986V319.528H321.786V329H317.37ZM338.339 308.2H342.755V316.168H344.259C346.883 316.168 348.899 316.68 350.307 317.704C351.715 318.728 352.419 320.264 352.419 322.312C352.419 324.445 351.736 326.099 350.371 327.272C349.027 328.424 347.032 329 344.387 329H338.339V308.2ZM344.291 326.92C345.55 326.92 346.456 326.579 347.011 325.896C347.566 325.192 347.843 324.04 347.843 322.44C347.843 320.861 347.555 319.763 346.979 319.144C346.403 318.504 345.496 318.184 344.259 318.184H342.755V326.92H344.291ZM372.443 329.352C369.605 329.352 367.376 328.499 365.755 326.792C364.155 325.085 363.269 322.728 363.099 319.72H360.443V329H356.027V308.2H360.443V317.48H363.099C363.269 314.493 364.155 312.147 365.755 310.44C367.376 308.733 369.605 307.88 372.443 307.88C374.448 307.88 376.165 308.317 377.595 309.192C379.024 310.067 380.101 311.315 380.827 312.936C381.573 314.557 381.947 316.456 381.947 318.632C381.947 321.939 381.115 324.552 379.451 326.472C377.787 328.392 375.451 329.352 372.443 329.352ZM372.443 327.176C374.064 327.176 375.237 326.483 375.963 325.096C376.688 323.709 377.051 321.555 377.051 318.632C377.051 315.731 376.677 313.576 375.931 312.168C375.205 310.76 374.043 310.056 372.443 310.056C370.843 310.056 369.659 310.771 368.891 312.2C368.144 313.608 367.771 315.752 367.771 318.632C367.771 321.533 368.144 323.688 368.891 325.096C369.637 326.483 370.821 327.176 372.443 327.176ZM392.338 325.704C393.341 325.32 394.493 324.584 395.794 323.496C397.095 322.387 398.226 321.032 399.186 319.432C400.146 317.811 400.626 316.093 400.626 314.28C400.626 312.723 400.391 311.667 399.922 311.112C399.453 310.536 398.674 310.248 397.586 310.248C397.095 310.248 396.541 310.365 395.922 310.6C395.325 310.835 394.802 311.08 394.354 311.336C393.906 311.571 393.618 311.731 393.49 311.816L393.042 309.576C393.042 309.555 393.33 309.395 393.906 309.096C394.482 308.797 395.165 308.52 395.954 308.264C396.743 308.008 397.543 307.88 398.354 307.88C400.637 307.88 402.365 308.445 403.538 309.576C404.733 310.685 405.33 312.157 405.33 313.992C405.33 316.083 404.541 318.067 402.962 319.944C401.383 321.821 399.495 323.507 397.298 325H405.618V329H392.338V325.704ZM416.03 329.352C410.782 329.352 408.158 325.789 408.158 318.664C408.158 311.475 410.782 307.88 416.03 307.88C421.257 307.88 423.87 311.475 423.87 318.664C423.87 322.12 423.241 324.765 421.982 326.6C420.745 328.435 418.761 329.352 416.03 329.352ZM416.03 327.144C416.841 327.144 417.459 326.899 417.886 326.408C418.334 325.917 418.643 325.075 418.814 323.88C419.006 322.664 419.102 320.925 419.102 318.664C419.102 316.381 419.006 314.632 418.814 313.416C418.643 312.2 418.334 311.347 417.886 310.856C417.459 310.344 416.841 310.088 416.03 310.088C415.219 310.088 414.59 310.344 414.142 310.856C413.715 311.347 413.406 312.2 413.214 313.416C413.043 314.632 412.958 316.381 412.958 318.664C412.958 320.947 413.043 322.685 413.214 323.88C413.406 325.075 413.715 325.917 414.142 326.408C414.59 326.899 415.219 327.144 416.03 327.144ZM426.369 325.704C427.372 325.32 428.524 324.584 429.825 323.496C431.127 322.387 432.257 321.032 433.217 319.432C434.177 317.811 434.657 316.093 434.657 314.28C434.657 312.723 434.423 311.667 433.953 311.112C433.484 310.536 432.705 310.248 431.617 310.248C431.127 310.248 430.572 310.365 429.953 310.6C429.356 310.835 428.833 311.08 428.385 311.336C427.937 311.571 427.649 311.731 427.521 311.816L427.073 309.576C427.073 309.555 427.361 309.395 427.937 309.096C428.513 308.797 429.196 308.52 429.985 308.264C430.775 308.008 431.575 307.88 432.385 307.88C434.668 307.88 436.396 308.445 437.569 309.576C438.764 310.685 439.361 312.157 439.361 313.992C439.361 316.083 438.572 318.067 436.993 319.944C435.415 321.821 433.527 323.507 431.329 325H439.649V329H426.369V325.704ZM450.573 323.912H441.965L441.741 322.024C442.68 320.317 443.64 318.088 444.621 315.336C445.624 312.563 446.36 310.013 446.829 307.688L450.893 308.2C450.381 310.44 449.56 312.648 448.429 314.824C447.32 317 446.019 319.293 444.525 321.704H450.573L451.725 311.336H454.925V321.704H456.973V323.528L454.925 323.912V329H450.573V323.912Z" fill="#F9EB40"/>
<rect x="85.5" y="279.5" width="400" height="76" stroke="#FFF500"/>
</svg>
