<svg width="306" height="445" viewBox="0 0 306 445" fill="none" xmlns="http://www.w3.org/2000/svg">
<circle cx="289.5" cy="99.5" r="5.5" fill="white" fill-opacity="0.72"/>
<circle cx="270" cy="63" r="9" fill="white" fill-opacity="0.72"/>
<circle cx="240.5" cy="15.5" r="15.5" fill="white" fill-opacity="0.72"/>
<circle cx="300.5" cy="14.5" r="5.5" fill="white" fill-opacity="0.72"/>
<circle cx="241" cy="129" r="11" fill="white" fill-opacity="0.72"/>
<path d="M78.5627 157.894H283.671L252.116 437.388H113.405L78.5627 157.894Z" stroke="white" stroke-width="15" stroke-miterlimit="22.9256"/>
<path fill-rule="evenodd" clip-rule="evenodd" d="M197.267 203.838L225.009 196.872C228.34 196.037 231.758 198.081 232.591 201.421L239.538 229.238C240.37 232.578 238.332 236.006 235.002 236.841L207.259 243.806C203.929 244.641 200.51 242.598 199.677 239.258L192.731 211.44C191.898 208.079 193.936 204.673 197.267 203.838ZM128.963 271.206L145.201 247.586C147.151 244.751 151.052 244.026 153.879 245.982L177.435 262.263C180.262 264.219 180.985 268.13 179.035 270.965L162.797 294.585C160.847 297.42 156.947 298.145 154.12 296.189L130.563 279.93C127.736 277.974 127.013 274.041 128.963 271.206ZM187.231 303.77L207.566 283.599C209.999 281.182 213.987 281.204 216.397 283.643L236.514 304.034C238.924 306.473 238.902 310.472 236.47 312.889L216.134 333.06C213.702 335.477 209.714 335.455 207.303 333.016L187.187 312.625C184.776 310.186 184.798 306.209 187.231 303.77ZM152.936 354.505L181.446 352.286C184.864 352.022 187.888 354.615 188.151 358.043L190.364 386.63C190.627 390.057 188.041 393.09 184.623 393.353L156.114 395.572C152.695 395.836 149.671 393.243 149.408 389.816L147.195 361.229C146.932 357.801 149.518 354.769 152.936 354.505ZM100.98 177.009C151.6 210.627 207.479 171.076 260.728 177.009L236.141 417.216H128.109L100.98 177.009Z" fill="white"/>
<path fill-rule="evenodd" clip-rule="evenodd" d="M77.288 157.618L84.6728 222.613L70.1443 221.998C30.9415 220.306 0 187.874 0 148.521C0 107.915 32.8261 75 73.3217 75C112.218 75 144.43 105.52 146.534 144.478L147.235 157.618H77.288ZM70.3196 151.399L77.6606 216.087L70.4073 215.78C34.5353 214.242 6.20145 184.556 6.20145 148.543C6.20145 111.387 36.2445 81.2403 73.3217 81.2403C108.931 81.2403 138.404 109.19 140.332 144.83L140.683 151.399H70.3196Z" fill="white"/>
<path fill-rule="evenodd" clip-rule="evenodd" d="M73.3217 87.459C105.841 87.459 132.4 112.991 134.131 145.16H63.3731L70.6702 209.54C38.2605 208.156 12.4248 181.371 12.4248 148.521C12.4248 114.793 39.6849 87.459 73.3217 87.459Z" fill="white"/>
</svg>
