<svg width="13" height="10" viewBox="0 0 13 10" fill="none" xmlns="http://www.w3.org/2000/svg">
<path d="M4.75001 10C4.63889 9.99963 4.52902 9.97586 4.42725 9.93015C4.32547 9.88444 4.23396 9.81778 4.15839 9.7343L0.219678 5.44166C0.072444 5.28091 -0.00642895 5.06682 0.000410417 4.84648C0.00379693 4.73739 0.0281245 4.63004 0.0720041 4.53058C0.115884 4.43111 0.178456 4.34148 0.256148 4.26679C0.33384 4.1921 0.425131 4.13382 0.524808 4.09527C0.624486 4.05673 0.730597 4.03867 0.837084 4.04214C1.05214 4.04915 1.25568 4.1434 1.40291 4.30415L4.74191 7.94916L11.5577 0.310412C11.6268 0.22217 11.7129 0.149346 11.8105 0.0964136C11.9082 0.043481 12.0153 0.0115572 12.1254 0.00260293C12.2356 -0.0063513 12.3463 0.00785317 12.4509 0.0443437C12.5554 0.0808342 12.6516 0.13884 12.7335 0.2148C12.8154 0.290759 12.8813 0.383067 12.9271 0.486056C12.9729 0.589044 12.9976 0.700538 12.9998 0.813688C13.002 0.926839 12.9817 1.03926 12.9399 1.14404C12.8982 1.24882 12.836 1.34376 12.7571 1.42301L5.34973 9.726C5.27488 9.81099 5.18369 9.8792 5.08187 9.92635C4.98006 9.9735 4.86984 9.99858 4.75811 10H4.75001Z" fill="#0D624B"/>
</svg>
