<svg width="47" height="46" viewBox="0 0 47 46" fill="none" xmlns="http://www.w3.org/2000/svg">
<path d="M23.0062 43.366C23.0062 43.6531 22.6672 44.134 22.0157 44.7727C22.0822 44.0622 22.3415 43.1364 22.7802 43.1364C22.9863 43.1507 23.0062 43.2512 23.0062 43.366ZM21.1383 41.4426V41.4498C21.1383 42.268 20.5599 43.0861 19.8952 43.8612C20.0348 43.4306 20.181 43.0144 20.2675 42.7201C20.4336 42.1316 20.6862 41.0909 20.9721 41.0191C21.0253 41.0479 21.0652 41.0909 21.0984 41.1555C21.1383 41.2488 21.1383 41.3708 21.1383 41.4426ZM18.7319 41.4426V41.4498C18.7319 42.268 18.1536 43.0861 17.4888 43.8612C17.6218 43.4306 17.7747 43.0144 17.8611 42.7201C18.0273 42.1316 18.2799 41.0909 18.5657 41.0191C18.6189 41.0479 18.6588 41.0909 18.6854 41.1555C18.7319 41.2488 18.7319 41.3708 18.7319 41.4426ZM12.6428 42.0024C12.5697 42.0024 12.5564 41.9737 12.5564 41.9235C12.5564 41.8158 12.696 41.622 12.9287 41.4354C12.8821 41.8301 12.7159 42.0024 12.6428 42.0024ZM38.9003 44.0048L38.8471 44.0694C38.5015 44.5215 37.7171 45.5622 37.3315 45.6627C37.1919 45.6627 37.1387 45.5694 37.1387 45.3899C37.1387 44.8947 37.5641 44.2919 37.5641 43.6244C37.5641 43.0718 37.0589 42.9928 36.8196 42.9928H36.813C36.813 42.9928 36.813 42.9928 36.8063 42.9928C36.7931 42.9928 36.7864 42.9928 36.7798 42.9928V43C36.3144 43.0215 35.9289 43.7177 35.5766 44.5933L35.5566 44.5431C35.6297 44.1986 35.7826 43.4019 35.2575 43.1292C35.2575 43.1292 35.2243 43.0933 35.211 43.1507C35.1445 43.3589 35.0647 43.6316 34.9916 43.9187C34.6459 44.2632 34.4332 44.3421 34.3867 44.3421C34.1008 44.3421 33.928 44.0478 33.6089 43.4809L33.5225 43.5239C33.589 43.7177 33.5823 43.8828 33.5823 44.0048C33.5823 44.0263 33.5823 44.0478 33.5823 44.0622C33.5823 45.0742 33.0572 45.6053 32.6317 45.7703C32.2063 45.799 32.1398 45.4258 32.1398 44.9809C32.1398 44.256 32.5187 43.122 33.0239 43.122C33.2367 43.1364 33.3164 43.2225 33.3696 43.2799C33.3829 43.2943 33.3962 43.3086 33.4161 43.323L33.476 43.2368C33.4693 43.2297 33.456 43.2153 33.4427 43.201C33.3763 43.1292 33.2632 43.0144 32.9508 43.0144C32.2329 43.0144 31.5083 43.5167 31.4751 44.6292C31.0696 45.0957 30.4647 45.756 30.1921 45.756C30.1323 45.756 29.9993 45.7488 29.9993 45.2321C29.9993 44.8301 30.1323 44.1268 30.458 43.2297C30.458 43.2297 30.4713 43.1507 30.3716 43.1507C30.1124 43.1507 29.554 43.5885 29.4343 44.3206C29.3213 44.4426 29.2016 44.579 29.0753 44.7225C28.6765 45.189 28.2245 45.7129 27.7857 45.7129C27.5265 45.7129 27.4733 45.433 27.4733 44.9737C27.4733 44.3995 27.7458 43.323 28.1513 42.2895C28.6964 42.2177 29.0953 42.0814 29.4609 41.9665C29.9262 41.8158 30.3317 41.6866 30.93 41.6866C31.2424 41.6866 31.4152 41.7727 31.4152 41.8517C31.4152 41.9163 31.3887 41.9809 31.1892 41.9809V42.0885C31.269 42.0885 31.515 42.0885 31.515 41.8517C31.515 41.6507 31.2158 41.5861 30.93 41.5861C30.3118 41.5861 29.8797 41.7225 29.4277 41.8732C29.082 41.988 28.7031 42.11 28.1912 42.1818C28.2976 41.9163 28.4172 41.6435 28.5369 41.3923L28.6233 41.2058C28.5568 41.1699 28.4704 41.1412 28.4638 41.1412H28.4571C28.1181 41.1412 27.7658 41.6148 27.4733 42.2464C27.3669 42.2536 27.2539 42.2536 27.1343 42.2536C26.6091 42.2536 26.423 42.0885 26.423 41.9306C26.423 41.8517 26.4562 41.7871 26.5227 41.7512C26.649 41.6651 26.8551 41.6938 26.9216 41.7297L26.9681 41.6364C26.875 41.579 26.6291 41.5574 26.4762 41.6579C26.3831 41.7153 26.3299 41.8086 26.3299 41.9306C26.3299 42.0311 26.3898 42.3612 27.1409 42.3612C27.2406 42.3612 27.3404 42.3613 27.4334 42.3541C27.1875 42.9067 26.9814 43.5526 26.8617 44.0981C26.669 44.2919 26.4961 44.5072 26.3233 44.7225C25.9377 45.2034 25.5655 45.6699 25.0802 45.7703C24.7944 45.7775 24.7213 45.5191 24.7213 45.1818C24.7213 43.8397 25.3926 42.9857 25.7848 43.0861C25.9776 43.1435 26.0574 43.244 26.1239 43.3445L26.2036 43.2871C26.0773 43.079 25.9045 42.9426 25.4458 42.9426C25.0337 42.9426 24.2825 43.4163 24.0831 44.2919C24.0166 44.3708 23.9435 44.4641 23.8637 44.5646C23.5247 44.988 23.0793 45.5479 22.5276 45.7345C22.1154 45.8278 22.0091 45.4761 22.0091 45.0957C22.0091 45.0454 22.0091 44.988 22.0157 44.9234C22.7403 44.2201 23.1126 43.6962 23.1126 43.366C23.1126 43.122 22.9929 43.0215 22.727 43.0215C22.2684 43.0215 21.6701 43.7392 21.3975 44.3924C21.3045 44.5 21.2114 44.6077 21.125 44.7153C20.7394 45.1746 20.3938 45.5837 20.0614 45.7129C19.6492 45.7775 19.616 45.512 19.616 45.1962C19.616 44.9091 19.7091 44.5072 19.8354 44.0981C20.5732 43.2584 21.2513 42.3684 21.2513 41.4498V41.4426C21.2513 41.3636 21.2513 41.2273 21.1981 41.1053C21.1316 40.9545 20.9987 40.8684 20.8192 40.8684C20.2076 40.8684 19.2172 42.6124 19.0909 44.2847C18.9646 44.4282 18.8383 44.5718 18.7186 44.7153C18.3331 45.1746 17.994 45.5837 17.655 45.7129C17.2429 45.7775 17.2096 45.512 17.2096 45.1962C17.2096 44.9091 17.3093 44.5072 17.429 44.0981C18.1669 43.2584 18.8449 42.3684 18.8449 41.4498V41.4426C18.8449 41.3636 18.8449 41.2273 18.7917 41.1053C18.7252 40.9545 18.5923 40.8684 18.4128 40.8684C17.8145 40.8684 16.8573 42.5263 16.6978 44.1555C16.505 44.3062 16.3853 44.3493 16.3521 44.3493C16.0663 44.3493 15.8934 44.055 15.5743 43.488L15.4879 43.5311C15.5544 43.7249 15.5478 43.89 15.5478 44.012C15.5478 44.0335 15.5478 44.055 15.5478 44.0694C15.5478 45.0813 15.0226 45.6124 14.5972 45.7775C14.1717 45.8062 14.1053 45.433 14.1053 44.988C14.1053 44.2632 14.4842 43.1292 14.9894 43.1292C15.2021 43.1435 15.2819 43.2297 15.335 43.2871C15.3483 43.3014 15.3616 43.3158 15.3816 43.3301L15.4414 43.244C15.4347 43.2368 15.4215 43.2225 15.4082 43.2081C15.3417 43.1364 15.2287 43.0215 14.9163 43.0215C14.3113 43.0215 13.7064 43.3732 13.5003 44.1483C13.4538 44.2058 13.4006 44.2703 13.3474 44.3421C12.8555 44.9593 12.111 45.8995 11.0341 45.8995C11.0075 45.8995 10.9809 45.8995 10.9544 45.8923C10.1168 45.8493 9.78442 45.1531 9.78442 44.0837C9.78442 42.2177 10.8081 40.1148 11.8185 40.1077C12.5431 40.1723 12.9685 40.689 12.9685 41.1842C12.9685 41.2201 12.9685 41.256 12.9685 41.2919C12.6827 41.5 12.4833 41.744 12.4833 41.9163C12.4833 41.988 12.5099 42.1029 12.6694 42.1029C12.8223 42.1029 13.0284 41.8445 13.0616 41.3493C13.2278 41.2345 13.4272 41.1196 13.6466 41.0479L13.6133 40.9474C13.4206 41.012 13.2344 41.1125 13.0616 41.2273V41.1914C13.0616 40.5239 12.4434 40 11.6524 40C10.5422 40 9 41.4067 9 43.689C9 45.189 10.0503 46 11.0341 46C12.1575 46 12.9486 45.0024 13.4206 44.4067C13.4339 44.3923 13.4472 44.378 13.4538 44.3636C13.4339 44.4785 13.4272 44.5933 13.4272 44.7225C13.4272 45.555 13.8925 45.9426 14.3246 45.9426C14.7833 45.9426 15.6475 45.39 15.6475 44.0766C15.6475 44.0622 15.6475 44.0407 15.6475 44.0191C15.6475 43.9617 15.6475 43.89 15.6408 43.811C15.8668 44.2058 16.0596 44.4569 16.3521 44.4569C16.4053 44.4569 16.5183 44.4139 16.6845 44.299C16.6778 44.4067 16.6712 44.5144 16.6712 44.6292C16.6712 45.4402 16.9371 45.8708 17.4423 45.8708C17.8943 45.8708 18.3131 45.3756 18.7917 44.7943C18.8848 44.6794 18.9778 44.5718 19.0776 44.4569C19.0776 44.5144 19.0709 44.5718 19.0709 44.6292C19.0709 45.4402 19.3368 45.8708 19.842 45.8708C20.294 45.8708 20.7128 45.3756 21.1914 44.7943C21.2247 44.7512 21.2646 44.7081 21.2978 44.6651C21.2646 44.7871 21.2446 44.9019 21.2446 45.0024C21.2446 45.6698 21.71 45.9139 22.142 45.9139C22.9264 45.9139 23.538 45.1459 23.9368 44.6364C23.9767 44.5861 24.01 44.5431 24.0499 44.5C24.0432 44.5861 24.0299 44.6723 24.0299 44.7656C24.0299 45.4689 24.349 45.9067 24.8675 45.9067C25.5123 45.9067 25.9643 45.3397 26.4031 44.7943C26.5427 44.622 26.6823 44.4498 26.8285 44.2919C26.7753 44.5718 26.7421 44.8158 26.7421 44.988C26.7421 45.5766 27.0678 45.8349 27.7924 45.8349C28.2777 45.8349 28.743 45.2895 29.1551 44.8086C29.2482 44.701 29.3346 44.6005 29.421 44.5072C29.421 44.5431 29.4144 44.5861 29.4144 44.6292C29.4144 45.5191 30.0858 45.8852 30.1988 45.8852C30.4846 45.8852 30.9765 45.3828 31.4817 44.8014C31.5083 45.5909 31.9603 45.9498 32.3791 45.9498C32.8378 45.9498 33.702 45.3971 33.702 44.0837C33.702 44.0694 33.702 44.0479 33.702 44.0263C33.702 43.9689 33.702 43.8971 33.6953 43.8182C33.928 44.2129 34.1141 44.4641 34.4066 44.4641C34.4797 44.4641 34.6725 44.3852 34.965 44.1196C34.7855 44.8373 34.6326 45.6124 34.6393 45.8206C34.8786 45.8278 35.2375 45.8493 35.2375 45.8493L35.2774 45.7488C35.7494 44.4569 36.2347 43.1148 36.8329 43.1148C36.9127 43.1148 36.9326 43.1507 36.9393 43.1579C37.0058 43.2584 36.8994 43.567 36.793 43.8971C36.6667 44.2775 36.5006 44.7584 36.5006 45.1962C36.5006 45.7057 36.7465 45.7919 37.2983 45.7919C37.6506 45.7919 38.2954 45.0024 38.9468 44.1483L39 44.0766L38.9003 44.0048Z" fill="#236B66"/>
<path d="M20.901 1.66964C20.9146 2.32942 22.0171 2.1813 21.602 2.969C19.3834 3.1575 16.6476 3.58164 14.885 8.35492C13.2857 8.16642 12.7617 8.85986 13.102 9.76873C13.694 11.3441 13.8506 11.6336 13.4695 12.6367C13.4695 12.6367 11.1352 9.11568 7.57592 8.81272C4.01666 8.50976 -0.815216 10.0044 0.117132 17.41C0.620737 21.4091 4.13235 23.7721 5.32331 24.8022C6.26247 25.6101 6.95661 25.9467 7.54188 27.1787C8.38576 28.9763 9.71965 30.9623 12.5167 31.8712C14.4018 32.4839 13.3197 32.834 13.6396 33.3928C14.2044 34.3622 15.0755 35.9241 23.0039 35.9982C30.0476 36.0655 32.9739 34.2343 32.4159 32.8945C31.9599 31.7972 33.3482 32.0328 33.9063 31.8712C37.0844 30.9623 38.1801 29.1648 39.3779 27.1383C40.5756 25.1119 41.6713 19.0797 42.7466 15.7875C43.8218 12.4954 45.6525 12.3742 46.8434 12.0645C46.8434 12.0645 46.9864 11.9635 47 11.7279V11.6673C46.9864 11.398 46.8094 10.9806 46.1493 10.3881C45.2306 9.56675 43.3182 9.36479 42.733 9.62062C41.3038 10.24 39.0036 12.0106 36.4787 16.7233C34.7093 20.0155 32.1096 15.4374 31.885 13.963C31.6537 12.4819 31.5584 11.5865 32.0484 10.6776C32.3002 10.2131 33.0011 9.26379 32.4431 8.79253C31.8374 8.28086 30.8438 8.23374 30.5444 8.39532C29.1697 2.97573 24.0043 2.97573 24.0043 2.97573C24.0043 2.97573 23.5279 2.45059 24.2425 2.09377C24.7529 1.83794 24.9435 1.03678 23.6096 0.242357C23.3238 0.0740466 23.0379 0 22.7589 0C21.7313 0.00673241 20.8874 0.982939 20.901 1.66964ZM2.41736 17.41C1.41015 12.9599 4.48624 10.9873 6.56191 10.9469C8.31772 10.9132 10.0735 11.8962 10.9787 14.1583C10.7881 14.9863 10.8289 15.5586 11.2509 16.279C11.2917 16.353 11.1352 17.0195 10.3934 18.0159C9.39297 19.349 7.15398 19.598 7.32412 22.5536C7.32412 22.5468 3.27485 21.1936 2.41736 17.41Z" fill="#236B66"/>
</svg>
