<svg width="382" height="510" viewBox="0 0 382 510" fill="none" xmlns="http://www.w3.org/2000/svg">
<g clip-path="url(#clip0_125_784)">
<path d="M86.1362 90.5281L55.341 9.39414C49.2097 -2.58612 26.7851 -12.1573 14.3376 -5.32958C9.8089 -2.81813 7.13064 1.14572 7.83527 7.77592C9.70743 13.3936 13.195 16.52 17.6641 18.1021C37.8371 22.0944 56.376 -6.21665 81.4423 -8.30112L96.021 -8.45688M86.1362 90.5281L31.631 85.2211L55.3443 9.4031L122.374 50.5747L86.1362 90.5281ZM110.525 -19.3337L133.67 -10.7112L120.708 17.6827L97.5624 9.06025L92.4299 0.191349L99.9618 -16.3083L110.525 -19.3337Z" stroke="url(#paint0_linear_125_784)" stroke-miterlimit="22.9256"/>
<path d="M213.491 126.593L197.65 41.2692C193.753 28.388 173.393 14.9731 159.928 19.4729C155.024 21.137 151.682 24.56 151.194 31.2096C152.035 37.0711 154.909 40.769 159.025 43.1224C178.163 50.6462 201.451 26.0929 226.488 28.5095L240.861 30.9547M213.491 126.593L160.805 111.656L197.652 41.2786L256.27 93.738L213.491 126.593ZM257.071 22.8371L278.309 35.4468L260.493 61.0758L239.255 48.466L235.786 38.8244L246.138 23.9314L257.071 22.8371Z" stroke="url(#paint1_linear_125_784)" stroke-miterlimit="22.9256"/>
<path d="M328.078 84.5549L356.087 2.41727C359.002 -10.7212 347.83 -32.3926 333.887 -35.0695C328.797 -36.0223 324.207 -34.6764 320.522 -29.1195C318.382 -23.5981 319.075 -18.966 321.51 -14.8976C334.504 1.04032 366.837 -8.9487 387.477 5.428L398.807 14.6036M328.078 84.5549L289.473 45.7135L356.083 2.42629L381.469 76.8818L328.078 84.5549ZM416.915 15.4722L429.247 36.8722L401.157 50.4809L388.825 29.0809L390.526 18.9761L406.849 11.0679L416.915 15.4722Z" stroke="url(#paint2_linear_125_784)" stroke-miterlimit="22.9256"/>
<path d="M299.228 153.301L353.428 221.076C360.625 232.448 357.463 256.623 345.254 263.869C340.788 266.491 336.013 266.782 330.663 262.803C326.778 258.334 325.859 253.742 326.77 249.089C333.591 229.689 367.396 228.123 381.937 207.6L389.485 195.126M299.228 153.301L276.08 202.931L353.422 221.068L352.058 142.416L299.228 153.301ZM406.226 188.17L410.572 163.856L379.532 160.577L375.186 184.891L380.213 193.821L398.25 195.726L406.226 188.17Z" stroke="url(#paint3_linear_125_784)" stroke-miterlimit="22.9256"/>
<path d="M55.1604 135.222L-3.04746 199.588C-13.1179 208.516 -37.488 209.271 -46.5976 198.381C-49.9019 194.394 -50.9541 189.727 -47.8851 183.808C-44.0971 179.257 -39.711 177.614 -34.9725 177.767C-14.7298 181.389 -7.76402 214.505 14.8252 225.568L28.3478 231.018M55.1604 135.222L2.46083 120.332L-3.0411 199.581L74.3748 185.623L55.1604 135.222ZM37.899 246.427L62.5951 246.818L60.8539 215.654L36.1578 215.263L28.1499 221.656L29.1613 239.765L37.899 246.427Z" stroke="url(#paint4_linear_125_784)" stroke-miterlimit="22.9256"/>
<path d="M67.8248 379.757L28.3786 302.458C23.6176 289.87 31.5821 266.826 44.9997 262.187C49.9016 260.517 54.6374 261.194 59.0775 266.168C61.9834 271.327 61.9584 276.011 60.13 280.385C49.5431 298.015 16.1154 292.743 -2.26021 309.919L-12.1646 320.618M67.8248 379.757L100.49 335.803L28.383 302.467L13.8856 379.783L67.8248 379.757ZM-29.9633 324.062L-39.1148 347.003L-9.37015 356.463L-0.218669 333.522L-3.34468 323.763L-20.629 318.266L-29.9633 324.062Z" stroke="url(#paint5_linear_125_784)" stroke-miterlimit="22.9256"/>
<path d="M305.869 398.591L331.965 315.826C334.575 302.623 322.903 281.217 308.902 278.864C303.792 278.029 299.233 279.481 295.679 285.122C293.667 290.692 294.468 295.306 296.996 299.317C310.357 314.95 342.449 304.214 363.416 318.108L374.956 327.018M305.869 398.591L266.374 360.655L331.962 315.835L359.067 389.682L305.869 398.591ZM393.08 327.466L405.905 348.575L378.138 362.831L365.313 341.723L366.779 331.581L382.914 323.297L393.08 327.466Z" stroke="url(#paint6_linear_125_784)" stroke-miterlimit="22.9256"/>
<path d="M59.8687 530.591L85.965 447.826C88.575 434.623 76.9031 413.217 62.9023 410.864C57.7915 410.029 53.2334 411.481 49.6785 417.122C47.6675 422.692 48.468 427.306 50.9957 431.317C64.3568 446.95 96.4495 436.214 117.416 450.108L128.956 459.018M59.8687 530.591L20.3737 492.655L85.962 447.835L113.067 521.682L59.8687 530.591ZM147.08 459.466L159.905 480.575L132.138 494.831L119.313 473.723L120.779 463.581L136.914 455.297L147.08 459.466Z" stroke="url(#paint7_linear_125_784)" stroke-miterlimit="22.9256"/>
<path d="M235.869 498.591L261.965 415.826C264.575 402.623 252.903 381.217 238.902 378.864C233.792 378.029 229.233 379.481 225.679 385.122C223.667 390.692 224.468 395.306 226.996 399.317C240.357 414.95 272.449 404.214 293.416 418.108L304.956 427.018M235.869 498.591L196.374 460.655L261.962 415.835L289.067 489.682L235.869 498.591ZM323.08 427.466L335.905 448.575L308.138 462.831L295.313 441.723L296.779 431.581L312.914 423.297L323.08 427.466Z" stroke="url(#paint8_linear_125_784)" stroke-miterlimit="22.9256"/>
</g>
<defs>
<linearGradient id="paint0_linear_125_784" x1="60.487" y1="-22.6047" x2="100.417" y2="85.2404" gradientUnits="userSpaceOnUse">
<stop offset="0.322917" stop-color="#00BD8D"/>
<stop offset="1" stop-color="#00392D"/>
</linearGradient>
<linearGradient id="paint1_linear_125_784" x1="208.417" y1="10.7" x2="228.486" y2="123.935" gradientUnits="userSpaceOnUse">
<stop offset="0.322917" stop-color="#00BD8D"/>
<stop offset="1" stop-color="#00392D"/>
</linearGradient>
<linearGradient id="paint2_linear_125_784" x1="380.454" y1="-18.9521" x2="342.451" y2="89.5873" gradientUnits="userSpaceOnUse">
<stop offset="0.322917" stop-color="#00BD8D"/>
<stop offset="1" stop-color="#00392D"/>
</linearGradient>
<linearGradient id="paint3_linear_125_784" x1="383.597" y1="232.917" x2="311.044" y2="143.693" gradientUnits="userSpaceOnUse">
<stop offset="0.322917" stop-color="#00BD8D"/>
<stop offset="1" stop-color="#00392D"/>
</linearGradient>
<linearGradient id="paint4_linear_125_784" x1="-9.89831" y1="231.266" x2="66.5383" y2="145.344" gradientUnits="userSpaceOnUse">
<stop offset="0.322917" stop-color="#00BD8D"/>
<stop offset="1" stop-color="#00392D"/>
</linearGradient>
<linearGradient id="paint5_linear_125_784" x1="1.21074" y1="284.786" x2="54.3172" y2="386.789" gradientUnits="userSpaceOnUse">
<stop offset="0.322917" stop-color="#00BD8D"/>
<stop offset="1" stop-color="#00392D"/>
</linearGradient>
<linearGradient id="paint6_linear_125_784" x1="355.83" y1="293.897" x2="320.355" y2="403.289" gradientUnits="userSpaceOnUse">
<stop offset="0.322917" stop-color="#00BD8D"/>
<stop offset="1" stop-color="#00392D"/>
</linearGradient>
<linearGradient id="paint7_linear_125_784" x1="109.83" y1="425.897" x2="74.3547" y2="535.289" gradientUnits="userSpaceOnUse">
<stop offset="0.322917" stop-color="#00BD8D"/>
<stop offset="1" stop-color="#00392D"/>
</linearGradient>
<linearGradient id="paint8_linear_125_784" x1="285.83" y1="393.897" x2="250.355" y2="503.289" gradientUnits="userSpaceOnUse">
<stop offset="0.322917" stop-color="#00BD8D"/>
<stop offset="1" stop-color="#00392D"/>
</linearGradient>
<clipPath id="clip0_125_784">
<rect width="382" height="510" rx="50" fill="white"/>
</clipPath>
</defs>
</svg>
