<svg width="100" height="100" viewBox="0 0 100 100" fill="none" xmlns="http://www.w3.org/2000/svg">
<circle cx="50" cy="50" r="48.5" stroke="white" stroke-width="3"/>
<path d="M74.36 29L67 36.1351L67.96 41.7838L78.52 51L91 38.5135L80.44 29.2973L74.36 29Z" fill="white"/>
<path d="M45.0281 85L44.6111 33.6873C43.6743 25.7852 33.2428 15.8738 24.9689 17.1042C21.9531 17.5671 19.6625 19.2152 18.6955 23.0364C18.5807 26.5359 19.868 28.9856 22.0135 30.7805C32.3423 37.136 48.3763 25.2434 62.6516 29.2339L70.7381 32.1408M45.0281 85L16 70.8666L44.6111 33.693L73.2221 70.2852L45.0281 85ZM80.9762 29.0872L92 38.6205L79.0301 51.704L68.0064 42.1707L66.985 36.199L74.5215 28.5961L80.9762 29.0872Z" stroke="white" stroke-width="3" stroke-miterlimit="22.9256"/>
<path fill-rule="evenodd" clip-rule="evenodd" d="M31.125 67.8993C30.2154 64.3067 31.7632 61.5358 34.6972 59.5005C35.6895 62.7543 35.1046 65.664 31.125 67.8993Z" fill="white"/>
<path fill-rule="evenodd" clip-rule="evenodd" d="M55.0394 67.2513C56.0984 63.6999 58.8471 62.113 62.4096 61.868C61.595 65.1708 59.6022 67.3701 55.0394 67.2513Z" fill="white"/>
<path fill-rule="evenodd" clip-rule="evenodd" d="M32.1372 70.0784C33.6573 66.6985 36.5919 65.4896 40.1554 65.7185C38.9107 68.8843 36.6441 70.8004 32.1372 70.0784Z" fill="white"/>
<path fill-rule="evenodd" clip-rule="evenodd" d="M30.322 72.5326C32.8395 71.3368 35.1097 72.0738 37.0397 73.941C34.7843 75.1483 32.5523 75.1419 30.322 72.5326Z" fill="white"/>
<path fill-rule="evenodd" clip-rule="evenodd" d="M23.6342 67.5815C26.3286 68.2942 27.586 70.3231 27.8538 72.9951C25.352 72.4604 23.6521 71.014 23.6342 67.5815Z" fill="white"/>
<path fill-rule="evenodd" clip-rule="evenodd" d="M41.6548 59.6352C40.8935 62.3162 38.8423 63.5368 36.1659 63.7563C36.7457 61.2646 38.2225 59.591 41.6548 59.6352Z" fill="white"/>
<path fill-rule="evenodd" clip-rule="evenodd" d="M41.8987 76.4227C39.791 78.2461 37.4064 78.1406 35.0486 76.8552C36.9008 75.0905 39.0538 74.502 41.8987 76.4227Z" fill="white"/>
<path fill-rule="evenodd" clip-rule="evenodd" d="M54.1372 73.0784C55.6573 69.6985 58.5919 68.4896 62.1554 68.7185C60.9107 71.8843 58.6441 73.8004 54.1372 73.0784Z" fill="white"/>
<path fill-rule="evenodd" clip-rule="evenodd" d="M29.4758 69.6146C26.5111 67.3909 25.9745 64.2627 26.9787 60.8359C29.7949 62.7441 31.1677 65.3754 29.4758 69.6146Z" fill="white"/>
<path fill-rule="evenodd" clip-rule="evenodd" d="M51.4758 72.6146C48.5111 70.3909 47.9745 67.2627 48.9787 63.8359C51.7949 65.7441 53.1677 68.3754 51.4758 72.6146Z" fill="white"/>
</svg>
