<svg width="100" height="100" viewBox="0 0 100 100" fill="none" xmlns="http://www.w3.org/2000/svg">
<circle cx="50" cy="50" r="48.5" stroke="white" stroke-width="3"/>
<path fill-rule="evenodd" clip-rule="evenodd" d="M51.1074 48.577C51.1074 44.2991 51.1074 40.0212 51.1074 35.7433C51.1074 34.2118 49.1074 34.2093 49.1074 35.7433C49.1074 40.0212 49.1074 44.2991 49.1074 48.577C49.1084 50.1073 51.1074 50.1097 51.1074 48.577Z" fill="white"/>
<path fill-rule="evenodd" clip-rule="evenodd" d="M57.4728 52.8907C55.8654 51.8981 54.2567 50.9045 52.6493 49.9119C51.3531 49.1109 50.1555 51.103 51.4456 51.9005C53.0542 52.893 54.6616 53.8867 56.269 54.8804C57.5652 55.6803 58.7629 53.6882 57.4728 52.8907Z" fill="white"/>
<path fill-rule="evenodd" clip-rule="evenodd" d="M51.0929 51.0621C51.0172 52.2893 48.9066 52.2981 48.9066 51.0621C48.9054 49.8251 51.0172 49.8372 51.0929 51.0621C51.1787 52.4458 53.6514 52.4546 53.5656 51.0621C53.4621 49.3742 52.0138 47.9453 49.9991 47.9453C48.0538 47.9453 46.4453 49.3709 46.4327 51.0621C46.4201 52.7214 47.9958 54.1062 49.8717 54.1735C51.9356 54.2462 53.4583 52.7887 53.5656 51.0621C53.6514 49.6719 51.1774 49.6763 51.0929 51.0621Z" fill="white"/>
<path fill-rule="evenodd" clip-rule="evenodd" d="M52 17.9659C52 16.9881 52 16.0115 52 15.0348C52 13.6562 49 13.654 49 15.0348C49 16.0115 49 16.9892 49 17.967C49.0015 19.3434 52 19.3456 52 17.9659Z" fill="white"/>
<path fill-rule="evenodd" clip-rule="evenodd" d="M49.1084 25.1193C49.1084 25.798 49.1084 26.4767 49.1084 27.1555C49.1084 27.8083 49.5189 28.3627 50.0003 28.3627C50.4845 28.3627 50.8922 27.8096 50.8922 27.1555C50.8922 26.4767 50.8922 25.798 50.8922 25.1193C50.8922 24.4664 50.4826 23.9121 50.0003 23.9121C49.5161 23.9109 49.1084 24.464 49.1084 25.1193Z" fill="white"/>
<path fill-rule="evenodd" clip-rule="evenodd" d="M35.8968 28.5174C36.2498 29.1431 36.6041 29.7687 36.957 30.3943C37.2869 30.9766 38.1096 31.2311 38.6782 30.856C39.2532 30.4769 39.4817 29.7202 39.13 29.0972C38.7757 28.4715 38.4228 27.8459 38.0698 27.2203C37.74 26.638 36.9172 26.3835 36.3486 26.7586C35.7723 27.1377 35.5452 27.8945 35.8968 28.5174Z" fill="white"/>
<path fill-rule="evenodd" clip-rule="evenodd" d="M26.5485 38.7111C27.1793 39.0641 27.8101 39.4184 28.4409 39.7715C29.0281 40.1001 29.8864 39.923 30.2143 39.3196C30.541 38.7188 30.377 37.9498 29.7488 37.598C29.118 37.245 28.4872 36.8906 27.8564 36.5376C27.2693 36.2077 26.411 36.3861 26.083 36.9895C25.7564 37.589 25.9204 38.3593 26.5485 38.7111Z" fill="white"/>
<path fill-rule="evenodd" clip-rule="evenodd" d="M23.5621 52.3959C24.242 52.3959 24.9219 52.3959 25.6018 52.3959C26.2557 52.3959 26.811 51.7815 26.811 51.0608C26.811 50.3359 26.257 49.7256 25.6018 49.7256C24.9219 49.7256 24.242 49.7256 23.5621 49.7256C22.9081 49.7256 22.3516 50.34 22.3516 51.0608C22.3528 51.7842 22.9056 52.3959 23.5621 52.3959Z" fill="white"/>
<path fill-rule="evenodd" clip-rule="evenodd" d="M27.8579 64.6906C28.4849 64.337 29.1118 63.9847 29.7388 63.6324C30.3223 63.3032 30.5773 62.4821 30.2014 61.9146C29.8216 61.3406 29.0632 61.1126 28.4389 61.4636C27.8119 61.8159 27.185 62.1695 26.558 62.5218C25.9744 62.8497 25.7207 63.6721 26.0953 64.2396C26.4752 64.8135 27.2336 65.0416 27.8579 64.6906Z" fill="white"/>
<path fill-rule="evenodd" clip-rule="evenodd" d="M38.0708 74.0205C38.4245 73.3909 38.7795 72.7614 39.1332 72.1318C39.4637 71.5459 39.285 70.6893 38.6805 70.362C38.0785 70.036 37.3081 70.1997 36.9557 70.8266C36.602 71.4561 36.2471 72.0857 35.8934 72.7152C35.5628 73.3012 35.7416 74.1577 36.3461 74.485C36.9467 74.811 37.7184 74.6474 38.0708 74.0205Z" fill="white"/>
<path fill-rule="evenodd" clip-rule="evenodd" d="M50.8922 77.0012C50.8922 76.3225 50.8922 75.6437 50.8922 74.965C50.8922 74.3121 50.4826 73.7578 50.0003 73.7578C49.5161 73.7578 49.1084 74.3109 49.1084 74.965C49.1084 75.6437 49.1084 76.3225 49.1084 77.0012C49.1084 77.654 49.5189 78.2084 50.0003 78.2084C50.4845 78.2084 50.8922 77.6565 50.8922 77.0012Z" fill="white"/>
<path fill-rule="evenodd" clip-rule="evenodd" d="M64.1036 72.7131C63.7506 72.0874 63.3963 71.4617 63.0433 70.836C62.7147 70.2536 61.8907 70.0004 61.322 70.3743C60.747 70.7534 60.5185 71.5103 60.8702 72.1333C61.2245 72.759 61.5775 73.3847 61.9305 74.0104C62.2604 74.5928 63.0831 74.8473 63.6518 74.4722C64.2268 74.0944 64.4553 73.3375 64.1036 72.7131Z" fill="white"/>
<path fill-rule="evenodd" clip-rule="evenodd" d="M73.4519 62.5209C72.8211 62.1665 72.1903 61.8135 71.5595 61.4604C70.9724 61.1305 70.1141 61.309 69.7862 61.9123C69.4595 62.5132 69.6235 63.2821 70.2517 63.6339C70.8825 63.9869 71.5133 64.3413 72.1441 64.6943C72.7312 65.023 73.5895 64.8458 73.9174 64.2424C74.2441 63.6416 74.0801 62.8726 73.4519 62.5209Z" fill="white"/>
<path fill-rule="evenodd" clip-rule="evenodd" d="M76.4393 49.7256C75.7592 49.7256 75.0791 49.7256 74.399 49.7256C73.7449 49.7256 73.1895 50.34 73.1895 51.0607C73.1895 51.7856 73.7436 52.3959 74.399 52.3959C75.0791 52.3959 75.7592 52.3959 76.4393 52.3959C77.0935 52.3959 77.6489 51.7815 77.6489 51.0607C77.6489 50.3373 77.096 49.7269 76.4393 49.7256Z" fill="white"/>
<path fill-rule="evenodd" clip-rule="evenodd" d="M72.1426 36.5416C71.5156 36.8951 70.8887 37.2473 70.2617 37.5995C69.6781 37.9273 69.4231 38.7496 69.7991 39.3169C70.1789 39.8907 70.9373 40.1187 71.5616 39.7677C72.1886 39.4155 72.8155 39.0621 73.4425 38.7099C74.0261 38.3807 74.2797 37.5598 73.9051 36.9924C73.5253 36.4173 72.7669 36.1894 72.1426 36.5416Z" fill="white"/>
<path fill-rule="evenodd" clip-rule="evenodd" d="M61.929 27.2104C61.5752 27.8399 61.2202 28.4694 60.8664 29.099C60.5371 29.685 60.7147 30.5415 61.3192 30.8688C61.9213 31.1948 62.6918 31.0312 63.0443 30.4043C63.398 29.7747 63.753 29.1452 64.1068 28.5156C64.4374 27.9283 64.2586 27.0731 63.654 26.7458C63.052 26.4198 62.2814 26.5835 61.929 27.2104Z" fill="white"/>
<path fill-rule="evenodd" clip-rule="evenodd" d="M69.5213 76.9321C70.1975 78.5367 71.1504 80.1934 71.5574 81.8796C71.8949 83.2781 71.0481 84.9893 69.3684 84.7927C67.8492 84.6151 67.2425 83.277 66.7521 82.1129C66.1733 80.7393 63.7757 81.3373 64.3621 82.7299C65.1154 84.5168 66.0014 86.1652 68.0691 86.8615C70.248 87.5945 72.6279 86.653 73.6137 84.6956C74.9939 81.953 72.9831 78.8612 71.91 76.3152C71.3312 74.9415 68.9336 75.5407 69.5213 76.9321Z" fill="white"/>
<path fill-rule="evenodd" clip-rule="evenodd" d="M28.0875 76.3153C27.009 78.871 25.0126 81.9393 26.3832 84.6928C27.3327 86.601 29.6527 87.5563 31.7945 86.9064C33.9375 86.2565 34.8693 84.5483 35.638 82.7277C36.2247 81.338 33.8275 80.7354 33.2472 82.111C32.768 83.2486 32.2041 84.5294 30.7451 84.7673C29.0155 85.0491 28.0875 83.335 28.4402 81.8778C28.8473 80.1921 29.8006 78.536 30.4771 76.932C31.0637 75.5435 28.6678 74.9397 28.0875 76.3153Z" fill="white"/>
<path d="M72.6634 73.6936C85.2263 61.1899 85.2263 40.9175 72.6634 28.4138C60.1004 15.9101 39.7318 15.9101 27.1688 28.4138C14.6058 40.9175 14.6058 61.1899 27.1688 73.6936C39.7318 86.1973 60.1004 86.1973 72.6634 73.6936Z" stroke="white" stroke-width="3" stroke-miterlimit="22.9256"/>
<path d="M70.0913 71.1341C81.234 60.044 81.234 42.0634 70.0913 30.9733C58.9486 19.8832 40.8828 19.8832 29.7401 30.9733C18.5974 42.0634 18.5974 60.044 29.7401 71.1341C40.8828 82.2242 58.9486 82.2242 70.0913 71.1341Z" stroke="white" stroke-miterlimit="22.9256"/>
<path d="M43.6615 9.56055H56.3385C56.7025 9.56055 57 9.97518 57 10.4825V13.6386C57 14.1459 56.7025 14.5605 56.3385 14.5605H43.6615C43.2975 14.5605 43 14.1459 43 13.6386V10.4825C43 9.97518 43.2975 9.56055 43.6615 9.56055Z" stroke="white" stroke-width="3" stroke-miterlimit="22.9256"/>
</svg>
