<svg width="100" height="100" viewBox="0 0 100 100" fill="none" xmlns="http://www.w3.org/2000/svg">
<circle cx="50" cy="50" r="48.5" stroke="white" stroke-width="3"/>
<path d="M23.5949 36.379L23.5951 36.379C27.0198 35.8649 29.5326 34.8983 31.1875 33.5981C32.8795 32.2688 33.7145 30.5374 33.5065 28.7217C33.3062 26.9735 32.1764 25.4921 30.6754 24.4889C29.1588 23.4753 27.162 22.8685 24.9408 22.8685C24.4385 22.8685 24.0169 22.447 24.0169 21.9447V20.4238C24.0169 19.9215 24.4385 19.5 24.9408 19.5H51.4604C51.9627 19.5 52.3843 19.9215 52.3843 20.4238V21.9447C52.3843 22.4328 51.9532 22.8685 51.4604 22.8685C49.2392 22.8685 47.2424 23.4753 45.7258 24.4889C44.2248 25.4921 43.095 26.9735 42.8947 28.7217C42.6867 30.5374 43.5217 32.2688 45.2138 33.5981C46.8686 34.8983 49.3814 35.8649 52.8061 36.379L52.8063 36.379C54.7392 36.6689 55.9012 37.8706 55.9012 39.268V72.2512C55.9012 73.8229 54.6004 75.1236 53.0288 75.1236H23.3724C21.8008 75.1236 20.5 73.8229 20.5 72.2512V39.268C20.5 37.8706 21.662 36.6689 23.5949 36.379Z" stroke="white" stroke-width="3"/>
<path d="M62.027 55.2058L62.0355 55.2047L62.044 55.2034C63.3847 54.998 64.938 54.6512 66.1598 53.7519C67.4557 52.798 68.2631 51.3134 68.2631 49.1296C68.2631 46.7665 66.389 44.9571 64.0546 44.9688L63.2313 44.9231L63.2036 44.9216H63.1758C62.9657 44.9216 62.7738 44.7497 62.7738 44.4958V43.2363C62.7738 42.9824 62.9657 42.8105 63.1758 42.8105H76.9346C77.1447 42.8105 77.3367 42.9824 77.3367 43.2363V44.4958C77.3367 44.7497 77.1447 44.9216 76.9346 44.9216C75.8862 44.9216 74.6457 45.0822 73.6367 45.7023C72.5504 46.3698 71.8474 47.5014 71.8474 49.1296C71.8474 51.3134 72.6547 52.798 73.9507 53.7519C75.1725 54.6512 76.7257 54.998 78.0665 55.2034L78.075 55.2047L78.0835 55.2058C79.1754 55.3539 79.7843 56.0229 79.7843 56.7576V74.0809C79.7843 74.9186 79.0797 75.6235 78.2179 75.6235H61.8926C61.0307 75.6235 60.3262 74.9186 60.3262 74.0809V56.7576C60.3262 56.0229 60.935 55.3539 62.027 55.2058Z" stroke="white" stroke-width="2"/>
<path fill-rule="evenodd" clip-rule="evenodd" d="M43.8558 57.8975C43.8558 58.848 43.6895 59.6797 43.3568 60.4402C43.0241 61.1768 42.5726 61.7947 41.9786 62.2937C41.3845 62.8165 40.6478 63.1967 39.8161 63.4581C38.9844 63.7432 38.0339 63.8621 37.0121 63.8621C36.4893 63.8621 35.9665 63.8383 35.4912 63.767C34.9922 63.6957 34.5645 63.6244 34.1843 63.5056C33.804 63.4106 33.4714 63.3155 33.2337 63.1967C32.9961 63.1016 32.8298 63.0066 32.7347 62.9591C32.6634 62.8878 32.6159 62.8165 32.5684 62.7214C32.5446 62.6501 32.5208 62.5551 32.4971 62.4363C32.4733 62.3175 32.4495 62.1749 32.4495 62.0085C32.4258 61.8422 32.4258 61.6283 32.4258 61.4145C32.4258 61.1531 32.4495 60.9392 32.4495 60.7728C32.4733 60.5827 32.4971 60.4402 32.5446 60.3451C32.5921 60.2263 32.6396 60.155 32.6872 60.1075C32.7347 60.06 32.806 60.0362 32.8773 60.0362C32.9723 60.0362 33.0911 60.1075 33.2813 60.2025C33.4714 60.2976 33.709 60.4164 34.0179 60.5352C34.3031 60.6778 34.6833 60.7728 35.111 60.8917C35.5388 60.9867 36.0615 61.0342 36.6556 61.0342C37.1784 61.0342 37.6537 60.9867 38.0814 60.8679C38.5091 60.7728 38.8656 60.6065 39.1507 60.3689C39.4597 60.1312 39.6973 59.8223 39.8636 59.4659C40.0062 59.1094 40.1013 58.6817 40.1013 58.1827C40.1013 57.7312 40.03 57.351 39.8874 57.0183C39.7448 56.6856 39.5547 56.4004 39.2696 56.1628C38.9606 55.9252 38.6042 55.7588 38.1289 55.64C37.6774 55.5212 37.1309 55.4737 36.4655 55.4737C35.9427 55.4737 35.4675 55.4974 35.0397 55.545C34.612 55.5925 34.2318 55.6163 33.8516 55.6163C33.5902 55.6163 33.4001 55.5687 33.2813 55.4261C33.1624 55.3073 33.1149 55.0697 33.1149 54.7133V47.1566C33.1149 46.7764 33.1862 46.515 33.3288 46.3724C33.4714 46.2061 33.6852 46.1348 33.9941 46.1348H42.24C42.335 46.1348 42.4063 46.1585 42.4776 46.2061C42.5489 46.2773 42.6202 46.3486 42.6677 46.4674C42.7152 46.5863 42.739 46.7526 42.7627 46.9427C42.7865 47.1328 42.8103 47.3704 42.8103 47.6318C42.8103 48.1546 42.7627 48.5586 42.6677 48.7962C42.5726 49.0339 42.4301 49.1527 42.24 49.1527H36.0615V52.8835C36.3705 52.8597 36.6794 52.836 36.9883 52.836C37.2972 52.8122 37.6299 52.8122 37.9626 52.8122C38.9131 52.8122 39.7448 52.931 40.4815 53.1449C41.2181 53.3588 41.8122 53.6914 42.3112 54.1192C42.8103 54.5469 43.1905 55.0697 43.4519 55.7113C43.7133 56.3291 43.8558 57.0658 43.8558 57.8975Z" fill="white"/>
<path fill-rule="evenodd" clip-rule="evenodd" d="M74.5817 70.9682C74.5817 71.1583 74.558 71.3246 74.5342 71.4672C74.5342 71.6098 74.4867 71.7286 74.4629 71.7999C74.4154 71.8949 74.3679 71.9424 74.3203 71.99C74.2728 72.0137 74.2015 72.0375 74.154 72.0375H66.431C66.3835 72.0375 66.3122 72.0137 66.2646 71.99C66.2171 71.9424 66.1696 71.8949 66.1458 71.7999C66.0983 71.7286 66.0745 71.6098 66.0508 71.4672C66.027 71.3246 66.0033 71.1583 66.0033 70.9682C66.0033 70.7543 66.027 70.5642 66.0508 70.4454C66.0508 70.3028 66.0745 70.184 66.1221 70.0889C66.1696 70.0176 66.2171 69.9463 66.2646 69.8988C66.3122 69.8751 66.3597 69.8513 66.431 69.8513H69.0449V60.75L66.7874 61.9857C66.6211 62.0807 66.4785 62.1283 66.3835 62.1283C66.2884 62.152 66.1934 62.1283 66.1458 62.0807C66.0745 62.0095 66.027 61.9144 66.0033 61.7481C66.0033 61.6055 65.9795 61.3916 65.9795 61.1065C65.9795 60.9401 65.9795 60.7975 66.0033 60.6787C66.0033 60.5837 66.0033 60.4886 66.0508 60.4173C66.0745 60.3223 66.1221 60.251 66.1696 60.2035C66.2171 60.1559 66.2884 60.1084 66.3597 60.0371L69.3776 58.1123C69.4014 58.0648 69.4489 58.0648 69.4964 58.041C69.5677 58.0173 69.639 57.9935 69.7103 57.9935C69.8054 57.9697 69.9242 57.9697 70.0667 57.9697C70.2093 57.9697 70.3757 57.9697 70.6133 57.9697C70.8747 57.9697 71.0886 57.9697 71.2787 57.9697C71.445 57.9935 71.5638 58.0173 71.6589 58.041C71.7302 58.0648 71.8015 58.0885 71.8252 58.1361C71.849 58.1836 71.8727 58.2311 71.8727 58.3024V69.8513H74.154C74.2015 69.8513 74.2728 69.8751 74.3203 69.8988C74.3679 69.9463 74.4154 70.0176 74.4629 70.0889C74.5105 70.184 74.5342 70.3028 74.558 70.4454C74.558 70.5642 74.5817 70.7543 74.5817 70.9682Z" fill="white"/>
</svg>
