<svg width="16" height="16" viewBox="0 0 16 16" fill="none" xmlns="http://www.w3.org/2000/svg">
<path d="M7.78944 13.7975C7.78944 13.8822 7.6894 14.0241 7.49716 14.2126C7.51678 14.0029 7.59328 13.7297 7.72275 13.7297C7.78356 13.734 7.78944 13.7636 7.78944 13.7975ZM7.23822 13.2299V13.232C7.23822 13.4735 7.06756 13.7149 6.87139 13.9436C6.91259 13.8166 6.95574 13.6937 6.98124 13.6069C7.03029 13.4332 7.10483 13.1261 7.18918 13.1049C7.20487 13.1134 7.21664 13.1261 7.22645 13.1452C7.23822 13.1727 7.23822 13.2087 7.23822 13.2299ZM6.5281 13.2299V13.232C6.5281 13.4735 6.35744 13.7149 6.16128 13.9436C6.20051 13.8166 6.24563 13.6937 6.27113 13.6069C6.32017 13.4332 6.39471 13.1261 6.47906 13.1049C6.49476 13.1134 6.50653 13.1261 6.51437 13.1452C6.5281 13.1727 6.5281 13.2087 6.5281 13.2299ZM4.73123 13.3951C4.70966 13.3951 4.70573 13.3866 4.70573 13.3718C4.70573 13.34 4.74693 13.2828 4.81558 13.2278C4.80185 13.3443 4.75281 13.3951 4.73123 13.3951ZM12.4797 13.986L12.4641 14.0051C12.362 14.1385 12.1306 14.4456 12.0168 14.4752C11.9756 14.4752 11.9599 14.4477 11.9599 14.3948C11.9599 14.2486 12.0854 14.0707 12.0854 13.8738C12.0854 13.7107 11.9364 13.6874 11.8657 13.6874H11.8638C11.8638 13.6874 11.8638 13.6874 11.8618 13.6874C11.8579 13.6874 11.8559 13.6874 11.854 13.6874V13.6895C11.7167 13.6958 11.6029 13.9013 11.4989 14.1597L11.493 14.1448C11.5146 14.0432 11.5597 13.8081 11.4048 13.7276C11.4048 13.7276 11.395 13.717 11.391 13.734C11.3714 13.7954 11.3479 13.8759 11.3263 13.9606C11.2243 14.0622 11.1615 14.0855 11.1478 14.0855C11.0634 14.0855 11.0124 13.9987 10.9183 13.8314L10.8928 13.8441C10.9124 13.9013 10.9104 13.95 10.9104 13.986C10.9104 13.9924 10.9104 13.9987 10.9104 14.0029C10.9104 14.3016 10.7555 14.4583 10.6299 14.507C10.5044 14.5155 10.4847 14.4053 10.4847 14.274C10.4847 14.0601 10.5966 13.7255 10.7456 13.7255C10.8084 13.7297 10.832 13.7551 10.8476 13.7721C10.8516 13.7763 10.8555 13.7806 10.8614 13.7848L10.879 13.7594C10.8771 13.7573 10.8732 13.753 10.8692 13.7488C10.8496 13.7276 10.8163 13.6937 10.7241 13.6937C10.5122 13.6937 10.2984 13.842 10.2886 14.1703C10.1689 14.3079 9.99041 14.5028 9.90998 14.5028C9.89233 14.5028 9.85309 14.5007 9.85309 14.3482C9.85309 14.2296 9.89233 14.022 9.98845 13.7573C9.98845 13.7573 9.99238 13.734 9.96295 13.734C9.88645 13.734 9.72167 13.8632 9.68636 14.0792C9.65301 14.1152 9.6177 14.1554 9.58043 14.1978C9.46273 14.3355 9.32934 14.4901 9.19987 14.4901C9.12336 14.4901 9.10767 14.4075 9.10767 14.2719C9.10767 14.1025 9.18809 13.7848 9.30776 13.4798C9.46861 13.4586 9.58631 13.4184 9.6942 13.3845C9.83152 13.34 9.95118 13.3019 10.1277 13.3019C10.2199 13.3019 10.2709 13.3273 10.2709 13.3506C10.2709 13.3697 10.2631 13.3887 10.2042 13.3887V13.4205C10.2278 13.4205 10.3004 13.4205 10.3004 13.3506C10.3004 13.2913 10.2121 13.2723 10.1277 13.2723C9.9453 13.2723 9.81779 13.3125 9.68439 13.357C9.58239 13.3909 9.47058 13.4269 9.31953 13.448C9.35092 13.3697 9.38622 13.2892 9.42153 13.2151L9.44704 13.16C9.42742 13.1494 9.40191 13.141 9.39995 13.141H9.398C9.29795 13.141 9.19398 13.2807 9.10767 13.4671C9.07628 13.4692 9.04293 13.4692 9.00762 13.4692C8.85265 13.4692 8.79773 13.4205 8.79773 13.3739C8.79773 13.3506 8.80754 13.3316 8.82716 13.321C8.86443 13.2956 8.92524 13.304 8.94486 13.3146L8.95858 13.2871C8.93112 13.2701 8.85854 13.2638 8.81342 13.2934C8.78596 13.3104 8.77027 13.3379 8.77027 13.3739C8.77027 13.4036 8.78792 13.501 9.00959 13.501C9.03901 13.501 9.06844 13.501 9.0959 13.4989C9.02332 13.662 8.96251 13.8526 8.9272 14.0135C8.87031 14.0707 8.8193 14.1343 8.7683 14.1978C8.65453 14.3397 8.54468 14.4774 8.40148 14.507C8.31712 14.5091 8.29555 14.4329 8.29555 14.3333C8.29555 13.9373 8.49367 13.6853 8.60941 13.7149C8.6663 13.7319 8.68984 13.7615 8.70946 13.7911L8.73299 13.7742C8.69572 13.7128 8.64472 13.6725 8.50937 13.6725C8.38775 13.6725 8.16608 13.8123 8.10723 14.0707C8.08761 14.094 8.06604 14.1215 8.0425 14.1512C7.94245 14.2762 7.81102 14.4414 7.6482 14.4964C7.52658 14.524 7.4952 14.4202 7.4952 14.3079C7.4952 14.2931 7.4952 14.2762 7.49716 14.2571C7.71098 14.0495 7.82083 13.8949 7.82083 13.7975C7.82083 13.7255 7.78552 13.6958 7.70706 13.6958C7.5717 13.6958 7.39515 13.9076 7.31473 14.1004C7.28726 14.1321 7.2598 14.1639 7.2343 14.1957C7.12052 14.3312 7.01852 14.4519 6.92043 14.4901C6.79881 14.5091 6.789 14.4308 6.789 14.3376C6.789 14.2529 6.81647 14.1343 6.85374 14.0135C7.07148 13.7657 7.27157 13.5031 7.27157 13.232V13.2299C7.27157 13.2066 7.27157 13.1664 7.25587 13.1304C7.23626 13.0859 7.19702 13.0605 7.14406 13.0605C6.96359 13.0605 6.67131 13.5751 6.63404 14.0686C6.59676 14.111 6.55949 14.1533 6.52418 14.1957C6.41041 14.3312 6.31036 14.4519 6.21032 14.4901C6.0887 14.5091 6.07889 14.4308 6.07889 14.3376C6.07889 14.2529 6.10831 14.1343 6.14362 14.0135C6.36137 13.7657 6.56145 13.5031 6.56145 13.232V13.2299C6.56145 13.2066 6.56145 13.1664 6.54576 13.1304C6.52614 13.0859 6.48691 13.0605 6.43394 13.0605C6.2574 13.0605 5.97492 13.5497 5.92784 14.0305C5.87095 14.075 5.83564 14.0877 5.82583 14.0877C5.74148 14.0877 5.69048 14.0008 5.59632 13.8335L5.57082 13.8462C5.59044 13.9034 5.58847 13.9521 5.58847 13.9881C5.58847 13.9945 5.58847 14.0008 5.58847 14.0051C5.58847 14.3037 5.43351 14.4604 5.30796 14.5091C5.18241 14.5176 5.1628 14.4075 5.1628 14.2762C5.1628 14.0622 5.27461 13.7276 5.4237 13.7276C5.48647 13.7319 5.51001 13.7573 5.5257 13.7742C5.52962 13.7784 5.53355 13.7827 5.53943 13.7869L5.55709 13.7615C5.55512 13.7594 5.5512 13.7551 5.54728 13.7509C5.52766 13.7297 5.49432 13.6958 5.40212 13.6958C5.22361 13.6958 5.0451 13.7996 4.98429 14.0284C4.97056 14.0453 4.95486 14.0644 4.93917 14.0855C4.79401 14.2677 4.5743 14.5451 4.25651 14.5451C4.24867 14.5451 4.24082 14.5451 4.23297 14.543C3.98581 14.5303 3.88773 14.3249 3.88773 14.0093C3.88773 13.4586 4.18982 12.8381 4.48799 12.836C4.70181 12.855 4.82735 13.0075 4.82735 13.1537C4.82735 13.1643 4.82735 13.1748 4.82735 13.1854C4.743 13.2468 4.68416 13.3189 4.68416 13.3697C4.68416 13.3909 4.692 13.4248 4.73908 13.4248C4.7842 13.4248 4.84501 13.3485 4.85482 13.2024C4.90386 13.1685 4.96271 13.1346 5.02745 13.1134L5.01763 13.0838C4.96075 13.1028 4.90582 13.1325 4.85482 13.1664V13.1558C4.85482 12.9588 4.67239 12.8042 4.43895 12.8042C4.11136 12.8042 3.65625 13.2193 3.65625 13.8928C3.65625 14.3355 3.96619 14.5748 4.25651 14.5748C4.58803 14.5748 4.82147 14.2804 4.96075 14.1046C4.96467 14.1004 4.96859 14.0961 4.97056 14.0919C4.96467 14.1258 4.96271 14.1597 4.96271 14.1978C4.96271 14.4435 5.10002 14.5578 5.22753 14.5578C5.36288 14.5578 5.6179 14.3948 5.6179 14.0072C5.6179 14.0029 5.6179 13.9966 5.6179 13.9902C5.6179 13.9733 5.6179 13.9521 5.61594 13.9288C5.68264 14.0453 5.73952 14.1194 5.82583 14.1194C5.84152 14.1194 5.87487 14.1067 5.92391 14.0728C5.92195 14.1046 5.91999 14.1364 5.91999 14.1703C5.91999 14.4096 5.99846 14.5367 6.14754 14.5367C6.28094 14.5367 6.40452 14.3905 6.54576 14.219C6.57322 14.1851 6.60068 14.1533 6.63011 14.1194C6.63011 14.1364 6.62815 14.1533 6.62815 14.1703C6.62815 14.4096 6.70661 14.5367 6.8557 14.5367C6.98909 14.5367 7.11267 14.3905 7.25391 14.219C7.26372 14.2063 7.27549 14.1936 7.2853 14.1808C7.27549 14.2169 7.26961 14.2507 7.26961 14.2804C7.26961 14.4774 7.40692 14.5494 7.53443 14.5494C7.7659 14.5494 7.94637 14.3228 8.06407 14.1724C8.07584 14.1576 8.08565 14.1448 8.09742 14.1321C8.09546 14.1576 8.09154 14.183 8.09154 14.2105C8.09154 14.4181 8.1857 14.5472 8.33871 14.5472C8.52899 14.5472 8.66238 14.3799 8.79185 14.219C8.83304 14.1681 8.87423 14.1173 8.91739 14.0707C8.9017 14.1533 8.89189 14.2253 8.89189 14.2762C8.89189 14.4498 8.98801 14.5261 9.20183 14.5261C9.34503 14.5261 9.48234 14.3651 9.60397 14.2232C9.63143 14.1914 9.65693 14.1618 9.68243 14.1343C9.68243 14.1448 9.68047 14.1576 9.68047 14.1703C9.68047 14.4329 9.8786 14.5409 9.91195 14.5409C9.9963 14.5409 10.1415 14.3926 10.2905 14.2211C10.2984 14.4541 10.4318 14.56 10.5554 14.56C10.6907 14.56 10.9457 14.3969 10.9457 14.0093C10.9457 14.0051 10.9457 13.9987 10.9457 13.9924C10.9457 13.9754 10.9457 13.9542 10.9438 13.9309C11.0124 14.0474 11.0674 14.1215 11.1537 14.1215C11.1752 14.1215 11.2321 14.0983 11.3184 14.0199C11.2655 14.2317 11.2204 14.4604 11.2223 14.5218C11.2929 14.524 11.3989 14.5303 11.3989 14.5303L11.4106 14.5007C11.5499 14.1194 11.6931 13.7234 11.8697 13.7234C11.8932 13.7234 11.8991 13.734 11.9011 13.7361C11.9207 13.7657 11.8893 13.8568 11.8579 13.9542C11.8206 14.0665 11.7716 14.2084 11.7716 14.3376C11.7716 14.4879 11.8442 14.5134 12.007 14.5134C12.111 14.5134 12.3012 14.2804 12.4935 14.0284L12.5092 14.0072L12.4797 13.986Z" fill="#236B66"/>
<path d="M7.16783 1.49271C7.17184 1.68741 7.49719 1.6437 7.37468 1.87614C6.71998 1.93177 5.91266 2.05693 5.39252 3.46551C4.92057 3.40989 4.76593 3.61452 4.86635 3.88273C5.04107 4.34762 5.08726 4.43304 4.9748 4.72906C4.9748 4.72906 4.28596 3.69001 3.23563 3.60061C2.1853 3.51121 0.759432 3.95226 1.03457 6.13764C1.18318 7.31775 2.21945 8.01509 2.57089 8.31906C2.84804 8.55746 3.05288 8.6568 3.22559 9.02037C3.47461 9.55082 3.86824 10.1369 4.69364 10.4051C5.24993 10.5859 4.93062 10.6892 5.025 10.8541C5.19169 11.1402 5.44875 11.6011 7.78838 11.623C9.86695 11.6428 10.7305 11.1024 10.5658 10.7071C10.4313 10.3833 10.841 10.4528 11.0056 10.4051C11.9435 10.1369 12.2668 9.60645 12.6203 9.00845C12.9738 8.41045 13.2971 6.63035 13.6144 5.65885C13.9317 4.68735 14.4719 4.65158 14.8234 4.5602C14.8234 4.5602 14.8655 4.53039 14.8696 4.46086V4.44297C14.8655 4.36351 14.8133 4.24033 14.6185 4.0655C14.3474 3.82312 13.7831 3.76352 13.6104 3.83902C13.1886 4.0218 12.5098 4.5443 11.7648 5.935C11.2426 6.9065 10.4755 5.55554 10.4092 5.12044C10.3409 4.68337 10.3128 4.41913 10.4574 4.15093C10.5317 4.01384 10.7385 3.73372 10.5739 3.59465C10.3951 3.44366 10.1019 3.42975 10.0136 3.47743C9.60788 1.87813 8.0836 1.87813 8.0836 1.87813C8.0836 1.87813 7.94302 1.72316 8.15389 1.61787C8.30451 1.54237 8.36074 1.30595 7.96712 1.07152C7.88278 1.02185 7.79843 1 7.71609 1C7.41284 1.00199 7.16381 1.29006 7.16783 1.49271ZM1.71336 6.13764C1.41613 4.82442 2.32388 4.24232 2.9364 4.2304C3.45454 4.22047 3.97267 4.51052 4.23977 5.17806C4.18354 5.42243 4.19559 5.5913 4.3201 5.80387C4.33215 5.82573 4.28596 6.02242 4.06705 6.31645C3.77184 6.70982 3.11112 6.78333 3.16133 7.6555C3.16133 7.65351 1.9664 7.25418 1.71336 6.13764Z" fill="#236B66"/>
</svg>
