<svg width="32" height="32" viewBox="0 0 32 32" fill="none" xmlns="http://www.w3.org/2000/svg">
<path d="M15.7074 27.8349C15.7074 28.0059 15.5054 28.2924 15.1173 28.6729C15.1569 28.2496 15.3114 27.6981 15.5728 27.6981C15.6955 27.7066 15.7074 27.7665 15.7074 27.8349ZM14.5946 26.689V26.6933C14.5946 27.1807 14.2501 27.6681 13.854 28.1299C13.9372 27.8734 14.0243 27.6254 14.0758 27.4501C14.1748 27.0995 14.3253 26.4795 14.4956 26.4367C14.5273 26.4538 14.551 26.4795 14.5708 26.518C14.5946 26.5736 14.5946 26.6462 14.5946 26.689ZM13.161 26.689V26.6933C13.161 27.1807 12.8165 27.6681 12.4205 28.1299C12.4997 27.8734 12.5907 27.6254 12.6422 27.4501C12.7412 27.0995 12.8917 26.4795 13.062 26.4367C13.0937 26.4538 13.1174 26.4795 13.1333 26.518C13.161 26.5736 13.161 26.6462 13.161 26.689ZM9.53347 27.0225C9.48991 27.0225 9.48199 27.0054 9.48199 26.9755C9.48199 26.9113 9.56515 26.7959 9.70376 26.6847C9.67603 26.9199 9.57703 27.0225 9.53347 27.0225ZM25.1762 28.2154L25.1445 28.2539C24.9386 28.5233 24.4713 29.1432 24.2416 29.2031C24.1585 29.2031 24.1268 29.1475 24.1268 29.0406C24.1268 28.7456 24.3802 28.3864 24.3802 27.9888C24.3802 27.6596 24.0792 27.6126 23.9367 27.6126H23.9327C23.9327 27.6126 23.9327 27.6126 23.9288 27.6126C23.9208 27.6126 23.9169 27.6126 23.9129 27.6126V27.6168C23.6357 27.6297 23.406 28.0444 23.1961 28.566L23.1842 28.5361C23.2278 28.3309 23.3189 27.8563 23.006 27.6938C23.006 27.6938 22.9862 27.6724 22.9783 27.7066C22.9387 27.8306 22.8912 27.9931 22.8476 28.1641C22.6417 28.3693 22.515 28.4164 22.4872 28.4164C22.317 28.4164 22.214 28.2411 22.0239 27.9033L21.9724 27.9289C22.012 28.0444 22.0081 28.1427 22.0081 28.2154C22.0081 28.2282 22.0081 28.2411 22.0081 28.2496C22.0081 28.8525 21.6952 29.1689 21.4418 29.2672C21.1883 29.2843 21.1487 29.062 21.1487 28.7969C21.1487 28.3651 21.3744 27.6895 21.6754 27.6895C21.8021 27.6981 21.8497 27.7494 21.8813 27.7836C21.8893 27.7921 21.8972 27.8007 21.9091 27.8092L21.9447 27.7579C21.9407 27.7536 21.9328 27.7451 21.9249 27.7365C21.8853 27.6938 21.818 27.6254 21.6318 27.6254C21.2041 27.6254 20.7725 27.9247 20.7527 28.5874C20.5111 28.8653 20.1507 29.2587 19.9884 29.2587C19.9527 29.2587 19.8735 29.2544 19.8735 28.9466C19.8735 28.7071 19.9527 28.2881 20.1468 27.7536C20.1468 27.7536 20.1547 27.7066 20.0953 27.7066C19.9409 27.7066 19.6082 27.9674 19.5369 28.4036C19.4696 28.4762 19.3983 28.5575 19.3231 28.643C19.0855 28.9209 18.8162 29.233 18.5548 29.233C18.4003 29.233 18.3687 29.0663 18.3687 28.7926C18.3687 28.4506 18.531 27.8092 18.7726 27.1935C19.0973 27.1508 19.3349 27.0695 19.5527 27.0011C19.83 26.9113 20.0715 26.8344 20.428 26.8344C20.6141 26.8344 20.717 26.8857 20.717 26.9327C20.717 26.9712 20.7012 27.0097 20.5824 27.0097V27.0738C20.6299 27.0738 20.7765 27.0738 20.7765 26.9327C20.7765 26.813 20.5982 26.7745 20.428 26.7745C20.0597 26.7745 19.8022 26.8558 19.533 26.9455C19.327 27.014 19.1013 27.0866 18.7964 27.1294C18.8597 26.9712 18.931 26.8087 19.0023 26.6591L19.0538 26.5479C19.0142 26.5265 18.9627 26.5094 18.9587 26.5094H18.9548C18.7528 26.5094 18.5429 26.7916 18.3687 27.1679C18.3053 27.1722 18.238 27.1722 18.1667 27.1722C17.8538 27.1722 17.7429 27.0738 17.7429 26.9797C17.7429 26.9327 17.7627 26.8942 17.8023 26.8729C17.8776 26.8215 18.0004 26.8386 18.04 26.86L18.0677 26.8045C18.0122 26.7703 17.8657 26.7574 17.7746 26.8173C17.7192 26.8515 17.6875 26.9071 17.6875 26.9797C17.6875 27.0396 17.7231 27.2363 18.1706 27.2363C18.23 27.2363 18.2895 27.2363 18.3449 27.232C18.1984 27.5612 18.0756 27.9461 18.0043 28.271C17.8895 28.3865 17.7865 28.5147 17.6835 28.643C17.4538 28.9295 17.2321 29.2074 16.943 29.2672C16.7727 29.2715 16.7291 29.1176 16.7291 28.9166C16.7291 28.1171 17.1291 27.6083 17.3628 27.6681C17.4776 27.7023 17.5251 27.7622 17.5647 27.8221L17.6123 27.7879C17.537 27.6639 17.4341 27.5826 17.1608 27.5826C16.9153 27.5826 16.4678 27.8648 16.349 28.3864C16.3094 28.4335 16.2658 28.4891 16.2183 28.5489C16.0163 28.8012 15.751 29.1347 15.4223 29.2459C15.1767 29.3014 15.1134 29.0919 15.1134 28.8653C15.1134 28.8354 15.1134 28.8012 15.1173 28.7627C15.549 28.3437 15.7708 28.0316 15.7708 27.8349C15.7708 27.6895 15.6995 27.6297 15.5411 27.6297C15.2678 27.6297 14.9114 28.0572 14.749 28.4463C14.6936 28.5104 14.6382 28.5746 14.5867 28.6387C14.357 28.9124 14.1511 29.1561 13.953 29.233C13.7075 29.2715 13.6877 29.1133 13.6877 28.9252C13.6877 28.7542 13.7432 28.5147 13.8184 28.271C14.258 27.7708 14.6619 27.2406 14.6619 26.6933V26.689C14.6619 26.642 14.6619 26.5607 14.6302 26.488C14.5906 26.3983 14.5114 26.347 14.4045 26.347C14.0402 26.347 13.4501 27.3859 13.3749 28.3822C13.2996 28.4677 13.2244 28.5532 13.1531 28.6387C12.9234 28.9124 12.7214 29.1561 12.5195 29.233C12.2739 29.2715 12.2541 29.1133 12.2541 28.9252C12.2541 28.7542 12.3135 28.5147 12.3848 28.271C12.8244 27.7708 13.2283 27.2406 13.2283 26.6933V26.689C13.2283 26.642 13.2283 26.5607 13.1966 26.488C13.157 26.3983 13.0778 26.347 12.9709 26.347C12.6145 26.347 12.0442 27.3346 11.9492 28.3052C11.8343 28.395 11.7631 28.4207 11.7433 28.4207C11.573 28.4207 11.47 28.2454 11.2799 27.9076L11.2284 27.9332C11.268 28.0487 11.2641 28.147 11.2641 28.2197C11.2641 28.2325 11.2641 28.2454 11.2641 28.2539C11.2641 28.8568 10.9512 29.1732 10.6978 29.2715C10.4443 29.2886 10.4047 29.0663 10.4047 28.8012C10.4047 28.3693 10.6304 27.6938 10.9314 27.6938C11.0581 27.7023 11.1057 27.7536 11.1373 27.7879C11.1453 27.7964 11.1532 27.805 11.1651 27.8135L11.2007 27.7622C11.1967 27.7579 11.1888 27.7494 11.1809 27.7408C11.1413 27.6981 11.074 27.6297 10.8879 27.6297C10.5275 27.6297 10.1671 27.8392 10.0443 28.3009C10.0166 28.3351 9.98493 28.3736 9.95325 28.4164C9.6602 28.7841 9.21665 29.3442 8.5751 29.3442C8.55926 29.3442 8.54342 29.3442 8.52758 29.3399C8.02859 29.3143 7.83059 28.8995 7.83059 28.2624C7.83059 27.1508 8.44046 25.898 9.04241 25.8937C9.47407 25.9322 9.72752 26.2401 9.72752 26.5351C9.72752 26.5565 9.72752 26.5778 9.72752 26.5992C9.55723 26.7232 9.43843 26.8686 9.43843 26.9712C9.43843 27.014 9.45427 27.0824 9.54931 27.0824C9.6404 27.0824 9.76316 26.9284 9.78296 26.6334C9.88197 26.565 10.0008 26.4966 10.1315 26.4538L10.1117 26.394C9.99681 26.4325 9.88593 26.4923 9.78296 26.5607V26.5394C9.78296 26.1417 9.41467 25.8296 8.94341 25.8296C8.28205 25.8296 7.36328 26.6676 7.36328 28.0273C7.36328 28.9209 7.98899 29.4041 8.5751 29.4041C9.24437 29.4041 9.71564 28.8097 9.99682 28.4549C10.0047 28.4463 10.0127 28.4378 10.0166 28.4292C10.0047 28.4976 10.0008 28.566 10.0008 28.643C10.0008 29.139 10.278 29.3699 10.5354 29.3699C10.8087 29.3699 11.3235 29.0406 11.3235 28.2582C11.3235 28.2496 11.3235 28.2368 11.3235 28.224C11.3235 28.1898 11.3235 28.147 11.3195 28.1C11.4542 28.3351 11.569 28.4848 11.7433 28.4848C11.7749 28.4848 11.8423 28.4591 11.9413 28.3907C11.9373 28.4549 11.9333 28.519 11.9333 28.5874C11.9333 29.0706 12.0918 29.3271 12.3927 29.3271C12.662 29.3271 12.9115 29.0321 13.1966 28.6857C13.2521 28.6173 13.3075 28.5532 13.3669 28.4848C13.3669 28.519 13.363 28.5532 13.363 28.5874C13.363 29.0706 13.5214 29.3271 13.8224 29.3271C14.0916 29.3271 14.3411 29.0321 14.6263 28.6857C14.6461 28.6601 14.6698 28.6344 14.6896 28.6088C14.6698 28.6815 14.658 28.7499 14.658 28.8097C14.658 29.2074 14.9352 29.3528 15.1926 29.3528C15.6599 29.3528 16.0242 28.8953 16.2618 28.5917C16.2856 28.5618 16.3054 28.5361 16.3292 28.5104C16.3252 28.5618 16.3173 28.6131 16.3173 28.6686C16.3173 29.0877 16.5074 29.3485 16.8163 29.3485C17.2004 29.3485 17.4697 29.0107 17.7311 28.6857C17.8142 28.5831 17.8974 28.4805 17.9845 28.3864C17.9528 28.5532 17.933 28.6986 17.933 28.8012C17.933 29.1518 18.1271 29.3057 18.5587 29.3057C18.8478 29.3057 19.125 28.9808 19.3706 28.6943C19.426 28.6302 19.4775 28.5703 19.529 28.5147C19.529 28.5361 19.525 28.5617 19.525 28.5874C19.525 29.1176 19.925 29.3356 19.9923 29.3356C20.1626 29.3356 20.4557 29.0363 20.7566 28.69C20.7725 29.1603 21.0418 29.3741 21.2913 29.3741C21.5645 29.3741 22.0794 29.0449 22.0794 28.2624C22.0794 28.2539 22.0794 28.2411 22.0794 28.2282C22.0794 28.194 22.0794 28.1513 22.0754 28.1043C22.214 28.3394 22.3249 28.4891 22.4991 28.4891C22.5427 28.4891 22.6575 28.442 22.8318 28.2838C22.7249 28.7114 22.6338 29.1732 22.6377 29.2972C22.7803 29.3014 22.9942 29.3143 22.9942 29.3143L23.0179 29.2544C23.2991 28.4848 23.5882 27.6852 23.9446 27.6852C23.9921 27.6852 24.004 27.7066 24.008 27.7109C24.0476 27.7708 23.9842 27.9546 23.9208 28.1513C23.8456 28.3779 23.7466 28.6644 23.7466 28.9252C23.7466 29.2288 23.8931 29.2801 24.2218 29.2801C24.4317 29.2801 24.8158 28.8097 25.2039 28.3009L25.2356 28.2582L25.1762 28.2154Z" fill="#236B66"/>
<path d="M14.4517 2.99468C14.4598 3.38774 15.1166 3.2995 14.8693 3.76876C13.5476 3.88107 11.9177 4.13375 10.8677 6.9774C9.91488 6.8651 9.6027 7.27821 9.80542 7.81967C10.1581 8.7582 10.2514 8.93065 10.0244 9.52826C10.0244 9.52826 8.63372 7.43062 6.51331 7.25013C4.3929 7.06965 1.51434 7.96004 2.06978 12.3719C2.3698 14.7543 4.46183 16.1621 5.17133 16.7758C5.73083 17.2571 6.14436 17.4576 6.49303 18.1916C6.99577 19.2625 7.79043 20.4457 9.45675 20.9871C10.5798 21.3521 9.93516 21.5607 10.1257 21.8936C10.4622 22.4711 10.9812 23.4016 15.7045 23.4457C19.9007 23.4858 21.644 22.3949 21.3116 21.5967C21.0399 20.943 21.867 21.0834 22.1995 20.9871C24.0928 20.4457 24.7456 19.3748 25.4592 18.1675C26.1727 16.9603 26.8255 13.3666 27.466 11.4053C28.1066 9.44404 29.1972 9.37185 29.9067 9.18735C29.9067 9.18735 29.9919 9.12719 30 8.98681V8.95071C29.9919 8.79027 29.8865 8.54161 29.4932 8.18866C28.9459 7.69934 27.8066 7.57902 27.4579 7.73143C26.6065 8.10043 25.2362 9.15526 23.732 11.9628C22.6779 13.9241 21.1291 11.1968 20.9953 10.3184C20.8575 9.43601 20.8007 8.90258 21.0926 8.36112C21.2427 8.08437 21.6603 7.51886 21.3278 7.2381C20.967 6.93328 20.375 6.90521 20.1966 7.00146C19.3777 3.77277 16.3004 3.77278 16.3004 3.77278C16.3004 3.77278 16.0166 3.45992 16.4423 3.24735C16.7464 3.09494 16.8599 2.61766 16.0653 2.14438C15.895 2.04411 15.7247 2 15.5585 2C14.9463 2.00401 14.4436 2.58558 14.4517 2.99468ZM3.44013 12.3719C2.84009 9.72078 4.67266 8.54562 5.90922 8.52156C6.95524 8.50151 8.00125 9.08708 8.54047 10.4347C8.42695 10.928 8.45128 11.2689 8.70264 11.6981C8.72697 11.7422 8.63372 12.1393 8.1918 12.7329C7.59581 13.527 6.26195 13.6754 6.36331 15.4362C6.36331 15.4322 3.95098 14.626 3.44013 12.3719Z" fill="#236B66"/>
</svg>
