<svg width="256" height="256" viewBox="0 0 256 256" fill="none" xmlns="http://www.w3.org/2000/svg">
<path d="M125.424 236.771C125.424 238.298 123.62 240.857 120.153 244.256C120.507 240.475 121.887 235.548 124.221 235.548C125.318 235.625 125.424 236.159 125.424 236.771ZM115.484 226.535V226.573C115.484 230.927 112.406 235.281 108.869 239.406C109.612 237.114 110.39 234.899 110.85 233.333C111.734 230.202 113.078 224.664 114.6 224.282C114.883 224.435 115.095 224.664 115.272 225.007C115.484 225.504 115.484 226.153 115.484 226.535ZM102.679 226.535V226.573C102.679 230.927 99.601 235.281 96.0635 239.406C96.771 237.114 97.5846 234.899 98.0445 233.333C98.9288 230.202 100.273 224.664 101.794 224.282C102.077 224.435 102.289 224.664 102.431 225.007C102.678 225.504 102.679 226.153 102.679 226.535ZM70.2757 229.514C69.8866 229.514 69.8158 229.361 69.8158 229.094C69.8158 228.521 70.5587 227.49 71.7968 226.497C71.5492 228.597 70.6648 229.514 70.2757 229.514ZM210.004 240.17L209.721 240.513C207.881 242.92 203.707 248.457 201.656 248.992C200.913 248.992 200.63 248.496 200.63 247.541C200.63 244.906 202.894 241.697 202.894 238.146C202.894 235.205 200.205 234.785 198.932 234.785H198.896C198.896 234.785 198.896 234.785 198.861 234.785C198.79 234.785 198.755 234.785 198.719 234.785V234.823C196.243 234.937 194.192 238.642 192.317 243.302L192.211 243.034C192.6 241.201 193.413 236.962 190.619 235.51C190.619 235.51 190.442 235.319 190.371 235.625C190.017 236.732 189.593 238.184 189.204 239.711C187.364 241.545 186.232 241.965 185.985 241.965C184.464 241.965 183.544 240.399 181.846 237.382L181.386 237.611C181.74 238.642 181.704 239.52 181.704 240.17C181.704 240.284 181.704 240.399 181.704 240.475C181.704 245.86 178.91 248.687 176.646 249.565C174.382 249.718 174.028 247.732 174.028 245.364C174.028 241.506 176.045 235.472 178.733 235.472C179.865 235.548 180.289 236.007 180.572 236.312C180.643 236.389 180.714 236.465 180.82 236.541L181.138 236.083C181.103 236.045 181.032 235.969 180.962 235.892C180.608 235.51 180.006 234.899 178.344 234.899C174.523 234.899 170.668 237.573 170.491 243.492C168.333 245.975 165.114 249.489 163.664 249.489C163.345 249.489 162.638 249.45 162.638 246.701C162.638 244.562 163.345 240.819 165.079 236.045C165.079 236.045 165.149 235.625 164.619 235.625C163.239 235.625 160.268 237.955 159.631 241.85C159.03 242.499 158.393 243.225 157.721 243.989C155.598 246.471 153.193 249.259 150.858 249.259C149.479 249.259 149.196 247.77 149.196 245.326C149.196 242.27 150.646 236.541 152.804 231.042C155.704 230.66 157.827 229.934 159.772 229.323C162.249 228.521 164.407 227.834 167.59 227.834C169.253 227.834 170.172 228.292 170.172 228.712C170.172 229.056 170.031 229.399 168.97 229.399V229.972C169.394 229.972 170.703 229.972 170.703 228.712C170.703 227.643 169.111 227.299 167.59 227.299C164.3 227.299 162.001 228.025 159.596 228.827C157.756 229.438 155.74 230.087 153.016 230.469C153.582 229.056 154.219 227.604 154.855 226.268L155.315 225.275C154.962 225.084 154.502 224.931 154.466 224.931H154.431C152.627 224.931 150.752 227.452 149.196 230.813C148.63 230.851 148.028 230.851 147.391 230.851C144.597 230.851 143.606 229.972 143.606 229.132C143.606 228.712 143.783 228.368 144.137 228.177C144.809 227.719 145.906 227.872 146.26 228.063L146.507 227.566C146.012 227.261 144.703 227.146 143.889 227.681C143.394 227.986 143.111 228.483 143.111 229.132C143.111 229.667 143.43 231.424 147.427 231.424C147.957 231.424 148.488 231.424 148.983 231.386C147.674 234.326 146.578 237.764 145.941 240.666C144.915 241.697 143.996 242.843 143.076 243.989C141.024 246.548 139.043 249.03 136.461 249.565C134.94 249.603 134.551 248.228 134.551 246.433C134.551 239.291 138.123 234.746 140.21 235.281C141.236 235.587 141.661 236.121 142.015 236.656L142.439 236.351C141.767 235.243 140.847 234.517 138.406 234.517C136.213 234.517 132.216 237.038 131.155 241.697C130.801 242.118 130.412 242.614 129.987 243.149C128.183 245.402 125.813 248.381 122.877 249.374C120.684 249.871 120.118 247.999 120.118 245.975C120.118 245.708 120.118 245.402 120.153 245.058C124.009 241.315 125.99 238.527 125.99 236.771C125.99 235.472 125.353 234.937 123.938 234.937C121.498 234.937 118.314 238.757 116.864 242.232C116.368 242.805 115.873 243.378 115.413 243.951C113.362 246.395 111.522 248.572 109.753 249.259C107.56 249.603 107.383 248.19 107.383 246.51C107.383 244.982 107.879 242.843 108.551 240.666C112.477 236.198 116.085 231.462 116.085 226.573V226.535C116.085 226.115 116.085 225.389 115.802 224.74C115.449 223.938 114.741 223.48 113.786 223.48C110.532 223.48 105.261 232.76 104.589 241.659C103.917 242.423 103.245 243.187 102.608 243.951C100.556 246.395 98.752 248.572 96.9479 249.259C94.7547 249.603 94.5778 248.19 94.5778 246.51C94.5778 244.982 95.1085 242.843 95.7452 240.666C99.6717 236.198 103.28 231.462 103.28 226.573V226.535C103.28 226.115 103.28 225.389 102.997 224.74C102.643 223.938 101.936 223.48 100.981 223.48C97.7968 223.48 92.703 232.302 91.854 240.972C90.8282 241.774 90.1913 242.003 90.0145 242.003C88.4934 242.003 87.5737 240.437 85.8758 237.42L85.4159 237.649C85.7696 238.68 85.7342 239.559 85.7342 240.208C85.7342 240.323 85.7342 240.437 85.7342 240.513C85.7342 245.899 82.9397 248.725 80.6757 249.603C78.4118 249.756 78.0581 247.77 78.0581 245.402C78.0581 241.545 80.0744 235.51 82.7628 235.51C83.8948 235.587 84.3192 236.045 84.6022 236.351C84.673 236.427 84.7438 236.503 84.8499 236.58L85.1682 236.121C85.1329 236.083 85.0622 236.007 84.9914 235.93C84.6377 235.548 84.0363 234.937 82.3737 234.937C79.1547 234.937 75.9356 236.809 74.839 240.934C74.5914 241.239 74.3084 241.583 74.0254 241.965C71.4077 245.249 67.4457 250.252 61.7151 250.252C61.5736 250.252 61.4321 250.252 61.2906 250.214C56.8335 249.985 55.0649 246.28 55.0649 240.59C55.0649 230.66 60.5125 219.47 65.8894 219.431C69.7451 219.775 72.009 222.525 72.009 225.16C72.009 225.351 72.009 225.542 72.009 225.733C70.4879 226.841 69.4268 228.139 69.4268 229.056C69.4268 229.438 69.5683 230.049 70.4173 230.049C71.2309 230.049 72.3274 228.674 72.5043 226.039C73.3887 225.427 74.4499 224.816 75.6173 224.435L75.4403 223.9C74.4145 224.244 73.424 224.778 72.5043 225.389V225.198C72.5043 221.646 69.2145 218.858 65.005 218.858C59.0975 218.858 50.8906 226.344 50.8906 238.489C50.8906 246.471 56.4797 250.787 61.7151 250.787C67.6934 250.787 71.903 245.478 74.4146 242.308C74.4853 242.232 74.556 242.156 74.5914 242.079C74.4853 242.69 74.4499 243.301 74.4499 243.989C74.4499 248.419 76.9261 250.482 79.2254 250.482C81.6662 250.482 86.2648 247.541 86.2648 240.552C86.2648 240.475 86.2648 240.361 86.2648 240.246C86.2648 239.941 86.2649 239.559 86.2295 239.139C87.4322 241.239 88.458 242.576 90.0145 242.576C90.2975 242.576 90.8988 242.347 91.7832 241.736C91.7478 242.308 91.7125 242.881 91.7125 243.492C91.7125 247.808 93.1275 250.1 95.8159 250.1C98.2213 250.1 100.45 247.464 102.997 244.371C103.492 243.76 103.987 243.187 104.518 242.576C104.518 242.881 104.483 243.187 104.483 243.492C104.483 247.808 105.897 250.1 108.586 250.1C110.991 250.1 113.22 247.464 115.767 244.371C115.944 244.142 116.156 243.912 116.333 243.683C116.156 244.333 116.05 244.944 116.05 245.478C116.05 249.03 118.526 250.329 120.825 250.329C125 250.329 128.254 246.242 130.376 243.531C130.589 243.263 130.766 243.034 130.978 242.805C130.942 243.263 130.872 243.722 130.872 244.218C130.872 247.961 132.57 250.291 135.329 250.291C138.76 250.291 141.166 247.273 143.5 244.371C144.243 243.454 144.986 242.538 145.764 241.697C145.481 243.187 145.304 244.485 145.304 245.402C145.304 248.534 147.038 249.909 150.894 249.909C153.476 249.909 155.952 247.006 158.145 244.447C158.64 243.874 159.1 243.34 159.56 242.843C159.56 243.034 159.525 243.263 159.525 243.492C159.525 248.228 163.098 250.176 163.699 250.176C165.22 250.176 167.838 247.503 170.526 244.409C170.668 248.61 173.073 250.52 175.302 250.52C177.743 250.52 182.341 247.579 182.341 240.59C182.341 240.513 182.341 240.399 182.341 240.284C182.341 239.979 182.341 239.597 182.306 239.177C183.544 241.277 184.534 242.614 186.091 242.614C186.48 242.614 187.506 242.194 189.062 240.781C188.107 244.6 187.294 248.725 187.329 249.832C188.602 249.871 190.513 249.985 190.513 249.985L190.725 249.45C193.236 242.576 195.819 235.434 199.002 235.434C199.427 235.434 199.533 235.625 199.568 235.663C199.922 236.198 199.356 237.84 198.79 239.597C198.118 241.621 197.234 244.18 197.234 246.51C197.234 249.221 198.543 249.68 201.479 249.68C203.353 249.68 206.785 245.478 210.251 240.934L210.534 240.552L210.004 240.17Z" fill="#236B66"/>
<path d="M114.224 14.8849C114.296 18.3959 120.163 17.6077 117.954 21.7994C106.148 22.8025 91.5895 25.0596 82.2098 50.4604C73.6993 49.4572 70.9108 53.1474 72.7215 57.9839C75.8722 66.3673 76.7052 67.9077 74.6771 73.2458C74.6771 73.2458 62.2554 54.5087 43.3149 52.8965C24.3745 51.2844 -1.33814 59.2377 3.62332 98.6466C6.30323 119.927 24.9902 132.502 31.3278 137.984C36.3255 142.283 40.0193 144.074 43.1338 150.631C47.6245 160.196 54.7227 170.765 69.6071 175.601C79.6386 178.862 73.8804 180.725 75.5825 183.698C78.5884 188.857 83.2238 197.169 125.414 197.563C162.897 197.921 178.469 188.176 175.5 181.047C173.073 175.207 180.461 176.461 183.431 175.601C200.343 170.765 206.174 161.199 212.548 150.416C218.922 139.632 224.752 107.532 230.474 90.0126C236.196 72.4936 245.938 71.8487 252.275 70.2007C252.275 70.2007 253.036 69.6633 253.109 68.4094V68.0868C253.036 66.6538 252.095 64.4326 248.582 61.2799C243.693 56.9091 233.516 55.8343 230.402 57.1957C222.797 60.4917 210.556 69.914 197.12 94.9924C187.704 112.511 173.87 88.1495 172.675 80.3036C171.444 72.4218 170.937 67.6569 173.544 62.8204C174.884 60.3484 178.614 55.2969 175.645 52.7891C172.421 50.0663 167.134 49.8155 165.541 50.6753C158.225 21.8352 130.738 21.8352 130.738 21.8352C130.738 21.8352 128.203 19.0407 132.005 17.1419C134.722 15.7805 135.736 11.5172 128.637 7.28969C127.116 6.39404 125.595 6 124.111 6C118.642 6.03583 114.151 11.2307 114.224 14.8849ZM15.8639 98.6466C10.5041 74.9655 26.8734 64.4685 37.9189 64.2535C47.2624 64.0744 56.6058 69.305 61.4224 81.3426C60.4084 85.7492 60.6257 88.7944 62.871 92.6278C63.0883 93.0219 62.2553 96.5688 58.3079 101.871C52.9843 108.965 41.0696 110.29 41.975 126.018C41.975 125.982 20.427 118.781 15.8639 98.6466Z" fill="#236B66"/>
</svg>
