<svg width="120" height="120" viewBox="0 0 120 120" fill="none" xmlns="http://www.w3.org/2000/svg">
<path d="M58.7834 110.031C58.7834 110.739 57.9466 111.926 56.3388 113.503C56.5029 111.749 57.1427 109.464 58.2255 109.464C58.7341 109.499 58.7834 109.747 58.7834 110.031ZM54.1731 105.284V105.301C54.1731 107.321 52.7458 109.34 51.1051 111.253C51.4497 110.19 51.8106 109.163 52.0239 108.437C52.434 106.984 53.0575 104.416 53.763 104.238C53.8942 104.309 53.9927 104.416 54.0747 104.575C54.1731 104.805 54.1731 105.106 54.1731 105.284ZM48.234 105.284V105.301C48.234 107.321 46.8066 109.34 45.166 111.253C45.4941 110.19 45.8715 109.163 46.0847 108.437C46.4949 106.984 47.1183 104.416 47.8238 104.238C47.9551 104.309 48.0535 104.416 48.1191 104.575C48.234 104.805 48.234 105.106 48.234 105.284ZM33.2056 106.665C33.0252 106.665 32.9923 106.594 32.9923 106.47C32.9923 106.205 33.3369 105.726 33.9111 105.266C33.7962 106.24 33.3861 106.665 33.2056 106.665ZM98.0113 111.607L97.8801 111.767C97.0269 112.883 95.091 115.451 94.1394 115.699C93.7949 115.699 93.6636 115.469 93.6636 115.026C93.6636 113.804 94.7136 112.316 94.7136 110.668C94.7136 109.305 93.4667 109.11 92.8761 109.11H92.8596C92.8596 109.11 92.8597 109.11 92.8433 109.11C92.8105 109.11 92.794 109.11 92.7776 109.11V109.127C91.6292 109.181 90.6776 110.899 89.8081 113.06L89.7588 112.936C89.9393 112.086 90.3166 110.119 89.0205 109.446C89.0205 109.446 88.9385 109.358 88.9057 109.499C88.7417 110.013 88.5447 110.686 88.3643 111.395C87.5111 112.245 86.9861 112.44 86.8713 112.44C86.1658 112.44 85.7393 111.714 84.9517 110.314L84.7385 110.42C84.9025 110.899 84.8861 111.306 84.8861 111.607C84.8861 111.66 84.8861 111.714 84.8861 111.749C84.8861 114.247 83.59 115.557 82.54 115.965C81.49 116.036 81.3259 115.115 81.3259 114.016C81.3259 112.227 82.2611 109.429 83.508 109.429C84.033 109.464 84.2298 109.677 84.3611 109.818C84.3939 109.854 84.4267 109.889 84.4759 109.925L84.6236 109.712C84.6072 109.694 84.5744 109.659 84.5416 109.623C84.3775 109.446 84.0986 109.163 83.3275 109.163C81.5556 109.163 79.7673 110.403 79.6852 113.148C78.6844 114.3 77.1914 115.929 76.5188 115.929C76.3711 115.929 76.043 115.912 76.043 114.636C76.043 113.644 76.3711 111.908 77.175 109.694C77.175 109.694 77.2079 109.499 76.9618 109.499C76.3219 109.499 74.9438 110.58 74.6485 112.387C74.3696 112.688 74.0742 113.024 73.7625 113.379C72.7781 114.53 71.6625 115.823 70.5796 115.823C69.9398 115.823 69.8085 115.132 69.8085 113.999C69.8085 112.582 70.4812 109.924 71.482 107.374C72.8273 107.197 73.8117 106.86 74.7141 106.577C75.8625 106.205 76.8633 105.886 78.3399 105.886C79.111 105.886 79.5376 106.098 79.5376 106.293C79.5376 106.453 79.472 106.612 78.9798 106.612V106.878C79.1766 106.878 79.7837 106.878 79.7837 106.293C79.7837 105.797 79.0454 105.638 78.3399 105.638C76.8141 105.638 75.7477 105.974 74.632 106.346C73.7789 106.63 72.8438 106.931 71.5805 107.108C71.843 106.453 72.1383 105.78 72.4336 105.16L72.6469 104.699C72.4828 104.61 72.2695 104.54 72.2531 104.54H72.2367C71.4 104.54 70.5304 105.709 69.8085 107.267C69.546 107.285 69.2671 107.285 68.9718 107.285C67.6757 107.285 67.2163 106.878 67.2163 106.488C67.2163 106.293 67.2983 106.134 67.4624 106.045C67.7741 105.833 68.2827 105.904 68.4468 105.992L68.5616 105.762C68.3319 105.62 67.7249 105.567 67.3475 105.815C67.1179 105.957 66.9866 106.187 66.9866 106.488C66.9866 106.736 67.1343 107.551 68.9882 107.551C69.2343 107.551 69.4804 107.551 69.7101 107.533C69.1031 108.897 68.5945 110.491 68.2992 111.838C67.8234 112.316 67.3968 112.847 66.9702 113.379C66.0186 114.565 65.0998 115.717 63.9022 115.965C63.1967 115.983 63.0163 115.345 63.0163 114.512C63.0163 111.2 64.6733 109.092 65.6413 109.34C66.1171 109.482 66.3139 109.73 66.478 109.978L66.6749 109.836C66.3632 109.322 65.9366 108.986 64.8046 108.986C63.7874 108.986 61.9334 110.155 61.4412 112.316C61.2771 112.511 61.0967 112.741 60.8998 112.989C60.0631 114.034 58.9638 115.416 57.6021 115.876C56.5849 116.107 56.3224 115.239 56.3224 114.3C56.3224 114.176 56.3224 114.034 56.3388 113.875C58.1271 112.139 59.0459 110.846 59.0459 110.031C59.0459 109.429 58.7506 109.181 58.0943 109.181C56.9623 109.181 55.4857 110.952 54.813 112.564C54.5833 112.83 54.3536 113.095 54.1403 113.361C53.1888 114.495 52.3356 115.504 51.5153 115.823C50.4981 115.983 50.416 115.327 50.416 114.548C50.416 113.839 50.6457 112.847 50.9575 111.838C52.7786 109.765 54.4521 107.569 54.4521 105.301V105.284C54.4521 105.089 54.452 104.752 54.3208 104.451C54.1567 104.079 53.8286 103.867 53.3856 103.867C51.8762 103.867 49.4317 108.171 49.12 112.298C48.8082 112.652 48.4965 113.007 48.2012 113.361C47.2496 114.495 46.4129 115.504 45.5761 115.823C44.5589 115.983 44.4769 115.327 44.4769 114.548C44.4769 113.839 44.723 112.847 45.0183 111.838C46.8394 109.765 48.5129 107.569 48.5129 105.301V105.284C48.5129 105.089 48.5129 104.752 48.3816 104.451C48.2176 104.079 47.8894 103.867 47.4465 103.867C45.9699 103.867 43.6074 107.958 43.2136 111.979C42.7378 112.351 42.4425 112.458 42.3604 112.458C41.655 112.458 41.2284 111.731 40.4409 110.332L40.2276 110.438C40.3917 110.916 40.3753 111.324 40.3753 111.625C40.3753 111.678 40.3753 111.731 40.3753 111.767C40.3753 114.264 39.0792 115.575 38.0291 115.983C36.9791 116.053 36.8151 115.132 36.8151 114.034C36.8151 112.245 37.7502 109.446 38.9971 109.446C39.5221 109.482 39.719 109.694 39.8502 109.836C39.8831 109.871 39.9159 109.907 39.9651 109.942L40.1127 109.73C40.0963 109.712 40.0635 109.677 40.0307 109.641C39.8667 109.464 39.5878 109.181 38.8167 109.181C37.3237 109.181 35.8307 110.049 35.3221 111.962C35.2072 112.103 35.076 112.263 34.9447 112.44C33.7306 113.963 31.8931 116.284 29.2352 116.284C29.1696 116.284 29.104 116.284 29.0384 116.266C26.9711 116.16 26.1508 114.441 26.1508 111.802C26.1508 107.197 28.6774 102.007 31.1712 101.989C32.9595 102.148 34.0095 103.424 34.0095 104.646C34.0095 104.734 34.0095 104.823 34.0095 104.912C33.304 105.425 32.8119 106.028 32.8119 106.453C32.8119 106.63 32.8775 106.913 33.2713 106.913C33.6486 106.913 34.1572 106.276 34.2392 105.053C34.6494 104.77 35.1416 104.486 35.683 104.309L35.601 104.061C35.1252 104.221 34.6658 104.469 34.2392 104.752V104.664C34.2392 103.016 32.7134 101.723 30.7611 101.723C28.0212 101.723 24.2148 105.195 24.2148 110.828C24.2148 114.53 26.8071 116.532 29.2352 116.532C32.0079 116.532 33.9603 114.069 35.1252 112.599C35.158 112.564 35.1908 112.528 35.2072 112.493C35.158 112.776 35.1416 113.06 35.1416 113.379C35.1416 115.433 36.29 116.39 37.3565 116.39C38.4885 116.39 40.6213 115.026 40.6213 111.784C40.6213 111.749 40.6213 111.696 40.6213 111.643C40.6213 111.501 40.6214 111.324 40.605 111.129C41.1628 112.103 41.6385 112.723 42.3604 112.723C42.4917 112.723 42.7706 112.617 43.1808 112.334C43.1643 112.599 43.148 112.865 43.148 113.148C43.148 115.15 43.8042 116.213 45.0511 116.213C46.1668 116.213 47.2004 114.991 48.3816 113.556C48.6113 113.272 48.841 113.007 49.0871 112.723C49.0871 112.865 49.0707 113.007 49.0707 113.148C49.0707 115.15 49.7269 116.213 50.9738 116.213C52.0895 116.213 53.1231 114.991 54.3044 113.556C54.3864 113.45 54.4848 113.343 54.5669 113.237C54.4848 113.538 54.4356 113.821 54.4356 114.069C54.4356 115.717 55.5841 116.319 56.6505 116.319C58.5865 116.319 60.0959 114.424 61.0803 113.166C61.1787 113.042 61.2607 112.936 61.3592 112.83C61.3428 113.042 61.31 113.255 61.31 113.485C61.31 115.221 62.0975 116.301 63.3772 116.301C64.9686 116.301 66.0843 114.902 67.1671 113.556C67.5116 113.131 67.8562 112.706 68.2171 112.316C68.0858 113.007 68.0038 113.609 68.0038 114.034C68.0038 115.487 68.8077 116.124 70.5961 116.124C71.7937 116.124 72.9422 114.778 73.9594 113.591C74.1891 113.326 74.4023 113.078 74.6156 112.847C74.6156 112.936 74.5992 113.042 74.5992 113.148C74.5992 115.345 76.2563 116.248 76.5352 116.248C77.2407 116.248 78.4548 115.008 79.7016 113.573C79.7673 115.522 80.8829 116.408 81.9165 116.408C83.0486 116.408 85.1814 115.044 85.1814 111.802C85.1814 111.767 85.1814 111.714 85.1814 111.66C85.1814 111.519 85.1814 111.342 85.165 111.147C85.7393 112.121 86.1986 112.741 86.9205 112.741C87.101 112.741 87.5767 112.546 88.2986 111.891C87.8557 113.662 87.4783 115.575 87.4947 116.089C88.0854 116.107 88.9713 116.16 88.9713 116.16L89.0697 115.912C90.2346 112.723 91.4323 109.411 92.9089 109.411C93.1058 109.411 93.155 109.499 93.1714 109.517C93.3354 109.765 93.0729 110.527 92.8104 111.342C92.4987 112.28 92.0886 113.467 92.0886 114.548C92.0886 115.805 92.6956 116.018 94.0573 116.018C94.9269 116.018 96.5183 114.07 98.1262 111.962L98.2574 111.784L98.0113 111.607Z" fill="#236B66"/>
<path d="M53.5855 7.12083C53.6191 8.74921 56.3401 8.38364 55.3155 10.3277C49.8399 10.793 43.0877 11.8398 38.7374 23.6207C34.7902 23.1554 33.4969 24.8669 34.3367 27.1101C35.798 30.9982 36.1844 31.7127 35.2438 34.1885C35.2438 34.1885 29.4826 25.4983 20.698 24.7505C11.9135 24.0028 -0.0120237 27.6916 2.28909 45.9694C3.53203 55.8394 12.199 61.6717 15.1384 64.2139C17.4563 66.2079 19.1695 67.0387 20.614 70.0794C22.6968 74.516 25.9889 79.4177 32.8923 81.6609C37.5449 83.173 34.8742 84.037 35.6637 85.4162C37.0578 87.8089 39.2077 91.6638 58.7756 91.8466C76.1599 92.0128 83.3824 87.4931 82.0051 84.1865C80.8798 81.4781 84.3063 82.0597 85.6836 81.6609C93.5275 79.4177 96.2318 74.9812 99.1879 69.9797C102.144 64.9783 104.848 50.0902 107.502 41.9649C110.156 33.8396 114.674 33.5405 117.614 32.7762C117.614 32.7762 117.966 32.5269 118 31.9454V31.7958C117.966 31.1311 117.53 30.1009 115.9 28.6387C113.633 26.6116 108.913 26.1131 107.469 26.7445C103.941 28.2732 98.2641 32.6432 92.0326 44.2745C87.6655 52.3998 81.2493 41.1008 80.695 37.4619C80.1239 33.8063 79.8888 31.5964 81.0981 29.3532C81.7196 28.2067 83.4496 25.8638 82.0723 24.7007C80.5774 23.4379 78.1251 23.3216 77.3861 23.7204C73.9932 10.3443 61.2447 10.3444 61.2447 10.3444C61.2447 10.3444 60.0689 9.04826 61.8326 8.1676C63.0923 7.53619 63.5626 5.55886 60.2705 3.59816C59.565 3.18275 58.8596 3 58.1709 3C55.6347 3.01662 53.5519 5.42598 53.5855 7.12083ZM7.96626 45.9694C5.48038 34.9861 13.0724 30.1176 18.1954 30.0179C22.5288 29.9348 26.8623 32.3608 29.0962 37.9438C28.6259 39.9876 28.7267 41.3999 29.7681 43.1779C29.8689 43.3606 29.4825 45.0057 27.6517 47.4649C25.1826 50.7549 19.6566 51.3696 20.0765 58.6641C20.0765 58.6475 10.0826 55.3076 7.96626 45.9694Z" fill="#236B66"/>
</svg>
