<svg width="180" height="180" viewBox="0 0 180 180" fill="none" xmlns="http://www.w3.org/2000/svg">
<path d="M87.8845 165.891C87.8845 166.963 86.6189 168.758 84.187 171.142C84.4351 168.49 85.4029 165.034 87.0408 165.034C87.81 165.087 87.8845 165.462 87.8845 165.891ZM80.9113 158.711V158.737C80.9113 161.792 78.7523 164.846 76.2707 167.74C76.7919 166.132 77.3378 164.578 77.6604 163.48C78.2808 161.283 79.2238 157.398 80.2909 157.13C80.4894 157.237 80.6383 157.398 80.7624 157.639C80.9113 157.987 80.9113 158.443 80.9113 158.711ZM71.928 158.711V158.737C71.928 161.792 69.769 164.846 67.2874 167.74C67.7837 166.132 68.3545 164.578 68.6771 163.48C69.2975 161.283 70.2405 157.398 71.3076 157.13C71.5061 157.237 71.655 157.398 71.7542 157.639C71.9279 157.987 71.928 158.443 71.928 158.711ZM49.1967 160.8C48.9237 160.8 48.8741 160.693 48.8741 160.506C48.8741 160.104 49.3952 159.38 50.2638 158.684C50.0901 160.157 49.4697 160.8 49.1967 160.8ZM147.219 168.276L147.02 168.517C145.73 170.205 142.802 174.09 141.362 174.465C140.841 174.465 140.643 174.116 140.643 173.447C140.643 171.598 142.231 169.347 142.231 166.856C142.231 164.793 140.345 164.498 139.452 164.498H139.427C139.427 164.498 139.427 164.498 139.402 164.498C139.352 164.498 139.328 164.498 139.303 164.498V164.525C137.566 164.605 136.126 167.204 134.811 170.473L134.737 170.285C135.01 168.999 135.58 166.025 133.62 165.007C133.62 165.007 133.496 164.873 133.446 165.087C133.198 165.864 132.9 166.882 132.627 167.954C131.337 169.24 130.543 169.535 130.369 169.535C129.302 169.535 128.657 168.436 127.466 166.32L127.143 166.48C127.391 167.204 127.366 167.82 127.366 168.276C127.366 168.356 127.366 168.436 127.366 168.49C127.366 172.268 125.406 174.25 123.818 174.867C122.23 174.974 121.981 173.58 121.981 171.919C121.981 169.213 123.396 164.98 125.282 164.98C126.076 165.034 126.374 165.355 126.572 165.569C126.622 165.623 126.672 165.677 126.746 165.73L126.969 165.409C126.944 165.382 126.895 165.328 126.845 165.275C126.597 165.007 126.175 164.578 125.009 164.578C122.329 164.578 119.624 166.454 119.5 170.606C117.986 172.348 115.728 174.813 114.71 174.813C114.487 174.813 113.991 174.786 113.991 172.857C113.991 171.357 114.487 168.731 115.703 165.382C115.703 165.382 115.753 165.087 115.38 165.087C114.413 165.087 112.328 166.722 111.881 169.454C111.459 169.91 111.013 170.419 110.541 170.955C109.052 172.696 107.365 174.652 105.727 174.652C104.759 174.652 104.561 173.607 104.561 171.893C104.561 169.749 105.578 165.73 107.092 161.872C109.127 161.604 110.616 161.095 111.981 160.666C113.718 160.104 115.231 159.621 117.465 159.621C118.631 159.621 119.276 159.943 119.276 160.238C119.276 160.479 119.177 160.72 118.433 160.72V161.122C118.73 161.122 119.649 161.122 119.649 160.238C119.649 159.488 118.532 159.246 117.465 159.246C115.157 159.246 113.544 159.755 111.857 160.318C110.566 160.747 109.152 161.202 107.241 161.47C107.638 160.479 108.085 159.461 108.531 158.523L108.854 157.826C108.606 157.692 108.283 157.585 108.258 157.585H108.233C106.968 157.585 105.653 159.354 104.561 161.711C104.164 161.738 103.742 161.738 103.295 161.738C101.335 161.738 100.64 161.122 100.64 160.532C100.64 160.238 100.764 159.997 101.012 159.863C101.484 159.541 102.253 159.648 102.501 159.782L102.675 159.434C102.327 159.22 101.409 159.139 100.838 159.514C100.491 159.729 100.292 160.077 100.292 160.532C100.292 160.908 100.516 162.14 103.32 162.14C103.692 162.14 104.064 162.14 104.412 162.113C103.494 164.176 102.724 166.588 102.278 168.624C101.558 169.347 100.913 170.151 100.268 170.955C98.8282 172.75 97.4385 174.491 95.627 174.867C94.5599 174.893 94.287 173.929 94.287 172.669C94.287 167.659 96.7933 164.471 98.2575 164.846C98.9771 165.06 99.2749 165.435 99.5231 165.811L99.8209 165.596C99.3494 164.819 98.7042 164.31 96.9919 164.31C95.4533 164.31 92.6491 166.079 91.9046 169.347C91.6565 169.642 91.3835 169.99 91.0857 170.365C89.8201 171.946 88.1575 174.036 86.0977 174.733C84.5592 175.081 84.1621 173.768 84.1621 172.348C84.1621 172.16 84.1621 171.946 84.187 171.705C86.8919 169.079 88.2815 167.123 88.2815 165.891C88.2815 164.98 87.8349 164.605 86.8423 164.605C85.13 164.605 82.8966 167.284 81.8791 169.722C81.5317 170.124 81.1843 170.526 80.8617 170.928C79.4223 172.643 78.1319 174.17 76.8911 174.652C75.3525 174.893 75.2284 173.902 75.2284 172.723C75.2284 171.651 75.5759 170.151 76.0474 168.624C78.8019 165.489 81.3332 162.167 81.3332 158.737V158.711C81.3332 158.416 81.3331 157.907 81.1346 157.451C80.8864 156.889 80.3901 156.567 79.7201 156.567C77.437 156.567 73.7395 163.078 73.268 169.32C72.7965 169.856 72.325 170.392 71.8784 170.928C70.439 172.643 69.1734 174.17 67.9078 174.652C66.3692 174.893 66.2451 173.902 66.2451 172.723C66.2451 171.651 66.6174 170.151 67.0641 168.624C69.8186 165.489 72.3498 162.167 72.3498 158.737V158.711C72.3498 158.416 72.3498 157.907 72.1513 157.451C71.9031 156.889 71.4068 156.567 70.7368 156.567C68.5034 156.567 64.9299 162.756 64.3343 168.838C63.6147 169.401 63.168 169.562 63.0439 169.562C61.9768 169.562 61.3316 168.463 60.1405 166.346L59.8179 166.507C60.066 167.231 60.0412 167.847 60.0412 168.302C60.0412 168.383 60.0412 168.463 60.0412 168.517C60.0412 172.294 58.0808 174.277 56.4926 174.893C54.9044 175.001 54.6562 173.607 54.6562 171.946C54.6562 169.24 56.0707 165.007 57.9567 165.007C58.7508 165.06 59.0485 165.382 59.2471 165.596C59.2967 165.65 59.3464 165.703 59.4208 165.757L59.6441 165.436C59.6193 165.409 59.5697 165.355 59.5201 165.302C59.2719 165.034 58.8501 164.605 57.6837 164.605C55.4255 164.605 53.1673 165.918 52.398 168.811C52.2243 169.026 52.0257 169.267 51.8272 169.535C49.9908 171.839 47.2114 175.349 43.1913 175.349C43.092 175.349 42.9928 175.349 42.8935 175.322C39.7667 175.161 38.526 172.562 38.526 168.57C38.526 161.604 42.3476 153.754 46.1196 153.727C48.8245 153.968 50.4127 155.897 50.4127 157.746C50.4127 157.88 50.4127 158.014 50.4127 158.148C49.3456 158.925 48.6012 159.836 48.6012 160.479C48.6012 160.747 48.7004 161.176 49.296 161.176C49.8668 161.176 50.636 160.211 50.7601 158.362C51.3805 157.934 52.125 157.505 52.9439 157.237L52.8198 156.862C52.1001 157.103 51.4053 157.478 50.7601 157.907V157.773C50.7601 155.281 48.4523 153.325 45.4992 153.325C41.355 153.325 35.5977 158.577 35.5977 167.097C35.5977 172.696 39.5185 175.724 43.1913 175.724C47.3851 175.724 50.3383 172 52.1002 169.776C52.1498 169.722 52.1994 169.669 52.2242 169.615C52.1498 170.044 52.125 170.473 52.125 170.955C52.125 174.063 53.8621 175.51 55.4751 175.51C57.1874 175.51 60.4134 173.447 60.4134 168.543C60.4134 168.49 60.4134 168.409 60.4134 168.329C60.4134 168.115 60.4135 167.847 60.3887 167.552C61.2324 169.026 61.952 169.963 63.0439 169.963C63.2424 169.963 63.6643 169.803 64.2847 169.374C64.2599 169.776 64.2351 170.178 64.2351 170.606C64.2351 173.634 65.2277 175.242 67.1137 175.242C68.8012 175.242 70.3646 173.393 72.1513 171.223C72.4987 170.794 72.8461 170.392 73.2184 169.963C73.2184 170.178 73.1936 170.392 73.1936 170.606C73.1936 173.634 74.1862 175.242 76.0722 175.242C77.7596 175.242 79.323 173.393 81.1097 171.223C81.2338 171.062 81.3827 170.901 81.5068 170.74C81.3827 171.196 81.3083 171.625 81.3083 172C81.3083 174.491 83.0454 175.402 84.6585 175.402C87.5867 175.402 89.8697 172.536 91.3587 170.633C91.5076 170.446 91.6317 170.285 91.7806 170.124C91.7558 170.446 91.7061 170.767 91.7061 171.116C91.7061 173.741 92.8973 175.376 94.8329 175.376C97.2401 175.376 98.9275 173.259 100.565 171.223C101.087 170.58 101.608 169.937 102.154 169.347C101.955 170.392 101.831 171.303 101.831 171.946C101.831 174.143 103.047 175.108 105.752 175.108C107.563 175.108 109.3 173.071 110.839 171.276C111.186 170.874 111.509 170.499 111.832 170.151C111.832 170.285 111.807 170.446 111.807 170.606C111.807 173.929 114.313 175.295 114.735 175.295C115.802 175.295 117.639 173.42 119.525 171.249C119.624 174.197 121.311 175.536 122.875 175.536C124.587 175.536 127.813 173.473 127.813 168.57C127.813 168.517 127.813 168.436 127.813 168.356C127.813 168.142 127.813 167.874 127.788 167.579C128.657 169.053 129.352 169.99 130.443 169.99C130.716 169.99 131.436 169.696 132.528 168.704C131.858 171.384 131.287 174.277 131.312 175.054C132.205 175.081 133.545 175.161 133.545 175.161L133.694 174.786C135.456 169.963 137.268 164.953 139.501 164.953C139.799 164.953 139.873 165.087 139.898 165.114C140.146 165.489 139.749 166.641 139.352 167.874C138.881 169.294 138.261 171.089 138.261 172.723C138.261 174.625 139.179 174.947 141.238 174.947C142.554 174.947 144.961 172 147.393 168.811L147.591 168.543L147.219 168.276Z" fill="#236B66"/>
<path d="M80.0259 10.233C80.0768 12.696 84.1925 12.1431 82.6427 15.0836C74.3605 15.7873 64.1474 17.3707 57.5674 35.1899C51.5971 34.4862 49.6409 37.0749 50.9111 40.4678C53.1214 46.3489 53.7058 47.4296 52.2831 51.1744C52.2831 51.1744 43.5689 38.0299 30.2818 36.8989C16.9947 35.7679 -1.0433 41.3474 2.43727 68.9936C4.31728 83.9225 17.4266 92.7442 21.8725 96.5895C25.3785 99.6054 27.9698 100.862 30.1547 105.461C33.305 112.172 38.2846 119.586 48.7263 122.979C55.7636 125.266 51.7241 126.573 52.9182 128.659C55.0269 132.278 58.2787 138.109 87.8763 138.385C114.171 138.637 125.096 131.801 123.012 126.799C121.31 122.703 126.493 123.582 128.576 122.979C140.441 119.586 144.531 112.876 149.002 105.311C153.474 97.7456 157.564 75.2266 161.578 62.9366C165.592 50.6466 172.426 50.1943 176.872 49.0381C176.872 49.0381 177.406 48.6612 177.457 47.7815V47.5552C177.406 46.5499 176.745 44.9917 174.281 42.78C170.851 39.7138 163.712 38.9599 161.527 39.9149C156.192 42.2271 147.605 48.837 138.179 66.4301C131.574 78.72 121.869 61.6297 121.031 56.1256C120.167 50.5963 119.811 47.2536 121.64 43.8607C122.58 42.1265 125.197 38.5828 123.114 36.8235C120.853 34.9134 117.144 34.7375 116.026 35.3407C110.894 15.1087 91.6109 15.1088 91.6109 15.1088C91.6109 15.1088 89.8325 13.1483 92.5001 11.8163C94.4055 10.8612 95.1169 7.87043 90.1374 4.90475C89.0704 4.27642 88.0033 4 86.9617 4C83.1255 4.02513 79.9751 7.66943 80.0259 10.233ZM11.0243 68.9936C7.26427 52.3807 18.7477 45.0169 26.4964 44.8661C33.051 44.7404 39.6057 48.4098 42.9846 56.8544C42.2732 59.9458 42.4257 62.0821 44.0008 64.7713C44.1532 65.0477 43.5689 67.5359 40.7997 71.2556C37.065 76.2319 28.7067 77.1618 29.3418 88.1951C29.3418 88.17 14.2254 83.1182 11.0243 68.9936Z" fill="#236B66"/>
</svg>
