<svg width="192" height="192" viewBox="0 0 192 192" fill="none" xmlns="http://www.w3.org/2000/svg">
<path d="M93.7509 176.942C93.7509 178.087 92.3989 180.005 89.801 182.552C90.0661 179.719 91.0999 176.026 92.8496 176.026C93.6714 176.084 93.7509 176.484 93.7509 176.942ZM86.3016 169.272V169.3C86.3016 172.563 83.9953 175.826 81.3443 178.917C81.901 177.2 82.4842 175.54 82.8288 174.366C83.4916 172.019 84.499 167.869 85.6389 167.583C85.851 167.697 86.01 167.869 86.1426 168.127C86.3016 168.499 86.3016 168.985 86.3016 169.272ZM76.7051 169.272V169.3C76.7051 172.563 74.3987 175.826 71.7477 178.917C72.2779 177.2 72.8876 175.54 73.2323 174.366C73.895 172.019 74.9024 167.869 76.0423 167.583C76.2544 167.697 76.4134 167.869 76.5195 168.127C76.705 168.499 76.7051 168.985 76.7051 169.272ZM52.422 171.504C52.1304 171.504 52.0773 171.39 52.0773 171.189C52.0773 170.76 52.634 169.987 53.5619 169.243C53.3763 170.817 52.7136 171.504 52.422 171.504ZM157.136 179.49L156.924 179.747C155.546 181.55 152.417 185.7 150.88 186.101C150.323 186.101 150.111 185.729 150.111 185.014C150.111 183.039 151.808 180.634 151.808 177.973C151.808 175.769 149.793 175.454 148.838 175.454H148.812C148.812 175.454 148.812 175.454 148.785 175.454C148.732 175.454 148.706 175.454 148.679 175.454V175.483C146.824 175.568 145.286 178.345 143.881 181.837L143.802 181.636C144.093 180.262 144.703 177.085 142.609 175.998C142.609 175.998 142.476 175.855 142.423 176.084C142.158 176.914 141.84 178.001 141.548 179.146C140.17 180.52 139.321 180.835 139.136 180.835C137.996 180.835 137.307 179.661 136.034 177.4L135.69 177.572C135.955 178.345 135.928 179.003 135.928 179.49C135.928 179.575 135.928 179.661 135.928 179.718C135.928 183.754 133.834 185.872 132.137 186.53C130.441 186.645 130.175 185.157 130.175 183.382C130.175 180.491 131.687 175.969 133.701 175.969C134.55 176.026 134.868 176.37 135.08 176.599C135.133 176.656 135.186 176.713 135.265 176.77L135.504 176.427C135.477 176.398 135.425 176.341 135.371 176.284C135.106 175.998 134.656 175.54 133.41 175.54C130.547 175.54 127.657 177.543 127.524 181.98C125.907 183.84 123.495 186.473 122.408 186.473C122.17 186.473 121.639 186.445 121.639 184.384C121.639 182.781 122.17 179.976 123.468 176.398C123.468 176.398 123.522 176.084 123.124 176.084C122.09 176.084 119.863 177.829 119.386 180.749C118.935 181.235 118.458 181.779 117.954 182.352C116.364 184.212 114.561 186.302 112.812 186.302C111.778 186.302 111.566 185.185 111.566 183.354C111.566 181.064 112.652 176.77 114.27 172.649C116.443 172.363 118.034 171.819 119.492 171.361C121.348 170.76 122.965 170.245 125.351 170.245C126.597 170.245 127.286 170.588 127.286 170.903C127.286 171.161 127.18 171.418 126.385 171.418V171.847C126.703 171.847 127.684 171.848 127.684 170.903C127.684 170.102 126.491 169.844 125.351 169.844C122.885 169.844 121.162 170.388 119.359 170.989C117.981 171.447 116.47 171.933 114.429 172.22C114.853 171.161 115.33 170.073 115.807 169.071L116.152 168.327C115.887 168.184 115.542 168.069 115.516 168.069H115.489C114.137 168.069 112.732 169.958 111.566 172.477C111.141 172.506 110.691 172.506 110.214 172.506C108.119 172.506 107.377 171.847 107.377 171.218C107.377 170.903 107.51 170.645 107.775 170.502C108.278 170.159 109.1 170.273 109.365 170.416L109.551 170.044C109.18 169.815 108.199 169.73 107.589 170.13C107.218 170.359 107.006 170.731 107.006 171.218C107.006 171.619 107.244 172.935 110.24 172.935C110.638 172.935 111.035 172.935 111.407 172.907C110.426 175.11 109.604 177.686 109.127 179.862C108.358 180.634 107.669 181.493 106.979 182.352C105.442 184.269 103.957 186.13 102.022 186.53C100.882 186.559 100.591 185.529 100.591 184.183C100.591 178.831 103.268 175.425 104.832 175.826C105.601 176.055 105.919 176.456 106.184 176.856L106.502 176.627C105.998 175.797 105.309 175.253 103.48 175.253C101.836 175.253 98.8408 177.143 98.0455 180.634C97.7804 180.949 97.4888 181.321 97.1707 181.722C95.8187 183.411 94.0425 185.643 91.8422 186.387C90.1986 186.759 89.7744 185.357 89.7744 183.84C89.7744 183.64 89.7745 183.411 89.801 183.153C92.6905 180.348 94.1751 178.259 94.1751 176.942C94.1751 175.969 93.6979 175.568 92.6375 175.568C90.8084 175.568 88.4225 178.431 87.3356 181.035C86.9644 181.464 86.5933 181.894 86.2486 182.323C84.7111 184.155 83.3325 185.786 82.007 186.302C80.3634 186.559 80.2308 185.5 80.2308 184.241C80.2308 183.096 80.602 181.493 81.1057 179.862C84.0483 176.513 86.7523 172.964 86.7523 169.3V169.272C86.7523 168.957 86.7523 168.413 86.5402 167.926C86.2751 167.325 85.7449 166.982 85.0291 166.982C82.5902 166.982 78.6403 173.937 78.1366 180.606C77.6329 181.178 77.1292 181.751 76.6521 182.323C75.1145 184.155 73.7625 185.786 72.4105 186.302C70.7669 186.559 70.6343 185.5 70.6343 184.241C70.6343 183.096 71.032 181.493 71.5091 179.862C74.4517 176.513 77.1557 172.964 77.1557 169.3V169.272C77.1557 168.957 77.1557 168.413 76.9436 167.926C76.6785 167.325 76.1483 166.982 75.4326 166.982C73.0467 166.982 69.2293 173.593 68.593 180.091C67.8243 180.692 67.347 180.863 67.2145 180.863C66.0745 180.863 65.3853 179.69 64.1129 177.429L63.7682 177.601C64.0333 178.373 64.0068 179.032 64.0068 179.518C64.0068 179.604 64.0068 179.69 64.0068 179.747C64.0068 183.783 61.9125 185.901 60.2159 186.559C58.5193 186.674 58.2542 185.185 58.2542 183.411C58.2542 180.52 59.7652 175.998 61.78 175.998C62.6283 176.055 62.9464 176.398 63.1585 176.627C63.2115 176.685 63.2645 176.742 63.3441 176.799L63.5826 176.456C63.5561 176.427 63.5031 176.37 63.4501 176.312C63.185 176.026 62.7344 175.568 61.4884 175.568C59.076 175.568 56.6636 176.971 55.8418 180.062C55.6562 180.291 55.4441 180.549 55.232 180.835C53.2703 183.296 50.3012 187.046 46.0066 187.046C45.9005 187.046 45.7945 187.046 45.6884 187.017C42.3482 186.845 41.0228 184.069 41.0228 179.804C41.0228 172.363 45.1053 163.977 49.1348 163.948C52.0244 164.206 53.7209 166.266 53.7209 168.241C53.7209 168.384 53.7209 168.527 53.7209 168.671C52.581 169.501 51.7858 170.474 51.7858 171.161C51.7858 171.447 51.8918 171.905 52.528 171.905C53.1378 171.905 53.9596 170.874 54.0921 168.899C54.7549 168.442 55.5502 167.984 56.425 167.697L56.2924 167.297C55.5236 167.554 54.7814 167.955 54.0921 168.413V168.27C54.0921 165.608 51.6267 163.519 48.472 163.519C44.0449 163.519 37.8945 169.128 37.8945 178.23C37.8945 184.212 42.0831 187.446 46.0066 187.446C50.4867 187.446 53.6415 183.468 55.5237 181.092C55.5767 181.035 55.6297 180.978 55.6562 180.921C55.5767 181.379 55.5501 181.837 55.5501 182.352C55.5501 185.672 57.4058 187.217 59.129 187.217C60.9582 187.217 64.4044 185.014 64.4044 179.776C64.4044 179.719 64.4044 179.633 64.4044 179.547C64.4044 179.318 64.4045 179.032 64.378 178.717C65.2793 180.291 66.048 181.293 67.2145 181.293C67.4266 181.293 67.8772 181.121 68.54 180.663C68.5135 181.092 68.487 181.522 68.487 181.98C68.487 185.214 69.5474 186.931 71.5621 186.931C73.3648 186.931 75.0349 184.956 76.9436 182.638C77.3148 182.18 77.6859 181.751 78.0835 181.293C78.0835 181.522 78.0571 181.751 78.0571 181.98C78.0571 185.214 79.1174 186.931 81.1322 186.931C82.9348 186.931 84.605 184.956 86.5137 182.638C86.6462 182.466 86.8053 182.294 86.9378 182.123C86.8053 182.609 86.7258 183.067 86.7258 183.468C86.7258 186.13 88.5815 187.103 90.3047 187.103C93.4328 187.103 95.8717 184.04 97.4623 182.008C97.6213 181.808 97.7539 181.636 97.913 181.464C97.8865 181.808 97.8335 182.151 97.8335 182.523C97.8335 185.328 99.106 187.074 101.174 187.074C103.745 187.074 105.548 184.813 107.298 182.638C107.854 181.951 108.411 181.264 108.994 180.634C108.782 181.751 108.649 182.724 108.649 183.411C108.649 185.758 109.948 186.788 112.838 186.788C114.773 186.788 116.629 184.613 118.273 182.695C118.644 182.266 118.988 181.865 119.333 181.493C119.333 181.636 119.306 181.808 119.306 181.98C119.306 185.529 121.984 186.988 122.435 186.988C123.575 186.988 125.536 184.985 127.551 182.667C127.657 185.815 129.46 187.246 131.13 187.246C132.959 187.246 136.405 185.042 136.405 179.804C136.405 179.747 136.405 179.661 136.405 179.575C136.405 179.346 136.405 179.06 136.379 178.745C137.307 180.32 138.049 181.321 139.215 181.321C139.507 181.321 140.276 181.007 141.442 179.948C140.726 182.81 140.117 185.901 140.143 186.731C141.098 186.759 142.529 186.845 142.529 186.845L142.688 186.445C144.57 181.293 146.506 175.94 148.892 175.94C149.21 175.94 149.289 176.084 149.316 176.112C149.581 176.513 149.157 177.744 148.732 179.06C148.229 180.577 147.566 182.495 147.566 184.241C147.566 186.273 148.547 186.616 150.747 186.616C152.152 186.616 154.724 183.468 157.322 180.062L157.534 179.776L157.136 179.49Z" fill="#236B66"/>
<path d="M85.3527 10.6585C85.407 13.2897 89.8036 12.699 88.1481 15.8403C79.3005 16.592 68.3902 18.2835 61.3609 37.3192C54.983 36.5674 52.8932 39.3329 54.2502 42.9574C56.6114 49.24 57.2357 50.3945 55.7158 54.3949C55.7158 54.3949 46.4068 40.3531 32.2126 39.1449C18.0183 37.9367 -1.25106 43.8971 2.46712 73.4306C4.47548 89.3787 18.4797 98.8026 23.2292 102.91C26.9745 106.132 29.7428 107.475 32.0768 112.388C35.4422 119.557 40.7617 127.477 51.9162 131.102C59.434 133.545 55.1187 134.941 56.3943 137.169C58.6469 141.036 62.1208 147.264 93.7389 147.56C121.829 147.828 133.499 140.525 131.274 135.183C129.455 130.806 134.992 131.746 137.217 131.102C149.892 127.477 154.261 120.308 159.038 112.227C163.815 104.146 168.184 80.0892 172.472 66.9602C176.76 53.8312 184.061 53.3479 188.81 52.1129C188.81 52.1129 189.38 51.7101 189.435 50.7704V50.5287C189.38 49.4548 188.675 47.7902 186.042 45.4275C182.378 42.1519 174.752 41.3465 172.418 42.3668C166.719 44.8368 157.545 51.898 147.476 70.6921C140.42 83.8211 130.052 65.564 129.157 59.6841C128.234 53.7774 127.854 50.2065 129.808 46.582C130.812 44.7294 133.608 40.9438 131.382 39.0644C128.967 37.0239 125.004 36.8359 123.81 37.4803C118.328 15.8671 97.7285 15.8671 97.7285 15.8671C97.7285 15.8671 95.8287 13.7729 98.6784 12.3499C100.714 11.3296 101.474 8.13466 96.1544 4.96651C95.0145 4.2953 93.8747 4 92.7619 4C88.6638 4.02685 85.2984 7.91993 85.3527 10.6585ZM11.6404 73.4306C7.62366 55.6836 19.891 47.8171 28.1687 47.656C35.1708 47.5217 42.1729 51.4416 45.7826 60.4627C45.0226 63.7651 45.1855 66.0473 46.8681 68.9201C47.031 69.2154 46.4067 71.8735 43.4485 75.8471C39.4589 81.1631 30.5299 82.1565 31.2084 93.943C31.2084 93.9162 15.06 88.5196 11.6404 73.4306Z" fill="#236B66"/>
</svg>
